<?xml version="1.0" standalone="no"?>
<!DOCTYPE svg PUBLIC "-//W3C//DTD SVG 1.1//EN" "http://www.w3.org/Graphics/SVG/1.1/DTD/svg11.dtd" >
<svg xmlns="http://www.w3.org/2000/svg" xmlns:xlink="http://www.w3.org/1999/xlink" version="1.1">
<metadata>
Created by FontForge 20170731 at Sun Dec 18 02:44:29 2011
 By Aleksey,,,
Copyright (c) 2011, Sorkin Type Co (www.sorkintype.com)with Reserved Font Name "Habibi".
</metadata>
<defs>
<font id="Habibi-Regular" horiz-adv-x="1196" >
  <font-face 
    font-family="Habibi"
    font-weight="400"
    font-stretch="normal"
    units-per-em="2048"
    panose-1="2 0 0 0 0 0 0 0 0 0"
    ascent="1638"
    descent="-410"
    x-height="989"
    cap-height="1508"
    bbox="-174 -560 2381 2000"
    underline-thickness="107"
    underline-position="-324"
    unicode-range="U+0001-FB02"
  />
<missing-glyph horiz-adv-x="659" 
 />
    <glyph glyph-name=".notdef" unicode="fb" horiz-adv-x="659" 
 />
    <glyph glyph-name="fi" unicode="fi" horiz-adv-x="1203" 
d="M347 110l217 -27v-83h-517v83l138 23v770h-138v83l138 30v212q0 157 97 299q111 163 291 163q115 0 188 -46q32 -20 48 -46l-68 -177h-65q0 100 -70 136q-25 14 -63.5 14t-74 -16.5t-62.5 -50.5q-59 -74 -59 -207v-281h304v-117h-304v-762zM1032 106l128 -23v-83h-420v83
l130 23v728l-130 23v83l292 73v-907zM838 1358q-10 22 -10 43.5t10 43t26 39.5q37 40 67.5 40t52 -11t38.5 -29q37 -41 37 -72.5t-10.5 -53.5t-26.5 -40q-38 -39 -69.5 -39t-51.5 11t-36.5 28.5t-26.5 39.5z" />
    <glyph glyph-name="fl" unicode="fl" horiz-adv-x="1203" 
d="M347 110l217 -27v-83h-517v83l138 23v770h-138v83l138 30v212q0 157 97 299q111 163 291 163q115 0 188 -46q32 -20 48 -46l-68 -177h-65q0 100 -70 136q-25 14 -63.5 14t-74 -16.5t-62.5 -50.5q-59 -74 -59 -207v-281h304v-117h-304v-762zM1025 106l128 -23v-83h-420v83
l130 23v1377l-130 25v81l292 74v-1557z" />
    <glyph glyph-name=".null" horiz-adv-x="0" 
 />
    <glyph glyph-name=".null" horiz-adv-x="0" 
 />
    <glyph glyph-name="nonmarkingreturn" unicode="&#xd;" horiz-adv-x="659" 
 />
    <glyph glyph-name="uni0001" horiz-adv-x="0" 
 />
    <glyph glyph-name="uni0002" horiz-adv-x="0" 
 />
    <glyph glyph-name="uni0003" horiz-adv-x="0" 
 />
    <glyph glyph-name="uni0004" horiz-adv-x="0" 
 />
    <glyph glyph-name="uni0005" horiz-adv-x="0" 
 />
    <glyph glyph-name="uni0006" horiz-adv-x="0" 
 />
    <glyph glyph-name="uni0007" horiz-adv-x="0" 
 />
    <glyph glyph-name="uni0008" horiz-adv-x="0" 
 />
    <glyph glyph-name="uni0009" unicode="&#x9;" horiz-adv-x="0" 
 />
    <glyph glyph-name="uni0010" horiz-adv-x="0" 
 />
    <glyph glyph-name="uni0011" horiz-adv-x="0" 
 />
    <glyph glyph-name="uni0012" horiz-adv-x="0" 
 />
    <glyph glyph-name="uni0013" horiz-adv-x="0" 
 />
    <glyph glyph-name="uni0014" horiz-adv-x="0" 
 />
    <glyph glyph-name="uni0015" horiz-adv-x="0" 
 />
    <glyph glyph-name="uni0016" horiz-adv-x="0" 
 />
    <glyph glyph-name="uni0017" horiz-adv-x="0" 
 />
    <glyph glyph-name="uni0018" horiz-adv-x="0" 
 />
    <glyph glyph-name="uni0019" horiz-adv-x="0" 
 />
    <glyph glyph-name="space" unicode=" " horiz-adv-x="686" 
 />
    <glyph glyph-name="exclam" unicode="!" horiz-adv-x="512" 
d="M243 1601q41 0 95 -9q0 -408 -12 -587q-34 -486 -38 -616h-78q-8 181 -18 317l-16 218q-20 279 -20 668q41 9 87 9zM141 60.5q-14 22.5 -14 41.5t12.5 41.5t32.5 42.5q45 47 83 47q40 0 73 -33q57 -57 57 -97q0 -38 -33 -69q-58 -57 -97 -57q-34 0 -67 30.5t-47 53z" />
    <glyph glyph-name="quotedbl" unicode="&#x22;" horiz-adv-x="853" 
d="M341 1508l-29 -401h-110l-30 401h169zM681 1508l-29 -401h-110l-30 401h169z" />
    <glyph glyph-name="numbersign" unicode="#" horiz-adv-x="1540" 
d="M906 483h-413l-103 -506l-115 23l99 483h-248v106h268l76 364h-274v107h295l96 471l117 -23l-92 -448h411l97 471l116 -23l-92 -448h270v-107h-292l-75 -364h297v-106h-318l-104 -506l-115 23zM515 589h412l76 364h-413z" />
    <glyph glyph-name="dollar" unicode="$" 
d="M676 1519q185 -21 311 -115l-35 -264h-85q0 139 -54 200q-58 64 -196 64q-190 0 -255 -122q-21 -40 -21 -83.5t5.5 -70t21 -51t41.5 -48.5t67 -51q73 -49 213 -119t214.5 -124.5t118.5 -108.5q76 -96 76 -233q0 -226 -242 -347q-98 -49 -207 -64v-164h-105v161
q-182 10 -329 93q-68 36 -118 81l42 285h87q0 -344 349 -344q142 0 237 72q95 71 95 178q0 104 -67 174q-68 70 -229 149.5t-244 134.5t-131 109q-83 95 -83 236q0 160 124 267q116 100 293 110v139h106v-144z" />
    <glyph glyph-name="percent" unicode="%" horiz-adv-x="1877" 
d="M1556 1594l78 -68l-1296 -1486l-80 68zM177 1226q0 87 29 162t76 128q98 109 233 109q153 0 247 -107t94 -269q0 -180 -105 -299q-98 -112 -231 -112q-151 0 -248 110q-95 109 -95 278zM326 1363.5q-13 -54.5 -13 -117.5t11.5 -122t35.5 -104q55 -101 157 -101
q95 0 150 78q53 75 53 207q0 232 -107 310q-40 30 -94 30t-91.5 -23t-63 -63t-38.5 -94.5zM1021 386q0 87 29 162t76 128q98 109 233 109q153 0 247 -107t94 -269q0 -180 -105 -299q-98 -112 -231 -112q-151 0 -248 110q-95 109 -95 278zM1170 523.5q-13 -54.5 -13 -117.5
t11.5 -122t35.5 -104q55 -101 157 -101q95 0 150 78q53 75 53 207q0 232 -107 310q-40 30 -94 30t-91.5 -23t-63 -63t-38.5 -94.5z" />
    <glyph glyph-name="ampersand" unicode="&#x26;" horiz-adv-x="1366" 
d="M857 1079q0 265 -223 265q-98 0 -161 -63q-64 -64 -64 -160q0 -109 185 -307l227 -240q170 -174 239.5 -238.5t126.5 -107.5q124 -92 198.5 -92t136.5 41l61 -64q-143 -136 -259 -136q-78 0 -157 52q-38 25 -79 59l-90 74q-175 -185 -407 -185q-212 0 -338 101
q-131 104 -131 287q0 143 92 251q77 92 195 137q-176 205 -176 357q0 157 119 254q113 92 277 92q139 0 224 -28.5t120 -49.5l-36 -299h-80zM483 678v-2q-75 -39 -121.5 -112.5t-46.5 -152t18.5 -131.5t57.5 -94q86 -92 247 -92q149 0 295 124q-75 68 -149 143z" />
    <glyph glyph-name="quotesingle" unicode="'" horiz-adv-x="512" 
d="M339 1508l-29 -401h-110l-30 401h169z" />
    <glyph glyph-name="parenleft" unicode="(" horiz-adv-x="853" 
d="M697 1603q-147 -140 -249 -385q-115 -278 -115 -641q0 -450 182 -819q80 -162 182 -278l-30 -40q-211 169 -350 439q-161 311 -161 698q0 481 255 821q113 150 256 246z" />
    <glyph glyph-name="parenright" unicode=")" horiz-adv-x="853" 
d="M156.043 1603q146.99 -140 248.984 -385q114.993 -278 114.993 -641q0 -450 -181.989 -819q-79.9951 -162 -181.988 -278l29.998 -40q210.986 169 349.979 439q160.99 311 160.99 698q0 481 -254.984 821q-112.993 150 -255.984 246z" />
    <glyph glyph-name="asterisk" unicode="*" horiz-adv-x="852" 
d="M722 1630l59 -104l-268 -137l268 -136l-59 -104l-252 165l14 -301h-117l14 301l-252 -165l-59 104l266 136l-266 137l59 104l252 -167l-14 303h117l-14 -303z" />
    <glyph glyph-name="plus" unicode="+" horiz-adv-x="1362" 
d="M735 1288v-475h488v-107h-488v-501h-106v501h-490v107h490v475h106z" />
    <glyph glyph-name="comma" unicode="," horiz-adv-x="512" 
d="M266 -91q8 27 8 56t-18 45.5t-40 29.5t-40 26.5t-18 32.5t12 41.5t30 43.5q45 49 90 49q39 0 70 -32q55 -57 55 -107.5t-12.5 -101.5t-32.5 -92q-35 -74 -98.5 -135t-143.5 -97l-31 54q137 70 169 187z" />
    <glyph glyph-name="hyphen" unicode="-" horiz-adv-x="854" 
d="M175 660h505v-130h-506z" />
    <glyph glyph-name="period" unicode="." horiz-adv-x="512" 
d="M141 60.5q-14 22.5 -14 41.5t12.5 41.5t31.5 42.5q45 47 84 47q41 0 72 -33q57 -58 57 -97q0 -37 -32 -69q-57 -57 -97 -57q-34 0 -67 30.5t-47 53z" />
    <glyph glyph-name="slash" unicode="/" horiz-adv-x="1197" 
d="M1029 1672l94 -45l-955 -2058l-95 42z" />
    <glyph glyph-name="zero" unicode="0" horiz-adv-x="1366" 
d="M193 277q-43 91 -43 183t22 161.5t59.5 129t89 108t109.5 83.5q122 71 241.5 71t217.5 -34t171 -97q155 -137 155 -363q0 -232 -167 -390q-159 -152 -361 -152q-223 0 -378 142q-73 67 -116 158zM318 517q0 -85 27 -161.5t76 -134.5q107 -127 264 -127q151 0 255 96
q109 102 109 269q0 176 -98 301q-106 135 -275 135q-156 0 -256 -103q-102 -106 -102 -275z" />
    <glyph glyph-name="one" unicode="1" horiz-adv-x="855" 
d="M660 989v-83l-151 -23v-777l151 -23v-83h-466v83l153 23v777l-153 23v83h466z" />
    <glyph glyph-name="two" unicode="2" horiz-adv-x="1195" 
d="M917.5 844.5q22.5 -50.5 22.5 -107t-14 -99.5t-42 -82q-48 -66 -165 -156l-353 -277l534 30l59 103h83l-50 -256h-839v85l341 277l88 69q105 84 159 173q28 47 28 93q0 89 -54.5 142t-160.5 53q-127 0 -247 -96q-30 -24 -46 -43l-67 69q83 113 250 168q64 21 145.5 21
t148.5 -21t112 -58t67.5 -87.5z" />
    <glyph glyph-name="three" unicode="3" horiz-adv-x="1195" 
d="M203 -451l34 -1q256 0 435 118q191 124 191 318q0 126 -94 209q-87 77 -207 77q-26 0 -46 -2l-33 -4q-14 -1 -24 -4l-41 100q207 27 294 130q62 73 62 177q0 97 -66 161q-66 65 -167 65q-147 0 -264 -93q-31 -24 -50 -45l-70 73q48 68 153 121q131 66 252 66t191 -31.5
t113 -79.5q82 -88 82 -212q0 -103 -62 -201q-69 -107 -171 -149q236 -28 301 -212q22 -62 22 -136t-22 -141t-66.5 -128.5t-111.5 -113.5t-158 -90q-195 -82 -457 -80z" />
    <glyph glyph-name="four" unicode="4" horiz-adv-x="1365" 
d="M924 989l74 -16v-843h232v-130h-232v-431h-164v431h-660l-39 106zM834 130v589l-532 -589h532z" />
    <glyph glyph-name="five" unicode="5" horiz-adv-x="1194" 
d="M361 471q28 2 101.5 2t180 -29.5t187.5 -89.5q174 -130 174 -364q0 -228 -188 -380q-214 -172 -606 -169l-20 101q301 0 468 116q171 119 171 338q0 138 -128 225q-136 93 -362 93q-43 0 -91 -4l82 679h479l35 87h93l-27 -240h-505z" />
    <glyph glyph-name="six" unicode="6" horiz-adv-x="1366" 
d="M1131 1463q-225 -40 -429 -216q-187 -161 -264 -345q91 91 244 114q41 7 105 7t146 -31t143 -92q130 -128 130 -362q0 -231 -150 -394q-152 -167 -368 -167q-243 0 -388 161q-141 157 -141 400q0 257 142 489q129 211 350 360q213 143 446 182zM430.5 790
q-32.5 -37 -45 -72t-17.5 -58q-12 -55 -12 -119.5t17 -149.5t56 -151q86 -146 257 -146q157 0 248 115q83 103 83 260q0 319 -166 405q-60 31 -130.5 31t-121.5 -13.5t-93.5 -39t-75 -62.5z" />
    <glyph glyph-name="seven" unicode="7" horiz-adv-x="1365" 
d="M1145 989l34 -148q-471 -974 -540 -1126l-121 -275l-163 84l676 1307h-696l-49 -172h-100l15 330h944z" />
    <glyph glyph-name="eight" unicode="8" horiz-adv-x="1365" 
d="M446 1302q-21 -37 -21 -91t31.5 -104.5t83.5 -97t118 -91.5l134 -90q179 -120 242 -189t94.5 -134.5t31.5 -119t-8.5 -93t-29 -82t-56.5 -84.5t-90 -75q-123 -74 -309 -74q-217 0 -343 111q-119 105 -119 272q0 166 134 293q58 55 127 95l129 74l77 -81
q-148 -78 -200 -130q-109 -109 -109 -251q0 -105 77 -184q89 -93 237 -93q144 0 228 86q69 71 69 148.5t-31 131t-81 102t-114 93.5q-222 151 -275.5 190t-103.5 91q-112 116 -112 241q0 157 126 259q122 99 294 99q214 0 325 -104q96 -89 96 -226q0 -201 -306 -381l-94 64
l89 56q102 63 142 147q23 48 23 113t-24 106.5t-62 67.5q-72 49 -179 49q-179 0 -241 -114z" />
    <glyph glyph-name="nine" unicode="9" horiz-adv-x="1365" 
d="M334 -454q443 79 603 542q-90 -90 -252 -114q-43 -7 -107.5 -7t-146 32.5t-142.5 94.5q-130 134 -130 368q0 230 150 390q152 161 368 161q243 0 388 -161q141 -157 141 -400q0 -393 -248 -678q-239 -276 -590 -334zM949.5 200q35.5 37 48 72t17.5 58q12 55 12 119.5
t-20 149.5t-62 151q-93 146 -266 146q-160 0 -257 -110q-92 -103 -92 -255q0 -320 181 -413q63 -33 133.5 -33t124 13.5t99.5 39t81.5 62.5z" />
    <glyph glyph-name="colon" unicode=":" horiz-adv-x="512" 
d="M141 60.5q-14 22.5 -14 41.5t12.5 41.5t31.5 42.5q45 47 84 47q41 0 72 -33q57 -58 57 -97q0 -37 -32 -69q-57 -57 -97 -57q-34 0 -67 30.5t-47 53zM141 840.5q-14 22.5 -14 41.5t12.5 41.5t31.5 42.5q45 47 84 47q41 0 72 -33q57 -58 57 -87.5t-13 -51.5t-32 -41
q-44 -44 -84 -44q-35 0 -67.5 31t-46.5 53.5z" />
    <glyph glyph-name="semicolon" unicode=";" horiz-adv-x="512" 
d="M172 840.5q-14 22.5 -14 41.5t12.5 41.5t31.5 42.5q46 47 84 47q41 0 72 -33q57 -58 57 -87.5t-13 -51.5t-32 -41q-44 -44 -84 -44q-35 0 -67.5 31t-46.5 53.5zM266 -114q8 27 8 56t-18 45t-40 29t-40 27t-18 33t12 41t30 43q45 49 90 49q38 0 70 -31q55 -56 55 -107.5
t-12.5 -102.5t-32.5 -93q-36 -76 -99 -135t-143 -95l-31 54q136 67 169 187z" />
    <glyph glyph-name="less" unicode="&#x3c;" horiz-adv-x="1198" 
d="M278 669l794 -534l-57 -90l-878 600v47l878 601l57 -89z" />
    <glyph glyph-name="equal" unicode="=" horiz-adv-x="1362" 
d="M1223 612v-106h-1084v106h1084zM1223 1013v-107h-1084v107h1084z" />
    <glyph glyph-name="greater" unicode="&#x3e;" horiz-adv-x="1198" 
d="M126 1204l56 89l879 -601v-47l-879 -600l-56 90l793 534z" />
    <glyph glyph-name="question" unicode="?" horiz-adv-x="1025" 
d="M497 559q-5 -33 -5 -95t14 -111l-119 -18q-32 103 -32 164t9 106t32 88q45 87 157 174q112 86 141 129q47 71 47 168q0 261 -282 261q-213 0 -237 -177q-8 -53 -8 -115h-88l-38 316q139 82 391 82q324 0 424 -207q34 -71 34 -146t-16.5 -124.5t-51.5 -97.5
q-68 -93 -215 -190q-139 -91 -157 -207zM336 60.5q-14 22.5 -14 41.5t12.5 41.5t31.5 42.5q45 47 74 47t52 -13t42 -32q44 -46 44 -85q0 -37 -32 -69q-57 -57 -97 -57q-33 0 -66 30.5t-47 53z" />
    <glyph glyph-name="at" unicode="@" horiz-adv-x="1707" 
d="M1284 -147q-192 -103 -412 -103q-335 0 -552 209q-226 217 -226 569q0 231 122 426q117 185 309 292q195 109 407 109q316 0 502 -179q179 -174 179 -455q0 -123 -59 -251q-60 -130 -162 -211q-111 -88 -242 -88q-93 0 -132 33q-29 25 -55 97q-110 -131 -246 -131
q-104 0 -163 106q-53 93 -53 197.5t30.5 180t84.5 132.5q115 122 283 122q60 0 123 -18l11 40l132 1l-81 -496q-9 -54 -9 -83q0 -95 97 -95q117 0 204 128q88 131 88 325q0 233 -136 391q-148 171 -397 171q-138 0 -262.5 -51t-219 -144.5t-150 -227t-55.5 -299.5t51 -299.5
t139 -226.5q184 -193 466 -193q215 0 343 78zM665.5 651q-21.5 -66 -21.5 -140.5t9 -116.5t25 -74q34 -69 81 -69q54 0 95 33q75 62 92 147l54 320q10 65 -40 72q-28 4 -68 4t-86.5 -16t-82.5 -55t-57.5 -105z" />
    <glyph glyph-name="A" unicode="A" horiz-adv-x="1537" 
d="M1058 85l138 23l-158 389h-600l-157 -389l141 -23v-85h-429v85l158 23l525 1298l-42 99l162 68l598 -1465l161 -23v-85h-497v85zM485 618h509l-255 642z" />
    <glyph glyph-name="B" unicode="B" horiz-adv-x="1365" 
d="M1230 1158q0 -78 -27.5 -135t-68.5 -98q-73 -71 -182 -112q176 -34 258 -105q112 -98 112 -292q0 -174 -134 -289q-147 -127 -412 -127h-694v85l152 23v1292l-152 23v85h667q236 0 362 -96q119 -90 119 -254zM422 739v-619h283q332 0 402 181q22 57 22 124.5t-23.5 124
t-70.5 98.5q-102 91 -281 91h-332zM422 1387v-539h285q212 0 296 144q32 54 32 138q0 134 -74 195.5t-235 61.5h-304z" />
    <glyph glyph-name="C" unicode="C" horiz-adv-x="1538" 
d="M898 1531q203 0 372 -51q74 -23 124 -51l-23 -267h-66q0 111 -109 178q-116 71 -319 71q-263 0 -435 -177q-171 -178 -171 -445q0 -283 158 -480q107 -133 271 -185q84 -27 191 -27t190 12.5t136 40.5q104 55 104 186h66l14 -258q-174 -101 -513 -101q-374 0 -597 217
q-213 207 -213 534q0 362 252 590q233 213 568 213z" />
    <glyph glyph-name="D" unicode="D" horiz-adv-x="1708" 
d="M286 1400l-155 23v85h642q397 0 618 -194q216 -191 216 -523q0 -239 -111 -427q-102 -173 -283 -270q-176 -94 -379 -94h-703v85l155 23v1292zM471 1387v-1267h361q251 0 416 158q170 165 170 431q0 509 -356 635q-123 43 -294 43h-297z" />
    <glyph glyph-name="E" unicode="E" 
d="M790 723h-368v-603h557l72 177h76l-33 -297h-1012v85l152 23v1292l-152 23v85h968l23 -297h-88l-54 176h-509v-544h368l30 106h71v-331h-71z" />
    <glyph glyph-name="F" unicode="F" 
d="M799 699h-387v-591l227 -23v-85h-567v85l152 23v1292l-152 23v85h1018l23 -297h-88l-54 176h-559v-567h387l30 106h62v-333h-62z" />
    <glyph glyph-name="G" unicode="G" horiz-adv-x="1707" 
d="M1002 679h591v-108h-56q-30 0 -45.5 -9.5t-15.5 -35.5v-432q-72 0 -160 -30l-128 -42q-143 -45 -308.5 -45t-313 59.5t-251.5 162.5t-160.5 242t-56.5 279.5t29.5 247.5t82.5 195t126.5 156.5t161.5 115.5q181 96 394 96q329 0 522 -102l-23 -247h-66q0 92 -114 157
q-126 72 -324 72q-257 0 -427 -185q-166 -180 -166 -437q0 -282 156 -480q168 -212 453 -212q314 0 370 135q17 42 17 91v203q0 27 -15.5 36t-41.5 9h-231v108z" />
    <glyph glyph-name="H" unicode="H" horiz-adv-x="1707" 
d="M98 1508h490v-85l-153 -23v-571h835v571l-152 23v85h490v-85l-151 -23v-1292l151 -23v-85h-490v85l152 23v601h-835v-601l153 -23v-85h-490v85l152 23v1292l-152 23v85z" />
    <glyph glyph-name="I" unicode="I" horiz-adv-x="682" 
d="M96 1508h490v-85l-151 -23v-1292l151 -23v-85h-490v85l154 23v1292l-154 23v85z" />
    <glyph glyph-name="J" unicode="J" horiz-adv-x="682" 
d="M450 89q0 -259 -104 -419q-64 -96 -108.5 -133.5t-75.5 -56.5q-67 -40 -113 -40q-125 0 -206 63l63 197h65q0 -57 53 -86q22 -11 56.5 -11t67.5 16.5t58 50.5q57 77 57 212v1518l-152 23v85h490v-85l-151 -23v-1311z" />
    <glyph glyph-name="K" unicode="K" horiz-adv-x="1534" 
d="M1113 1402l-113 21v85h469v-85l-179 -21l-636 -611l610 -652l78 -38l130 -16v-85h-352l-677 753zM95 1508h490v-85l-150 -23v-1292l150 -23v-85h-490v85l155 23v1292l-155 23v85z" />
    <glyph glyph-name="L" unicode="L" horiz-adv-x="1194" 
d="M562 1508v-85l-150 -23v-1280h548l59 224h82l-9 -344h-1020v85l152 23v1292l-152 23v85h490z" />
    <glyph glyph-name="M" unicode="M" horiz-adv-x="2052" 
d="M405 1258l-42 -1150l139 -23v-85h-415v85l142 23l72 1292l-141 23v85h342l537 -1171l541 1171h313v-85l-150 -23q16 -326 34 -649t33 -643l154 -23v-85h-489v85l150 23l-45 1135l-582 -1243z" />
    <glyph glyph-name="N" unicode="N" horiz-adv-x="1707" 
d="M365 1218v-1110l152 -23v-85h-422v85l155 23v1292l-155 23v85h276l969 -1218v1110l-151 23v85h419v-85l-151 -23v-1400h-124z" />
    <glyph glyph-name="O" unicode="O" horiz-adv-x="1711" 
d="M127.5 432.5q-50.5 137.5 -50.5 278t28 248.5t77.5 197t119 159t152.5 118q169 98 362 98t335 -56.5t239 -155.5q197 -201 197 -528q0 -364 -221 -594q-102 -106 -237.5 -163t-303 -57t-310 58t-240 159t-148 238.5zM309.5 1028q-39.5 -113 -39.5 -221t16 -194
t47.5 -162.5t79 -141.5t110.5 -112q134 -100 316 -100q249 0 405 169q153 166 153 433q0 294 -133 489q-152 223 -444 223q-241 0 -398 -185q-73 -85 -112.5 -198z" />
    <glyph glyph-name="P" unicode="P" 
d="M72 0v85l152 23v1292l-152 23v85h493q426 0 544 -230q44 -85 44 -204.5t-39.5 -211.5t-117.5 -156q-161 -134 -464 -134h-120v-464l197 -23v-85h-537zM412 1387v-709h148q199 0 304 106q93 96 93 259q0 168 -89 251q-99 93 -327 93h-129z" />
    <glyph glyph-name="Q" unicode="Q" horiz-adv-x="1707" 
d="M1874 -185q39 0 136 66l54 -54q-196 -189 -281 -189q-70 0 -263 99l-241 128q-215 112 -388 173l224 21q165 -25 346 -108l79 -37q154 -71 224.5 -85t109.5 -14zM127.5 432.5q-50.5 137.5 -50.5 278t28 248.5t77.5 197t119 159t152.5 118q169 98 362 98t335 -56.5
t239 -155.5q197 -201 197 -528q0 -364 -221 -594q-102 -106 -237.5 -163t-303 -57t-310 58t-240 159t-148 238.5zM309.5 1028q-39.5 -113 -39.5 -221t16 -194t47.5 -162.5t79 -141.5t110.5 -112q134 -100 316 -100q249 0 405 169q153 166 153 433q0 294 -133 489
q-152 223 -444 223q-241 0 -398 -185q-73 -85 -112.5 -198z" />
    <glyph glyph-name="R" unicode="R" horiz-adv-x="1366" 
d="M1136 1279q27 -69 27 -157t-27.5 -160t-79.5 -124q-99 -99 -291 -139l18 33l395 -600l70 -31l141 -16v-85h-343l-450 719l84 -36h-268v-575l150 -23v-85h-490v85l155 23v1292l-155 23v85h493q479 0 571 -229zM412 1387v-596h148q324 0 392 189q21 57 21 123.5t-19 119.5
t-64 89q-93 75 -315 75h-163z" />
    <glyph glyph-name="S" unicode="S" horiz-adv-x="1200" 
d="M590 96q74 0 134.5 14.5t104.5 45.5q94 65 94 190q0 106 -69 174q-73 70 -236.5 141.5t-249 128t-134.5 114.5q-89 102 -89 247q0 168 145 277q135 103 327 103q151 0 302 -55q63 -25 114 -55l-35 -267h-84q0 138 -75 200.5t-217 62.5q-196 0 -268 -128q-23 -42 -23 -94
t15 -93.5t58 -81.5q84 -81 316 -178q324 -138 378 -326q16 -59 16 -125.5t-22.5 -126t-61.5 -106t-90.5 -80.5t-109.5 -56q-257 -100 -540 16q-103 43 -182 105l42 287h85q0 -201 127 -280q87 -54 228 -54z" />
    <glyph glyph-name="T" unicode="T" horiz-adv-x="1537" 
d="M1406 1508l24 -321h-90l-51 200h-427v-1279l220 -23v-85h-625v85l218 23v1279h-425l-54 -200h-88l24 321h1274z" />
    <glyph glyph-name="U" unicode="U" horiz-adv-x="1537" 
d="M789 -23q-599 0 -599 564v859l-155 23v85h500v-85l-160 -23v-829q0 -369 235 -449q75 -25 181.5 -25t191.5 27t141 85q111 115 111 362v829l-153 23v85h419v-85l-151 -23v-859q0 -270 -145 -417t-416 -147z" />
    <glyph glyph-name="V" unicode="V" horiz-adv-x="1366" 
d="M716 247l458 1153l-149 23v85h394v-85l-113 -19l-557 -1404h-108l-575 1400l-119 23v85h463v-85l-154 -23z" />
    <glyph glyph-name="W" unicode="W" horiz-adv-x="2048" 
d="M757 240l257 836l-10 -133l-174 457l-125 23v85h468l1 -85l-146 -23l389 -1153q53 142 99 287l180 580q46 144 99 286l-144 23v85h384v-85l-111 -19l-484 -1404h-108l-316 908l49 -11l-285 -897h-108l-551 1400l-114 23v85h438l7 -85l-133 -23z" />
    <glyph glyph-name="X" unicode="X" horiz-adv-x="1537" 
d="M49 1508h541v-85l-147 -23l335 -488l339 488l-148 23v85h464v-85l-170 -23l-415 -587l504 -705l160 -23v-85h-550v85l164 23l-405 587l-384 -587l171 -23v-85h-483v85l166 23l460 685l-432 607l-170 23v85z" />
    <glyph glyph-name="Y" unicode="Y" horiz-adv-x="1364" 
d="M9 1508h543v-85l-173 -23l364 -665l312 665l-165 23v85h464v-85l-154 -19l-394 -791v-505l174 -23v-85h-531v85l171 23v504l-474 788l-137 23v85z" />
    <glyph glyph-name="Z" unicode="Z" horiz-adv-x="1363" 
d="M1019 1382h-689l-123 -191h-82l77 317h1039v-125l-917 -1263h764l124 219h86l-68 -339h-1128v125z" />
    <glyph glyph-name="bracketleft" unicode="[" horiz-adv-x="684" 
d="M334 -405l198 -22v-84h-360v2174h360v-85l-198 -21v-1962z" />
    <glyph glyph-name="backslash" unicode="\" horiz-adv-x="1197" 
d="M1124 -389l-95 -42l-955 2058l94 45z" />
    <glyph glyph-name="bracketright" unicode="]" horiz-adv-x="684" 
d="M350 1557l-198 21v85h360v-2174h-360v84l198 22v1962z" />
    <glyph glyph-name="asciicircum" unicode="^" horiz-adv-x="1366" 
d="M683 1100l-444 -922l-110 47l530 1086h47zM669 1281l37 30l530 -1086l-110 -47l-444 922z" />
    <glyph glyph-name="underscore" unicode="_" horiz-adv-x="1178" 
d="M-5 -164h1189v-107h-1189v107z" />
    <glyph glyph-name="grave" unicode="`" horiz-adv-x="575" 
d="M236 1561l242 -330l-47 -40l-355 320z" />
    <glyph glyph-name="a" unicode="a" horiz-adv-x="1025" 
d="M1019 52q-146 -75 -211 -75q-146 0 -146 124v31q-14 -21 -76.5 -61t-97.5 -56q-83 -38 -126 -38t-71 3.5t-58 13.5t-59 28t-52 47q-51 64 -51 167q0 142 101 198q64 37 135.5 46t130.5 14q112 10 224 12v210q0 87 -22 116q-37 51 -115 51q-174 0 -342 -113l-58 87
q234 156 419 156q161 0 228 -89q52 -69 52 -196v-526q0 -74 28 -84q10 -3 26 -3q40 0 123 31zM662 422q-284 -11 -364 -57q-61 -35 -61 -113q0 -113 87 -139q24 -7 58.5 -7t80.5 14t85 34q74 36 114 70v198z" />
    <glyph glyph-name="b" unicode="b" horiz-adv-x="1195" 
d="M169 1483l-130 25v81l293 74v-780q98 69 188.5 99.5t172 30.5t159.5 -37.5t132 -103.5q113 -138 113 -353q0 -223 -133 -375q-144 -167 -390 -167q-158 0 -297 76q-62 33 -108 77v1353zM621 883q-135 0 -289 -103v-571q86 -115 273 -115q144 0 234 110q84 102 84 255
q0 282 -165 387q-57 37 -137 37z" />
    <glyph glyph-name="c" unicode="c" horiz-adv-x="1022" 
d="M892 229l57 -65q-159 -143 -308 -179q-33 -8 -65 -8q-219 0 -354 139q-131 135 -131 355t131 373q146 169 392 169q164 0 290 -54l-24 -201h-63q0 101 -121 128q-38 9 -106 9t-133.5 -31.5t-107.5 -83.5q-83 -103 -83 -252q0 -183 90 -293q97 -118 249.5 -118t286.5 112z
" />
    <glyph glyph-name="d" unicode="d" 
d="M600 1013q125 0 249 -49v513l-153 31v81l315 74v-1503q0 -45 50.5 -45t126.5 31l21 -94q-143 -75 -214 -75q-103 0 -135 67q-11 24 -11 57q-75 -66 -160 -95t-176.5 -29t-176.5 35t-142 100q-111 127 -111 359q0 222 131 373q145 169 386 169zM600 117q101 0 249 95v568
q-86 115 -274 115q-145 0 -235 -117q-84 -111 -84 -286q0 -159 80 -261q88 -114 264 -114z" />
    <glyph glyph-name="e" unicode="e" horiz-adv-x="1025" 
d="M882 229l57 -65q-159 -143 -308 -179q-33 -8 -65 -8q-220 0 -358 139q-137 136 -137 355q0 218 129 373q142 169 369 169q157 0 265 -113q115 -118 115 -307l-47 -42l-652 -47q2 -182 118 -291q104 -96 242 -96t272 112zM257 598l514 47q-7 166 -128 228q-43 22 -110 22
t-119.5 -33t-86.5 -80q-65 -89 -70 -184z" />
    <glyph glyph-name="f" unicode="f" horiz-adv-x="690" 
d="M347 110l217 -27v-83h-517v83l138 23v770h-138v83l138 30v212q0 157 97 299q111 163 291 163q115 0 188 -46q32 -20 48 -46l-68 -177h-65q0 100 -70 136q-25 14 -63.5 14t-74 -16.5t-62.5 -50.5q-59 -74 -59 -207v-281h304v-117h-304v-762z" />
    <glyph glyph-name="g" unicode="g" 
d="M926 843q47 -76 47 -189q0 -159 -160 -282q-70 -54 -164 -90l-153 -58q-110 -41 -124.5 -56.5t-14.5 -25t10 -18.5t33 -17q55 -19 154 -19t185 -10.5t152 -39.5q144 -65 144 -222q0 -106 -83 -197q-115 -125 -326 -167q-63 -12 -139 -12t-155 16t-138 50
q-125 71 -125 213q0 110 93 169l65 39q27 14 60.5 21t67.5 16q-108 21 -149 86q-14 23 -14 48.5t10 43.5t36 36t72 40l119 56q-94 18 -176 87q-113 95 -113 268q0 166 146 281q129 103 284 103t268 -73q72 50 238 71l27 -31l-47 -137h-130zM244 -293q0 -42 31 -77.5
t79 -54.5q78 -31 176.5 -31t150.5 16t91 46q88 66 88 172q0 133 -188 150q-55 5 -115 5q-172 0 -273 -101q-28 -28 -34 -55.5t-6 -69.5zM326 776q-21 -49 -21 -119.5t21 -122.5t57 -88q73 -73 188 -73q150 0 214 126q24 47 24 116.5t-21 123.5t-57 92q-75 79 -188 79
q-160 0 -217 -134z" />
    <glyph glyph-name="h" unicode="h" 
d="M673 883q-151 0 -312 -106v-671l127 -23v-83h-420v83l130 23v1377l-130 25v81l293 74v-780q100 69 196.5 99.5t164.5 30.5t122 -19t92 -58q80 -81 80 -232v-598l127 -23v-83h-419v83l129 23v579q0 198 -180 198z" />
    <glyph glyph-name="i" unicode="i" horiz-adv-x="513" 
d="M342 106l128 -23v-83h-420v83l130 23v728l-130 23v83l292 73v-907zM148 1358q-10 22 -10 43.5t10 43t26 39.5q37 40 67.5 40t52 -11t38.5 -29q37 -41 37 -72.5t-10.5 -53.5t-26.5 -40q-38 -39 -69.5 -39t-51.5 11t-36.5 28.5t-26.5 39.5z" />
    <glyph glyph-name="j" unicode="j" horiz-adv-x="513" 
d="M-5 -337q181 0 181 346v825l-130 23v83l292 73v-846q0 -185 -28 -280t-60.5 -152t-82 -111t-101 -82t-87.5 -28q-97 0 -153 23l54 187h40q0 -35 43 -54q14 -7 32 -7zM144.5 1358q-10.5 22 -10.5 43.5t10.5 43t27.5 39.5q36 40 77 40q42 0 68 -29q48 -52 48 -83.5
t-10.5 -53.5t-26.5 -40q-38 -39 -79 -39q-40 0 -67 28.5t-37.5 50.5z" />
    <glyph glyph-name="k" unicode="k" horiz-adv-x="1193" 
d="M355 106l127 -23v-83h-420v83l130 23v1377l-130 25v81l293 74v-1557zM810 885l-89 21v83h401v-83l-156 -23l-423 -325l420 -426l65 -33l108 -16v-83h-281l-492 532z" />
    <glyph glyph-name="l" unicode="l" horiz-adv-x="513" 
d="M335 106l128 -23v-83h-420v83l130 23v1377l-130 25v81l292 74v-1557z" />
    <glyph glyph-name="m" unicode="m" horiz-adv-x="1878" 
d="M708 883q-175 0 -325 -106v-671l127 -23v-83h-418v83l129 23v728l-129 23v83l291 73v-130q188 130 354 130q208 0 270 -132q102 71 199 101.5t165 30.5q152 0 226.5 -76t74.5 -233v-598l126 -23v-83h-416v83l127 23v598q0 90 -53 138q-45 41 -112 41q-172 0 -315 -103
q5 -50 5 -76v-598l115 -23v-83h-396v83l117 23v598q0 90 -50 138q-43 41 -112 41z" />
    <glyph glyph-name="n" unicode="n" 
d="M672 883q-153 0 -307 -106v-671l127 -23v-83h-420v83l130 23v728l-130 23v83l276 73v-130q202 130 375 130q208 0 271 -173q21 -58 21 -136v-598l127 -23v-83h-419v83l129 23v579q0 198 -180 198z" />
    <glyph glyph-name="o" unicode="o" horiz-adv-x="1194" 
d="M101 486q0 115 39.5 214t107.5 168q140 145 345 145q238 0 372 -141q127 -135 127 -353q0 -243 -144 -395q-140 -147 -346 -147q-235 0 -372 145q-129 136 -129 364zM296.5 664q-20.5 -69 -20.5 -149.5t18.5 -157t57.5 -135.5q86 -128 248 -128q152 0 236 100
q83 98 83 265q0 296 -169 398q-63 38 -149 38t-145 -29.5t-99 -81t-60.5 -120.5z" />
    <glyph glyph-name="p" unicode="p" horiz-adv-x="1194" 
d="M579 -23q-129 0 -244 49v-480l127 -23v-83h-420v83l130 23v1295l-130 24v81l293 67v-132q175 132 346 132q183 0 300 -135q119 -137 119 -359q0 -221 -132 -374q-144 -168 -389 -168zM335 780v-571q86 -115 273 -115q144 0 234 114q84 105 84 253q0 183 -76 297
q-82 125 -223 125t-292 -103z" />
    <glyph glyph-name="q" unicode="q" 
d="M613 1013q184 0 319 -90l54 90h34v-1467l127 -23v-83h-417v83l128 23v560q-87 -69 -180.5 -99t-183 -30t-169.5 37.5t-133 103.5q-103 130 -103 353t133 375q146 167 391 167zM568 117q139 0 290 95v563q-45 68 -154 103q-50 17 -123 17t-132 -28t-100 -81
q-85 -110 -85 -308q0 -250 166 -332q58 -29 138 -29z" />
    <glyph glyph-name="r" unicode="r" horiz-adv-x="853" 
d="M170 834l-128 23v83l290 73v-255q230 255 346 255q95 0 175 -76l-52 -162h-47q0 49 -75 73q-21 6 -42 6q-106 0 -305 -213v-535l198 -23v-83h-488v83l128 23v728z" />
    <glyph glyph-name="s" unicode="s" horiz-adv-x="853" 
d="M171 292q0 -209 256 -209q97 0 155 43q53 39 53 98q0 62 -31 96q-61 67 -176.5 107t-173 76.5t-90.5 76.5q-57 68 -57 146.5t29.5 128.5t77.5 85q102 73 236 73q161 0 281 -71l-23 -193h-54q0 157 -209 157q-91 0 -138 -35.5t-47 -88.5q0 -117 261 -212q244 -90 275 -235
q8 -41 8 -97.5t-36.5 -109.5t-91.5 -86q-107 -65 -247 -65q-137 0 -256 53q-53 23 -92 53l38 209h52z" />
    <glyph glyph-name="t" unicode="t" horiz-adv-x="684" 
d="M335 306q0 -200 162 -200q85 0 165 70l54 -66q-85 -70 -157 -101.5t-127 -31.5t-106.5 24t-85.5 69q-67 87 -67 247v555h-127v87l127 30v134l118 118h44v-252h330v-117h-330v-566z" />
    <glyph glyph-name="u" unicode="u" horiz-adv-x="1194" 
d="M1128 42q-109 -65 -174 -65q-62 0 -92 25q-54 42 -54 99v14q-86 -73 -178 -105.5t-161 -32.5q-140 0 -219.5 76.5t-79.5 231.5v549l-119 20v88l281 71v-728q0 -90 62 -139q51 -40 120 -40q113 0 212 60q45 26 82 61v607l-151 20v83l313 76v-844q0 -54 54 -54q38 0 83 21z
" />
    <glyph glyph-name="v" unicode="v" horiz-adv-x="1024" 
d="M574 0h-139l-375 883l-90 23v83h389v-83l-115 -23l298 -721l281 726l-113 18v83h325v-83l-90 -23z" />
    <glyph glyph-name="w" unicode="w" horiz-adv-x="1708" 
d="M1252 0h-139l-252 707l-261 -707h-139l-351 883l-114 23v83h413v-83l-116 -23l274 -721l236 672l-29 49l-127 23v83h436v-83l-123 -23l259 -721l262 726l-116 18v83h348v-83l-112 -23z" />
    <glyph glyph-name="x" unicode="x" horiz-adv-x="1024" 
d="M18 906v83h483v-83l-142 -23l203 -288l207 288l-103 23v83h369v-83l-134 -21l-278 -364l297 -415l141 -23v-83h-462v83l126 23l-228 316l-227 -316l104 -23v-83h-380v83l144 23l297 393l-271 384z" />
    <glyph glyph-name="y" unicode="y" horiz-adv-x="1030" 
d="M131 -247q0 -98 87 -98q52 0 92 61q10 17 16 34l112 248q-334 785 -373 885l-137 23v83h446v-83l-124 -23l278 -674l294 679l-134 18v83h393v-83l-137 -23l-502 -1143q-22 -72 -69 -124q-90 -101 -155 -101q-96 0 -193 43l54 195h52z" />
    <glyph glyph-name="z" unicode="z" horiz-adv-x="1024" 
d="M661 895h-421l-89 -106h-66l54 200h733v-92l-589 -803h463l90 106h66l-54 -200h-776v92z" />
    <glyph glyph-name="braceleft" unicode="{" horiz-adv-x="853" 
d="M480 -238q0 -209 202 -209v-72q-198 0 -290 86q-72 68 -72 177q0 54 5 126l11 151q15 225 15 290t-7.5 93.5t-20.5 51.5q-48 83 -152 114v71q140 36 173 163q7 29 7 84.5t-5 127t-10 138.5l-11 128q-5 60 -5 112.5t19 99.5t62 84q95 80 281 80v-71q-202 0 -202 -209
q0 -71 10.5 -193.5t13.5 -170.5q9 -115 9 -140q0 -181 -217 -269q100 -43 141 -86q76 -81 76 -182q0 -19 -3 -61l-6 -98q-3 -55 -7.5 -117t-8.5 -119q-8 -140 -8 -180z" />
    <glyph glyph-name="bar" unicode="|" horiz-adv-x="512" 
d="M197 1766h118v-2325h-118v2325z" />
    <glyph glyph-name="braceright" unicode="}" horiz-adv-x="853" 
d="M373.029 -238q0 -209 -201.987 -209v-72q197.987 0 289.981 86q71.9961 68 71.9961 177q0 54 -5 126l-10.999 151q-14.999 225 -14.999 290t7.49902 93.5q7.5 28.5 20.499 51.5q47.9971 83 151.991 114v71q-139.992 36 -172.989 163q-7 29 -7 84.5t5 127
q4.99902 71.5 9.99902 138.5l10.999 128q5 60 5 112.5t-18.999 99.5t-61.9961 84q-94.9941 80 -280.982 80v-71q201.987 0 201.987 -209q0 -71 -10.499 -193.5q-10.5 -122.5 -13.499 -170.5q-9 -115 -9 -140q0 -181 216.986 -269q-99.9932 -43 -140.991 -86
q-75.9951 -81 -75.9951 -182q0 -19 3 -61l6 -98q2.99902 -55 7.49902 -117t8.49902 -119q8 -140 8 -180z" />
    <glyph glyph-name="asciitilde" unicode="~" horiz-adv-x="930" 
d="M283 537q-75 0 -170 -80l-43 38q98 141 194 177q21 8 52 8t77.5 -14t92.5 -31q124 -45 175 -45q78 0 152 81l47 -33q-109 -190 -222 -190q-55 0 -142 30.5t-131.5 44.5t-81.5 14z" />
    <glyph glyph-name="nonbreakingspace" unicode="&#xa0;" horiz-adv-x="686" 
 />
    <glyph glyph-name="exclamdown" unicode="&#xa1;" horiz-adv-x="512" 
d="M371 925.5q14 -22.5 14 -41.5t-12.5 -41.5t-32.5 -42.5q-45 -47 -74 -47t-52 13t-42 32q-45 45 -45 74.5t13 52t32 41.5q45 45 85 45q34 0 67 -31.5t47 -54zM174 -560q0 407 18 511q0 32 6 127l10 156q16 250 16 364h78q0 -140 11.5 -283.5t15.5 -198.5q9 -122 9 -165
q18 -97 18 -464z" />
    <glyph glyph-name="cent" unicode="&#xa2;" horiz-adv-x="1024" 
d="M624 117q132 7 262 112l52 -65q-166 -155 -314 -182v-193h-106v190q-197 20 -314 155q-119 135 -119 337q0 189 115 339q119 156 318 195v192h106v-184q149 -7 274 -54l-24 -201h-63q0 123 -187 137v-778zM260 520q0 -66 17 -131t50 -117q69 -109 191 -142v755
q-123 -31 -193 -137q-65 -98 -65 -228z" />
    <glyph glyph-name="sterling" unicode="&#xa3;" horiz-adv-x="1193" 
d="M78 -23l-29 66q46 22 70.5 52.5t42.5 69.5t32 99q30 130 30 348v130h-150v76l150 30v177q0 104 70 227q67 115 174 196q112 83 211 83q233 0 350 -85l-68 -174h-66q0 107 -119 142q-39 11 -101 11t-114 -33.5t-85 -83.5q-64 -96 -64 -213v-247h364v-106h-364v-101
q0 -255 -88 -426q-39 -74 -88 -116q163 94 315 94q81 0 139.5 -22.5t91.5 -32.5t80 -10q119 0 227 112l56 -42q-107 -169 -263 -212q-35 -9 -75.5 -9t-70.5 11l-67 22q-99 33 -227.5 33t-363.5 -66z" />
    <glyph glyph-name="currency" unicode="&#xa4;" horiz-adv-x="1366" 
d="M310 420q-105 120 -105 283t108 293l-160 161l80 82l162 -165q135 104 296.5 104t290.5 -88l148 149l83 -80l-146 -146q94 -113 94 -283t-118 -303l170 -168l-83 -80l-171 169q-129 -89 -279.5 -89t-281.5 85l-165 -165l-80 82zM355 738q0 -78 24.5 -147.5t68.5 -122.5
q95 -115 237 -115q147 0 235 87q93 91 93 248q0 159 -89 273q-95 122 -248 122q-149 0 -234 -93q-87 -94 -87 -252z" />
    <glyph glyph-name="yen" unicode="&#xa5;" horiz-adv-x="1364" 
d="M1110 624v-118h-323v-133h323v-121h-323v-146l150 -23v-83h-487v83l150 23v146h-333v121h333v133h-333v118h324l-422 776v-6l-164 22v85h530v-85l-133 -22l309 -617l341 617l-131 22v85h441v-85l-166 -22v6l-409 -719v-57h323z" />
    <glyph glyph-name="brokenbar" unicode="&#xa6;" horiz-adv-x="512" 
d="M197 494h118v-1053h-118v1053zM197 1766h118v-1083h-118v1083z" />
    <glyph glyph-name="section" unicode="&#xa7;" horiz-adv-x="1024" 
d="M409 989q-106 -67 -106 -153q0 -118 308 -274q115 63 115 146q0 96 -172 200q-61 37 -145 81zM712 513q160 -92 160 -250q0 -139 -122 -218q-103 -68 -247 -68q-222 0 -352 95l31 234h52q0 -223 267 -223q98 0 153 50q49 44 49 86.5t-8 63.5t-33 42.5t-70 46.5l-122 66
q-173 93 -236 163q-66 75 -66 186q0 100 73 183q32 38 73 66q-64 39 -98 89.5t-34 120t24.5 119.5t68.5 85q91 74 240 74q181 0 289 -54l-26 -225h-54q0 91 -47 131t-124 40t-113.5 -10t-59.5 -28q-45 -33 -45 -85q0 -55 115 -127q38 -24 113.5 -67t139 -87.5t99.5 -83.5
q61 -68 61 -143t-23 -121q-48 -94 -128 -151z" />
    <glyph glyph-name="dieresis" unicode="&#xa8;" horiz-adv-x="902" 
d="M154.5 1195.5q-13.5 21.5 -13.5 39.5t12 39.5t30 39.5q43 45 70 45t49 -12t40 -31q42 -43 42 -70.5t-12.5 -48.5t-31.5 -39q-43 -42 -68.5 -42t-46 11.5t-39 29t-32 39zM532 1195.5q-13 21.5 -13 39.5t11.5 39.5t29.5 39.5q43 45 70 45t49 -12t40 -31q42 -43 42 -70.5
t-12 -48.5t-31 -39q-43 -42 -69 -42t-46.5 11.5t-39 29t-31.5 39z" />
    <glyph glyph-name="copyright" unicode="&#xa9;" horiz-adv-x="1882" 
d="M188.5 546.5q-26.5 98.5 -26.5 205t26.5 205.5t76 186t120 158.5t157.5 122.5q183 107 402 107q332 0 556 -229q139 -144 192 -345q27 -99 27 -232t-58 -273.5t-161.5 -246t-245.5 -167t-282 -61.5t-241.5 28t-188.5 78.5t-157.5 121.5t-120 157t-76 184.5zM299 751
q0 -282 187 -473q188 -191 458 -191t458 191q187 191 187 473q0 141 -50 263.5t-137 212.5q-188 193 -458 193t-458 -193q-87 -90 -137 -212.5t-50 -263.5zM1295 365q-124 -69 -323 -69q-204 0 -340 113q-148 122 -148 330q0 210 144 345q135 125 334.5 125t323.5 -64
l-14 -229h-49q0 198 -272 198q-137 0 -215 -96q-75 -92 -75 -248q0 -259 167 -350q57 -30 131 -30t124.5 16.5t83.5 43.5q65 55 65 140h47z" />
    <glyph glyph-name="ordfeminine" unicode="&#xaa;" horiz-adv-x="853" 
d="M649 806q-101 0 -101 87v21q-54 -54 -120 -81t-97 -27t-63 6t-62 26q-72 46 -72 149q0 70 24 99q50 59 156 74q114 16 234 16v147q0 62 -15 81q-27 36 -91 36q-105 0 -229 -79l-41 61q167 109 294 109q196 0 196 -199v-369q0 -37 7.5 -49t37 -12t79.5 22l13 -66
q-101 -52 -150 -52zM548 1117q-115 0 -176 -14.5t-79 -25t-27 -23.5q-16 -21 -16 -53.5t9 -52t23 -30.5q25 -22 60 -22t67 10t60 24q43 20 79 49v138z" />
    <glyph glyph-name="guillemotleft" unicode="&#xab;" horiz-adv-x="1200" 
d="M524 906l74 -75l-211 -235l-122 -122l119 -119l219 -238l-79 -79l-389 436zM985 906l75 -75l-212 -235l-123 -122l121 -119l219 -238l-80 -79l-388 436z" />
    <glyph glyph-name="logicalnot" unicode="&#xac;" horiz-adv-x="1362" 
d="M204 940h954v-582h-115v476h-839v106z" />
    <glyph glyph-name="uni00AD" unicode="&#xad;" horiz-adv-x="1229" 
 />
    <glyph glyph-name="registered" unicode="&#xae;" horiz-adv-x="1028" 
d="M192 1146q0 -70 25 -130.5t69 -105.5q93 -95 229 -95q135 0 229 95q94 97 94 237q0 139 -94 237q-94 97 -229 97q-136 0 -229 -97q-94 -97 -94 -238zM666 1260q0 -91 -95 -118l99 -169l45 -7v-17h-87l-109 184h-85v-160l43 -7v-17h-139v17l42 7v364l-42 5v22h175
q153 0 153 -104zM513 1159q98 0 98 94q0 43 -23 62.5t-85 19.5h-69v-176h79zM131 1148q0 78 29 147.5t81 122.5q112 113 276 113q162 0 272 -113q108 -112 108 -271q0 -158 -108 -268q-111 -113 -272 -113q-163 0 -276 113q-110 110 -110 269z" />
    <glyph glyph-name="macron" unicode="&#xaf;" horiz-adv-x="1178" 
d="M308 1335l577 2l-28 -128h-576z" />
    <glyph glyph-name="degree" unicode="&#xb0;" horiz-adv-x="853" 
d="M108 1220q0 139 94 226q91 85 224 85t224 -85q94 -87 94 -226q0 -140 -94 -229q-91 -85 -224 -85q-132 0 -224 86q-94 89 -94 228zM243 1307q-15 -39 -15 -88t15 -89t41 -68q53 -59 142 -59q86 0 142 59q56 60 56 158q0 94 -56 154t-142 60q-134 0 -183 -127z" />
    <glyph glyph-name="plusminus" unicode="&#xb1;" horiz-adv-x="1362" 
d="M735 1382v-476h488v-106h-488v-501h-106v501h-490v106h490v476h106zM1223 106v-106h-1084v106h1084z" />
    <glyph glyph-name="twosuperior" unicode="&#xb2;" horiz-adv-x="853" 
d="M647.5 1415.5q14.5 -35.5 14.5 -75t-10 -69.5t-30 -57q-29 -41 -115 -109l-225 -173h352l48 72h58l-42 -179h-586v80l323 242q57 43 82 80t25 92.5t-34.5 92.5t-94.5 37q-125 0 -226 -97l-46 48q61 72 160 112q52 20 116 20t110 -14.5t76 -40.5t44.5 -61.5z" />
    <glyph glyph-name="threesuperior" unicode="&#xb3;" horiz-adv-x="851" 
d="M379 1450q-102 0 -213 -104l-49 49q71 73 149 105t145 32t117 -21t82 -55q60 -65 60 -164q0 -69 -32 -117q-56 -83 -131 -114q226 -33 226 -254q0 -166 -144 -276q-158 -121 -447 -131l-14 82q222 0 350 85q133 88 133 244q0 157 -133 179q-38 7 -81 7t-69 -7l-28 84
q145 18 206 91q43 51 43 124q0 66 -50 114q-49 47 -120 47z" />
    <glyph glyph-name="acute" unicode="&#xb4;" horiz-adv-x="575" 
d="M526 1510l-357 -320l-47 40l243 330z" />
    <glyph glyph-name="mu" unicode="&#xb5;" horiz-adv-x="1366" 
d="M1277 52q-143 -75 -214 -75q-100 0 -137 69q-11 22 -11 51v33q-212 -153 -375 -153q-113 0 -180 44l34 -524l-113 -57l-54 23q37 444 41 820v562l-119 22v75l283 71v-730q0 -189 137 -189q113 0 346 106v645l-153 22v70l317 76v-869q0 -33 25 -38q11 -3 44 -3t111 32z
" />
    <glyph glyph-name="mu" unicode="&#x3bc;" horiz-adv-x="1366" 
d="M1277 52q-143 -75 -214 -75q-100 0 -137 69q-11 22 -11 51v33q-212 -153 -375 -153q-113 0 -180 44l34 -524l-113 -57l-54 23q37 444 41 820v562l-119 22v75l283 71v-730q0 -189 137 -189q113 0 346 106v645l-153 22v70l317 76v-869q0 -33 25 -38q11 -3 44 -3t111 32z
" />
    <glyph glyph-name="paragraph" unicode="&#xb6;" horiz-adv-x="1371" 
d="M1284 1501v-85l-130 -22v-1702l130 -24v-84h-245v1798h-196v-1798h-339v84l219 24v789h-35q-272 0 -438 146q-164 144 -164 369q0 218 134 352q153 153 435 153h629z" />
    <glyph glyph-name="periodcentered" unicode="&#xb7;" horiz-adv-x="512" 
d="M141 550.5q-14 22.5 -14 41.5t12.5 41.5t31.5 42.5q45 47 84 47q41 0 72 -33q57 -58 57 -97q0 -37 -32 -69q-57 -57 -97 -57q-34 0 -67 30.5t-47 53z" />
    <glyph glyph-name="cedilla" unicode="&#xb8;" horiz-adv-x="629" 
d="M373 9l-67 -144q145 0 206 -90q23 -33 23 -75q0 -71 -81 -140q-99 -88 -162 -88q-106 0 -198 65l34 126h39q0 -63 87 -85q23 -5 46 -5q65 0 87.5 23t25.5 41.5t3 43.5t-15 47t-43 37q-52 29 -151 33l-18 44l121 189z" />
    <glyph glyph-name="onesuperior" unicode="&#xb9;" horiz-adv-x="512" 
d="M419 1507v-58l-106 -16v-544l106 -16v-58h-327v58l108 16v544l-108 16v58h327z" />
    <glyph glyph-name="ordmasculine" unicode="&#xba;" horiz-adv-x="853" 
d="M57 1162q0 81 27.5 150.5t75.5 117.5q98 101 242 101q166 0 260 -99q89 -95 89 -247q0 -170 -101 -277q-97 -102 -242 -102q-165 0 -260 101q-91 96 -91 255zM194.5 1286.5q-14.5 -48.5 -14.5 -104.5t13 -109.5t41 -94.5q60 -90 173 -90q106 0 165 70q58 68 58 185
q0 208 -118 279q-45 26 -105 26t-101 -20.5t-69 -56.5t-42.5 -84.5z" />
    <glyph glyph-name="guillemotright" unicode="&#xbb;" horiz-adv-x="1200" 
d="M676.032 906l-73.9961 -75l210.987 -235l121.993 -122l-118.993 -119l-218.986 -238l78.9951 -79l388.976 436zM215.061 906l-74.9961 -75l211.987 -235l122.992 -122l-120.992 -119l-218.986 -238l79.9951 -79l387.976 436z" />
    <glyph glyph-name="onequarter" unicode="&#xbc;" horiz-adv-x="1705" 
d="M356 1668v-709l104 -12v-41h-301v41l116 12v584q0 11 -15 11q-3 0 -16 -5l-62 -25q-15 -6 -23 -10l-25 44zM1452 750h36v-469h117v-66h-117v-162l65 -12v-41h-210v41l64 12v162h-348v54zM1407 281v333l-266 -333h266zM1130 1672l95 -45l-769 -1650l-94 41z" />
    <glyph glyph-name="onehalf" unicode="&#xbd;" horiz-adv-x="1705" 
d="M356 1668v-709l104 -12v-41h-301v41l116 12v584q0 11 -15 11q-3 0 -16 -5l-62 -25q-15 -6 -23 -10l-25 44zM1488 647q12 -35 12 -74.5t-7.5 -70.5t-24.5 -62q-28 -48 -119 -145l-204 -219h311v-1q8 14 18 27l17 26h41l-29 -128h-466v57l267 295q110 127 110 210
q0 98 -70 129q-24 11 -62 11q-63 0 -132 -53q-30 -23 -54 -52l-40 28q55 74 138 115q44 22 99 22q158 0 195 -115zM1130 1672l95 -45l-769 -1650l-94 41z" />
    <glyph glyph-name="threequarters" unicode="&#xbe;" horiz-adv-x="1705" 
d="M282 1608q-73 0 -150 -73l-36 34q95 99 207 99q96 0 147 -54q42 -47 42 -118q0 -78 -72 -136q-23 -18 -50 -29q116 -17 154 -109q14 -33 14 -83t-26.5 -104.5t-79.5 -98.5q-120 -101 -323 -107l-9 59q155 0 252 72q99 74 99 186q0 139 -157 139q-19 0 -52 -6l-21 61
q105 12 151 64q33 38 33 89q0 115 -123 115zM1503 750h36v-469h117v-66h-117v-162l65 -12v-41h-210v41l64 12v162h-348v54zM1458 281v333l-266 -333h266zM1182 1672l95 -45l-769 -1650l-94 41z" />
    <glyph glyph-name="questiondown" unicode="&#xbf;" horiz-adv-x="1025" 
d="M528.03 433.034q5 32.998 5 94.9941t-13.999 110.993l118.992 17.999q31.998 -102.994 31.998 -163.99t-8.99902 -105.993q-9 -44.9971 -31.998 -87.9951q-44.9971 -86.9941 -156.99 -173.989q-111.993 -85.9941 -140.992 -128.992q-46.9971 -70.9951 -46.9971 -167.989
q0 -260.984 281.983 -260.984q212.986 0 236.985 176.989q7.99902 52.9971 7.99902 114.993h87.9951l37.998 -315.98q-138.992 -81.9951 -390.977 -81.9951q-323.98 0 -423.975 206.987q-33.9971 70.9951 -33.9971 145.991q0 74.9951 16.499 124.492
q16.498 49.4971 51.4961 97.4941q67.9961 92.9941 214.987 189.988q138.991 90.9941 156.99 206.987zM689.021 931.504q13.999 -22.499 13.999 -41.498q0 -18.998 -12.499 -41.4971t-31.498 -42.4971q-44.9971 -46.9971 -73.9951 -46.9971q-28.999 0 -51.9971 12.999
q-22.999 12.999 -41.998 31.998q-43.9971 45.9971 -43.9971 84.9941q0 36.998 31.998 68.9961q56.9971 56.9971 96.9941 56.9971q32.998 0 65.9961 -30.499q32.998 -30.498 46.9971 -52.9961z" />
    <glyph glyph-name="Agrave" unicode="&#xc0;" horiz-adv-x="1537" 
d="M1058 85l138 23l-158 389h-600l-157 -389l141 -23v-85h-429v85l158 23l525 1298l-42 99l162 68l598 -1465l161 -23v-85h-497v85zM485 618h509l-255 642zM623 1999l243 -330l-47 -39l-356 320z" />
    <glyph glyph-name="Aacute" unicode="&#xc1;" horiz-adv-x="1537" 
d="M1058 85l138 23l-158 389h-600l-157 -389l141 -23v-85h-429v85l158 23l525 1298l-42 99l162 68l598 -1465l161 -23v-85h-497v85zM485 618h509l-255 642zM1055 1951l-355 -320l-47 39l242 330z" />
    <glyph glyph-name="Acircumflex" unicode="&#xc2;" horiz-adv-x="1537" 
d="M1058 85l138 23l-158 389h-600l-157 -389l141 -23v-85h-429v85l158 23l525 1298l-42 99l162 68l598 -1465l161 -23v-85h-497v85zM485 618h509l-255 642zM778 2000l328 -269l-57 -70l-277 203l-276 -203l-54 63z" />
    <glyph glyph-name="Atilde" unicode="&#xc3;" horiz-adv-x="1537" 
d="M1058 85l138 23l-158 389h-600l-157 -389l141 -23v-85h-429v85l158 23l525 1298l-42 99l162 68l598 -1465l161 -23v-85h-497v85zM485 618h509l-255 642zM615 1821q-75 0 -146 -79l-49 30q61 89 136 138q40 25 82 25q55 0 125 -30.5t107.5 -44.5t76.5 -14q73 0 127 79
l54 -25q-52 -93 -122 -142q-38 -25 -81 -25t-82.5 13.5t-77.5 29.5q-102 45 -150 45z" />
    <glyph glyph-name="Adieresis" unicode="&#xc4;" horiz-adv-x="1537" 
d="M1058 85l138 23l-158 389h-600l-157 -389l141 -23v-85h-429v85l158 23l525 1298l-42 99l162 68l598 -1465l161 -23v-85h-497v85zM485 618h509l-255 642zM478 1836q-13 21 -13 39.5t12 40t30 40.5q43 44 70 44t48.5 -12.5t39.5 -31.5q42 -43 42 -70.5t-12 -48.5t-30 -39
q-41 -41 -80 -41q-31 0 -62.5 29t-44.5 50zM855 1836q-13 21 -13 39.5t12 40t30 40.5q43 44 70 44t48.5 -12.5t39.5 -31.5q42 -43 42 -70.5t-12 -48.5t-30 -39q-41 -41 -80 -41q-31 0 -62.5 29t-44.5 50z" />
    <glyph glyph-name="Aring" unicode="&#xc5;" horiz-adv-x="1537" 
d="M1058 85l138 23l-158 389h-600l-157 -389l141 -23v-85h-429v85l158 23l525 1298l-42 99l162 68l598 -1465l161 -23v-85h-497v85zM485 618h509l-255 642zM530 1758q0 50 19.5 94t52.5 77q71 71 173 71q100 0 171 -71q72 -72 72 -171q0 -101 -72 -173t-171 -72
q-101 0 -173 72t-72 173zM646.5 1813q-10.5 -26 -10.5 -55.5t10.5 -56.5t29.5 -47q40 -42 84 -42t69 11.5t43 30.5q40 42 40 87.5t-10.5 71.5t-29.5 45q-40 43 -83.5 43t-69 -11.5t-44 -31t-29 -45.5z" />
    <glyph glyph-name="AE" unicode="&#xc6;" horiz-adv-x="1877" 
d="M1786 1211h-85l-54 176h-512v-544h357l30 106h71v-331h-71l-30 105h-357v-603h528l74 177h72l-30 -297h-981v85l151 23v469h-394l-274 -469l105 -23v-85h-393v85l162 23l762 1296l-117 19v85h964zM949 695v565l-329 -565h329z" />
    <glyph glyph-name="Ccedilla" unicode="&#xc7;" horiz-adv-x="1538" 
d="M898 1531q203 0 372 -51q74 -23 124 -51l-23 -267h-66q0 111 -109 178q-116 71 -319 71q-263 0 -435 -177q-171 -178 -171 -445q0 -283 158 -480q107 -133 271 -185q84 -27 191 -27t190 12.5t136 40.5q104 55 104 186h66l14 -258q-174 -101 -513 -101q-374 0 -597 217
q-213 207 -213 534q0 362 252 590q233 213 568 213zM944 9l-67 -144q145 0 206 -90q23 -33 23 -75q0 -71 -81 -140q-99 -88 -162 -88q-106 0 -198 65l34 126h39q0 -63 87 -85q23 -5 46 -5q65 0 87.5 23t25.5 41.5t3 43.5t-15 47t-43 37q-52 29 -151 33l-18 44l121 189z" />
    <glyph glyph-name="Egrave" unicode="&#xc8;" 
d="M790 723h-368v-603h557l72 177h76l-33 -297h-1012v85l152 23v1292l-152 23v85h968l23 -297h-88l-54 176h-509v-544h368l30 106h71v-331h-71zM505 1999l243 -330l-47 -39l-356 320z" />
    <glyph glyph-name="Eacute" unicode="&#xc9;" 
d="M790 723h-368v-603h557l72 177h76l-33 -297h-1012v85l152 23v1292l-152 23v85h968l23 -297h-88l-54 176h-509v-544h368l30 106h71v-331h-71zM937 1951l-355 -320l-47 39l242 330z" />
    <glyph glyph-name="Ecircumflex" unicode="&#xca;" 
d="M790 723h-368v-603h557l72 177h76l-33 -297h-1012v85l152 23v1292l-152 23v85h968l23 -297h-88l-54 176h-509v-544h368l30 106h71v-331h-71zM660 2000l328 -269l-57 -70l-277 203l-276 -203l-54 63z" />
    <glyph glyph-name="Edieresis" unicode="&#xcb;" 
d="M790 723h-368v-603h557l72 177h76l-33 -297h-1012v85l152 23v1292l-152 23v85h968l23 -297h-88l-54 176h-509v-544h368l30 106h71v-331h-71zM360 1836q-13 21 -13 39.5t12 40t30 40.5q43 44 70 44t48.5 -12.5t39.5 -31.5q42 -43 42 -70.5t-12 -48.5t-30 -39
q-41 -41 -80 -41q-31 0 -62.5 29t-44.5 50zM737 1836q-13 21 -13 39.5t12 40t30 40.5q43 44 70 44t48.5 -12.5t39.5 -31.5q42 -43 42 -70.5t-12 -48.5t-30 -39q-41 -41 -80 -41q-31 0 -62.5 29t-44.5 50z" />
    <glyph glyph-name="Igrave" unicode="&#xcc;" horiz-adv-x="682" 
d="M96 1508h490v-85l-151 -23v-1292l151 -23v-85h-490v85l154 23v1292l-154 23v85zM190 1999l243 -330l-47 -39l-356 320z" />
    <glyph glyph-name="Iacute" unicode="&#xcd;" horiz-adv-x="682" 
d="M96 1508h490v-85l-151 -23v-1292l151 -23v-85h-490v85l154 23v1292l-154 23v85zM622 1951l-355 -320l-47 39l242 330z" />
    <glyph glyph-name="Icircumflex" unicode="&#xce;" horiz-adv-x="682" 
d="M96 1508h490v-85l-151 -23v-1292l151 -23v-85h-490v85l154 23v1292l-154 23v85zM345 2000l328 -269l-57 -70l-277 203l-276 -203l-54 63z" />
    <glyph glyph-name="Idieresis" unicode="&#xcf;" horiz-adv-x="682" 
d="M96 1508h490v-85l-151 -23v-1292l151 -23v-85h-490v85l154 23v1292l-154 23v85zM45 1836q-13 21 -13 39.5t12 40t30 40.5q43 44 70 44t48.5 -12.5t39.5 -31.5q42 -43 42 -70.5t-12 -48.5t-30 -39q-41 -41 -80 -41q-31 0 -62.5 29t-44.5 50zM422 1836q-13 21 -13 39.5
t12 40t30 40.5q43 44 70 44t48.5 -12.5t39.5 -31.5q42 -43 42 -70.5t-12 -48.5t-30 -39q-41 -41 -80 -41q-31 0 -62.5 29t-44.5 50z" />
    <glyph glyph-name="Eth" unicode="&#xd0;" horiz-adv-x="1708" 
d="M56 838h171v562l-155 23v85h672q378 0 594 -194q214 -193 214 -523q0 -239 -109 -427q-100 -173 -275 -270q-170 -94 -363 -94h-733v85l155 23v611h-196zM412 1387v-549h429l-26 -119h-403v-599h391q236 0 393 158q163 162 163 421q0 298 -150 484q-165 204 -470 204
h-327z" />
    <glyph glyph-name="Ntilde" unicode="&#xd1;" horiz-adv-x="1707" 
d="M350 1218v-1110l152 -23v-85h-422v85l155 23v1292l-155 23v85h276l969 -1218v1110l-151 23v85h419v-85l-151 -23v-1400h-124zM673 1821q-75 0 -146 -79l-49 30q61 89 136 138q40 25 82 25q55 0 125 -30.5t107.5 -44.5t76.5 -14q73 0 127 79l54 -25q-52 -93 -122 -142
q-38 -25 -81 -25t-82.5 13.5t-77.5 29.5q-102 45 -150 45z" />
    <glyph glyph-name="Ograve" unicode="&#xd2;" horiz-adv-x="1711" 
d="M127.5 432.5q-50.5 137.5 -50.5 278t28 248.5t77.5 197t119 159t152.5 118q169 98 362 98t335 -56.5t239 -155.5q197 -201 197 -528q0 -364 -221 -594q-102 -106 -237.5 -163t-303 -57t-310 58t-240 159t-148 238.5zM309.5 1028q-39.5 -113 -39.5 -221t16 -194
t47.5 -162.5t79 -141.5t110.5 -112q134 -100 316 -100q249 0 405 169q153 166 153 433q0 294 -133 489q-152 223 -444 223q-241 0 -398 -185q-73 -85 -112.5 -198zM681 1999l243 -330l-47 -39l-356 320z" />
    <glyph glyph-name="Oacute" unicode="&#xd3;" horiz-adv-x="1711" 
d="M127.5 432.5q-50.5 137.5 -50.5 278t28 248.5t77.5 197t119 159t152.5 118q169 98 362 98t335 -56.5t239 -155.5q197 -201 197 -528q0 -364 -221 -594q-102 -106 -237.5 -163t-303 -57t-310 58t-240 159t-148 238.5zM309.5 1028q-39.5 -113 -39.5 -221t16 -194
t47.5 -162.5t79 -141.5t110.5 -112q134 -100 316 -100q249 0 405 169q153 166 153 433q0 294 -133 489q-152 223 -444 223q-241 0 -398 -185q-73 -85 -112.5 -198zM1113 1951l-355 -320l-47 39l242 330z" />
    <glyph glyph-name="Ocircumflex" unicode="&#xd4;" horiz-adv-x="1711" 
d="M127.5 432.5q-50.5 137.5 -50.5 278t28 248.5t77.5 197t119 159t152.5 118q169 98 362 98t335 -56.5t239 -155.5q197 -201 197 -528q0 -364 -221 -594q-102 -106 -237.5 -163t-303 -57t-310 58t-240 159t-148 238.5zM309.5 1028q-39.5 -113 -39.5 -221t16 -194
t47.5 -162.5t79 -141.5t110.5 -112q134 -100 316 -100q249 0 405 169q153 166 153 433q0 294 -133 489q-152 223 -444 223q-241 0 -398 -185q-73 -85 -112.5 -198zM836 2000l328 -269l-57 -70l-277 203l-276 -203l-54 63z" />
    <glyph glyph-name="Otilde" unicode="&#xd5;" horiz-adv-x="1711" 
d="M127.5 432.5q-50.5 137.5 -50.5 278t28 248.5t77.5 197t119 159t152.5 118q169 98 362 98t335 -56.5t239 -155.5q197 -201 197 -528q0 -364 -221 -594q-102 -106 -237.5 -163t-303 -57t-310 58t-240 159t-148 238.5zM309.5 1028q-39.5 -113 -39.5 -221t16 -194
t47.5 -162.5t79 -141.5t110.5 -112q134 -100 316 -100q249 0 405 169q153 166 153 433q0 294 -133 489q-152 223 -444 223q-241 0 -398 -185q-73 -85 -112.5 -198zM673 1821q-75 0 -146 -79l-49 30q61 89 136 138q40 25 82 25q55 0 125 -30.5t107.5 -44.5t76.5 -14
q73 0 127 79l54 -25q-52 -93 -122 -142q-38 -25 -81 -25t-82.5 13.5t-77.5 29.5q-102 45 -150 45z" />
    <glyph glyph-name="Odieresis" unicode="&#xd6;" horiz-adv-x="1711" 
d="M127.5 432.5q-50.5 137.5 -50.5 278t28 248.5t77.5 197t119 159t152.5 118q169 98 362 98t335 -56.5t239 -155.5q197 -201 197 -528q0 -364 -221 -594q-102 -106 -237.5 -163t-303 -57t-310 58t-240 159t-148 238.5zM309.5 1028q-39.5 -113 -39.5 -221t16 -194
t47.5 -162.5t79 -141.5t110.5 -112q134 -100 316 -100q249 0 405 169q153 166 153 433q0 294 -133 489q-152 223 -444 223q-241 0 -398 -185q-73 -85 -112.5 -198zM536 1836q-13 21 -13 39.5t12 40t30 40.5q43 44 70 44t48.5 -12.5t39.5 -31.5q42 -43 42 -70.5t-12 -48.5
t-30 -39q-41 -41 -80 -41q-31 0 -62.5 29t-44.5 50zM913 1836q-13 21 -13 39.5t12 40t30 40.5q43 44 70 44t48.5 -12.5t39.5 -31.5q42 -43 42 -70.5t-12 -48.5t-30 -39q-41 -41 -80 -41q-31 0 -62.5 29t-44.5 50z" />
    <glyph glyph-name="multiply" unicode="&#xd7;" horiz-adv-x="1362" 
d="M1098 1090l-337 -334l344 -347l-73 -74l-346 346l-354 -356l-75 75l353 356l-346 346l76 73l346 -346l337 337z" />
    <glyph glyph-name="Oslash" unicode="&#xd8;" horiz-adv-x="1711" 
d="M440 80v3l-119 -168l-77 54l113 166q-131 103 -199.5 256.5t-68.5 306.5t28.5 261t79.5 197t121.5 159t155.5 118q172 98 388 98t399 -97v-2l100 148l79 -54l-98 -144q205 -143 262 -412q18 -86 18 -195t-28 -217.5t-78.5 -199t-120.5 -161.5t-155 -120
q-172 -100 -396.5 -100t-403.5 103zM532 214q134 -106 329 -106q250 0 407 163q161 166 161 428q0 244 -104 429q-35 63 -82 113zM1170 1303q-138 97 -328 97q-240 0 -400 -179q-157 -176 -157 -432q0 -225 99 -403q32 -58 74 -105z" />
    <glyph glyph-name="Ugrave" unicode="&#xd9;" horiz-adv-x="1537" 
d="M789 -23q-599 0 -599 564v859l-155 23v85h500v-85l-160 -23v-829q0 -369 235 -449q75 -25 181.5 -25t191.5 27t141 85q111 115 111 362v829l-153 23v85h419v-85l-151 -23v-859q0 -270 -145 -417t-416 -147zM617 1999l243 -330l-47 -39l-356 320z" />
    <glyph glyph-name="Uacute" unicode="&#xda;" horiz-adv-x="1537" 
d="M789 -23q-599 0 -599 564v859l-155 23v85h500v-85l-160 -23v-829q0 -369 235 -449q75 -25 181.5 -25t191.5 27t141 85q111 115 111 362v829l-153 23v85h419v-85l-151 -23v-859q0 -270 -145 -417t-416 -147zM1049 1951l-355 -320l-47 39l242 330z" />
    <glyph glyph-name="Ucircumflex" unicode="&#xdb;" horiz-adv-x="1537" 
d="M789 -23q-599 0 -599 564v859l-155 23v85h500v-85l-160 -23v-829q0 -369 235 -449q75 -25 181.5 -25t191.5 27t141 85q111 115 111 362v829l-153 23v85h419v-85l-151 -23v-859q0 -270 -145 -417t-416 -147zM772 2000l328 -269l-57 -70l-277 203l-276 -203l-54 63z" />
    <glyph glyph-name="Udieresis" unicode="&#xdc;" horiz-adv-x="1537" 
d="M789 -23q-599 0 -599 564v859l-155 23v85h500v-85l-160 -23v-829q0 -369 235 -449q75 -25 181.5 -25t191.5 27t141 85q111 115 111 362v829l-153 23v85h419v-85l-151 -23v-859q0 -270 -145 -417t-416 -147zM472 1836q-13 21 -13 39.5t12 40t30 40.5q43 44 70 44
t48.5 -12.5t39.5 -31.5q42 -43 42 -70.5t-12 -48.5t-30 -39q-41 -41 -80 -41q-31 0 -62.5 29t-44.5 50zM849 1836q-13 21 -13 39.5t12 40t30 40.5q43 44 70 44t48.5 -12.5t39.5 -31.5q42 -43 42 -70.5t-12 -48.5t-30 -39q-41 -41 -80 -41q-31 0 -62.5 29t-44.5 50z" />
    <glyph glyph-name="Yacute" unicode="&#xdd;" horiz-adv-x="1364" 
d="M7 1508h543v-85l-173 -23l364 -665l312 665l-165 23v85h464v-85l-154 -19l-394 -791v-505l174 -23v-85h-531v85l171 23v504l-474 788l-137 23v85zM965 1951l-355 -320l-47 39l242 330z" />
    <glyph glyph-name="Thorn" unicode="&#xde;" horiz-adv-x="1321" 
d="M665 490q159 0 247 90q88 89 88 240q0 171 -78 240q-85 75 -300 75h-233v-645h276zM224 1400l-152 23v85h467v-85l-150 -23v-144h256q492 0 543 -304q8 -51 8 -135.5t-36.5 -173t-107.5 -148.5q-144 -122 -416 -122h-247v-265l173 -23v-85h-490v85l152 23v1292z" />
    <glyph glyph-name="germandbls" unicode="&#xdf;" 
d="M202 876h-130v83l130 30v180q0 125 101 293q75 125 196 183q63 30 145.5 30t152 -20t117.5 -57q102 -76 102 -196q0 -109 -120 -242q-38 -43 -78 -83l-64 -63q-45 -49 -55 -88.5t-10 -75t14 -66t45 -63.5q61 -66 199 -148q219 -131 219 -317q0 -137 -118 -214
q-98 -65 -221 -65q-150 0 -245 95l23 171h52q0 -109 91 -147q32 -13 74.5 -13t75 13t54.5 34q45 41 45 101q0 112 -167 207q-246 139 -282 272q-12 42 -12 92.5t14.5 92.5t37.5 75.5t52 61.5l58 54q165 155 165 266q0 94 -71 150q-70 54 -183 54q-100 0 -172 -96
q-72 -94 -72 -221v-1133l104 -23v-83h-397v83l130 23v770z" />
    <glyph glyph-name="agrave" unicode="&#xe0;" horiz-adv-x="1025" 
d="M1019 52q-146 -75 -211 -75q-146 0 -146 124v31q-14 -21 -76.5 -61t-97.5 -56q-83 -38 -126 -38t-71 3.5t-58 13.5t-59 28t-52 47q-51 64 -51 167q0 142 101 198q64 37 135.5 46t130.5 14q112 10 224 12v210q0 87 -22 116q-37 51 -115 51q-174 0 -342 -113l-58 87
q234 156 419 156q161 0 228 -89q52 -69 52 -196v-526q0 -74 28 -84q10 -3 26 -3q40 0 123 31zM662 422q-284 -11 -364 -57q-61 -35 -61 -113q0 -113 87 -139q24 -7 58.5 -7t80.5 14t85 34q74 36 114 70v198zM453 1561l242 -330l-47 -40l-355 320z" />
    <glyph glyph-name="aacute" unicode="&#xe1;" horiz-adv-x="1025" 
d="M1019 52q-146 -75 -211 -75q-146 0 -146 124v31q-14 -21 -76.5 -61t-97.5 -56q-83 -38 -126 -38t-71 3.5t-58 13.5t-59 28t-52 47q-51 64 -51 167q0 142 101 198q64 37 135.5 46t130.5 14q112 10 224 12v210q0 87 -22 116q-37 51 -115 51q-174 0 -342 -113l-58 87
q234 156 419 156q161 0 228 -89q52 -69 52 -196v-526q0 -74 28 -84q10 -3 26 -3q40 0 123 31zM662 422q-284 -11 -364 -57q-61 -35 -61 -113q0 -113 87 -139q24 -7 58.5 -7t80.5 14t85 34q74 36 114 70v198zM696 1510l-357 -320l-47 40l243 330z" />
    <glyph glyph-name="acircumflex" unicode="&#xe2;" horiz-adv-x="1025" 
d="M1019 52q-146 -75 -211 -75q-146 0 -146 124v31q-14 -21 -76.5 -61t-97.5 -56q-83 -38 -126 -38t-71 3.5t-58 13.5t-59 28t-52 47q-51 64 -51 167q0 142 101 198q64 37 135.5 46t130.5 14q112 10 224 12v210q0 87 -22 116q-37 51 -115 51q-174 0 -342 -113l-58 87
q234 156 419 156q161 0 228 -89q52 -69 52 -196v-526q0 -74 28 -84q10 -3 26 -3q40 0 123 31zM662 422q-284 -11 -364 -57q-61 -35 -61 -113q0 -113 87 -139q24 -7 58.5 -7t80.5 14t85 34q74 36 114 70v198zM500 1529l326 -268l-56 -71l-278 202l-275 -202l-54 64z" />
    <glyph glyph-name="atilde" unicode="&#xe3;" horiz-adv-x="1025" 
d="M1019 52q-146 -75 -211 -75q-146 0 -146 124v31q-14 -21 -76.5 -61t-97.5 -56q-83 -38 -126 -38t-71 3.5t-58 13.5t-59 28t-52 47q-51 64 -51 167q0 142 101 198q64 37 135.5 46t130.5 14q112 10 224 12v210q0 87 -22 116q-37 51 -115 51q-174 0 -342 -113l-58 87
q234 156 419 156q161 0 228 -89q52 -69 52 -196v-526q0 -74 28 -84q10 -3 26 -3q40 0 123 31zM662 422q-284 -11 -364 -57q-61 -35 -61 -113q0 -113 87 -139q24 -7 58.5 -7t80.5 14t85 34q74 36 114 70v198zM335 1346q-76 0 -146 -81l-50 31q63 88 138 138q39 25 81 25
t81 -14t76 -31q100 -45 162.5 -45t117.5 80l54 -26q-50 -91 -124 -141q-37 -26 -80 -26t-82.5 14t-77.5 31q-102 45 -150 45z" />
    <glyph glyph-name="adieresis" unicode="&#xe4;" horiz-adv-x="1025" 
d="M1019 52q-146 -75 -211 -75q-146 0 -146 124v31q-14 -21 -76.5 -61t-97.5 -56q-83 -38 -126 -38t-71 3.5t-58 13.5t-59 28t-52 47q-51 64 -51 167q0 142 101 198q64 37 135.5 46t130.5 14q112 10 224 12v210q0 87 -22 116q-37 51 -115 51q-174 0 -342 -113l-58 87
q234 156 419 156q161 0 228 -89q52 -69 52 -196v-526q0 -74 28 -84q10 -3 26 -3q40 0 123 31zM662 422q-284 -11 -364 -57q-61 -35 -61 -113q0 -113 87 -139q24 -7 58.5 -7t80.5 14t85 34q74 36 114 70v198zM197.5 1195.5q-13.5 21.5 -13.5 39.5t12 39.5t30 39.5
q43 45 70 45t49 -12t40 -31q42 -43 42 -70.5t-12.5 -48.5t-31.5 -39q-43 -42 -68.5 -42t-46 11.5t-39 29t-32 39zM575 1195.5q-13 21.5 -13 39.5t11.5 39.5t29.5 39.5q43 45 70 45t49 -12t40 -31q42 -43 42 -70.5t-12 -48.5t-31 -39q-43 -42 -69 -42t-46.5 11.5t-39 29
t-31.5 39z" />
    <glyph glyph-name="aring" unicode="&#xe5;" horiz-adv-x="1025" 
d="M1019 52q-146 -75 -211 -75q-146 0 -146 124v31q-14 -21 -76.5 -61t-97.5 -56q-83 -38 -126 -38t-71 3.5t-58 13.5t-59 28t-52 47q-51 64 -51 167q0 142 101 198q64 37 135.5 46t130.5 14q112 10 224 12v210q0 87 -22 116q-37 51 -115 51q-174 0 -342 -113l-58 87
q234 156 419 156q161 0 228 -89q52 -69 52 -196v-526q0 -74 28 -84q10 -3 26 -3q40 0 123 31zM662 422q-284 -11 -364 -57q-61 -35 -61 -113q0 -113 87 -139q24 -7 58.5 -7t80.5 14t85 34q74 36 114 70v198zM250 1400q0 51 19.5 95t53.5 77q72 71 172 71q101 0 172 -71
t71 -172q0 -100 -71 -172q-71 -73 -172 -73q-100 0 -172.5 72.5t-72.5 172.5zM367.5 1455.5q-10.5 -26.5 -10.5 -56t10.5 -56t29.5 -46.5q39 -43 83 -43t69 11.5t44 31.5q39 43 39 87.5t-10.5 71t-28.5 46.5q-41 42 -84.5 42t-68.5 -11.5t-43.5 -31t-29 -46z" />
    <glyph glyph-name="ae" unicode="&#xe6;" horiz-adv-x="1702" 
d="M1508 229l54 -65q-150 -142 -300 -179q-32 -8 -81 -8t-110 15.5t-113 43.5q-106 56 -168 155l-24 -29q-110 -130 -261 -172q-47 -13 -83 -13t-63.5 3.5t-57 13.5t-58.5 28t-52 47q-51 64 -51 167q0 204 177 254q63 17 109 26l82 16q75 13 221 34v150q0 87 -21 116
q-37 51 -128 51q-159 0 -327 -113l-59 87q234 156 420 156q150 0 210 -72q37 -43 37 -103q47 95 187 150q63 25 138 25t139 -26t117 -79q120 -122 120 -319l-44 -43l-627 -56q2 -167 96 -268q97 -105 246 -105t275 112zM1266 876q-40 19 -92.5 19t-92 -18t-69.5 -46.5
t-51.5 -63.5t-35.5 -69q-27 -68 -30 -114l496 50q-3 183 -125 242zM536.5 439q-50.5 -12 -96.5 -25.5t-72 -32t-40 -39.5q-21 -35 -21 -83.5t12 -77t31 -45.5q35 -30 86.5 -30t103 15t93.5 39q96 56 96 116v202q-5 -1 -32.5 -5.5t-68.5 -13t-91.5 -20.5z" />
    <glyph glyph-name="ccedilla" unicode="&#xe7;" horiz-adv-x="1022" 
d="M892 229l57 -65q-159 -143 -308 -179q-33 -8 -65 -8q-219 0 -354 139q-131 135 -131 355t131 373q146 169 392 169q164 0 290 -54l-24 -201h-63q0 101 -121 128q-38 9 -106 9t-133.5 -31.5t-107.5 -83.5q-83 -103 -83 -252q0 -183 90 -293q97 -118 249.5 -118t286.5 112z
M601 9l-67 -144q145 0 206 -90q23 -33 23 -75q0 -71 -81 -140q-99 -88 -162 -88q-106 0 -198 65l34 126h39q0 -63 87 -85q23 -5 46 -5q65 0 87.5 23t25.5 41.5t3 43.5t-15 47t-43 37q-52 29 -151 33l-18 44l121 189z" />
    <glyph glyph-name="egrave" unicode="&#xe8;" horiz-adv-x="1025" 
d="M882 229l57 -65q-159 -143 -308 -179q-33 -8 -65 -8q-220 0 -358 139q-137 136 -137 355q0 218 129 373q142 169 369 169q157 0 265 -113q115 -118 115 -307l-47 -42l-652 -47q2 -182 118 -291q104 -96 242 -96t272 112zM257 598l514 47q-7 166 -128 228q-43 22 -110 22
t-119.5 -33t-86.5 -80q-65 -89 -70 -184zM504 1561l242 -330l-47 -40l-355 320z" />
    <glyph glyph-name="eacute" unicode="&#xe9;" horiz-adv-x="1025" 
d="M882 229l57 -65q-159 -143 -308 -179q-33 -8 -65 -8q-220 0 -358 139q-137 136 -137 355q0 218 129 373q142 169 369 169q157 0 265 -113q115 -118 115 -307l-47 -42l-652 -47q2 -182 118 -291q104 -96 242 -96t272 112zM257 598l514 47q-7 166 -128 228q-43 22 -110 22
t-119.5 -33t-86.5 -80q-65 -89 -70 -184zM747 1510l-357 -320l-47 40l243 330z" />
    <glyph glyph-name="ecircumflex" unicode="&#xea;" horiz-adv-x="1025" 
d="M882 229l57 -65q-159 -143 -308 -179q-33 -8 -65 -8q-220 0 -358 139q-137 136 -137 355q0 218 129 373q142 169 369 169q157 0 265 -113q115 -118 115 -307l-47 -42l-652 -47q2 -182 118 -291q104 -96 242 -96t272 112zM257 598l514 47q-7 166 -128 228q-43 22 -110 22
t-119.5 -33t-86.5 -80q-65 -89 -70 -184zM551 1529l326 -268l-56 -71l-278 202l-275 -202l-54 64z" />
    <glyph glyph-name="edieresis" unicode="&#xeb;" horiz-adv-x="1025" 
d="M882 229l57 -65q-159 -143 -308 -179q-33 -8 -65 -8q-220 0 -358 139q-137 136 -137 355q0 218 129 373q142 169 369 169q157 0 265 -113q115 -118 115 -307l-47 -42l-652 -47q2 -182 118 -291q104 -96 242 -96t272 112zM257 598l514 47q-7 166 -128 228q-43 22 -110 22
t-119.5 -33t-86.5 -80q-65 -89 -70 -184zM248.5 1195.5q-13.5 21.5 -13.5 39.5t12 39.5t30 39.5q43 45 70 45t49 -12t40 -31q42 -43 42 -70.5t-12.5 -48.5t-31.5 -39q-43 -42 -68.5 -42t-46 11.5t-39 29t-32 39zM626 1195.5q-13 21.5 -13 39.5t11.5 39.5t29.5 39.5
q43 45 70 45t49 -12t40 -31q42 -43 42 -70.5t-12 -48.5t-31 -39q-43 -42 -69 -42t-46.5 11.5t-39 29t-31.5 39z" />
    <glyph glyph-name="igrave" unicode="&#xec;" horiz-adv-x="513" 
d="M342 106l128 -23v-83h-420v83l130 23v728l-130 23v83l292 73v-907zM239 1561l242 -330l-47 -40l-355 320z" />
    <glyph glyph-name="iacute" unicode="&#xed;" horiz-adv-x="513" 
d="M342 106l128 -23v-83h-420v83l130 23v728l-130 23v83l292 73v-907zM483 1510l-357 -320l-47 40l243 330z" />
    <glyph glyph-name="icircumflex" unicode="&#xee;" horiz-adv-x="513" 
d="M342 106l128 -23v-83h-420v83l130 23v728l-130 23v83l292 73v-907zM287 1529l326 -268l-56 -71l-278 202l-275 -202l-54 64z" />
    <glyph glyph-name="idieresis" unicode="&#xef;" horiz-adv-x="513" 
d="M342 106l128 -23v-83h-420v83l130 23v728l-130 23v83l292 73v-907zM-15.5 1195.5q-13.5 21.5 -13.5 39.5t12 39.5t30 39.5q43 45 70 45t49 -12t40 -31q42 -43 42 -70.5t-12.5 -48.5t-31.5 -39q-43 -42 -68.5 -42t-46 11.5t-39 29t-32 39zM362 1195.5q-13 21.5 -13 39.5
t11.5 39.5t29.5 39.5q43 45 70 45t49 -12t40 -31q42 -43 42 -70.5t-12 -48.5t-31 -39q-43 -42 -69 -42t-46.5 11.5t-39 29t-31.5 39z" />
    <glyph glyph-name="eth" unicode="&#xf0;" 
d="M415 1634q123 -74 243 -198l213 211l46 -81l-198 -188q253 -282 336 -634q27 -115 27 -232t-34 -217t-95 -171q-128 -147 -331 -147q-234 0 -367 145q-124 134 -124 356q0 240 141 390q137 145 341 145q94 0 236 -71q-66 172 -216 348l-211 -207l-47 76l201 198
q-140 140 -217 209zM620 94q289 0 289 365q0 202 -45 299q-65 137 -253 137q-146 0 -229 -111q-76 -102 -76 -268q0 -174 82 -294q88 -128 232 -128z" />
    <glyph glyph-name="ntilde" unicode="&#xf1;" 
d="M672 883q-153 0 -307 -106v-671l127 -23v-83h-420v83l130 23v728l-130 23v83l276 73v-130q202 130 375 130q208 0 271 -173q21 -58 21 -136v-598l127 -23v-83h-419v83l129 23v579q0 198 -180 198zM484 1346q-76 0 -146 -81l-50 31q63 88 138 138q39 25 81 25t81 -14
t76 -31q100 -45 162.5 -45t117.5 80l54 -26q-50 -91 -124 -141q-37 -26 -80 -26t-82.5 14t-77.5 31q-102 45 -150 45z" />
    <glyph glyph-name="ograve" unicode="&#xf2;" horiz-adv-x="1194" 
d="M101 486q0 115 39.5 214t107.5 168q140 145 345 145q238 0 372 -141q127 -135 127 -353q0 -243 -144 -395q-140 -147 -346 -147q-235 0 -372 145q-129 136 -129 364zM296.5 664q-20.5 -69 -20.5 -149.5t18.5 -157t57.5 -135.5q86 -128 248 -128q152 0 236 100
q83 98 83 265q0 296 -169 398q-63 38 -149 38t-145 -29.5t-99 -81t-60.5 -120.5zM555 1561l242 -330l-47 -40l-355 320z" />
    <glyph glyph-name="oacute" unicode="&#xf3;" horiz-adv-x="1194" 
d="M101 486q0 115 39.5 214t107.5 168q140 145 345 145q238 0 372 -141q127 -135 127 -353q0 -243 -144 -395q-140 -147 -346 -147q-235 0 -372 145q-129 136 -129 364zM296.5 664q-20.5 -69 -20.5 -149.5t18.5 -157t57.5 -135.5q86 -128 248 -128q152 0 236 100
q83 98 83 265q0 296 -169 398q-63 38 -149 38t-145 -29.5t-99 -81t-60.5 -120.5zM798 1510l-357 -320l-47 40l243 330z" />
    <glyph glyph-name="ocircumflex" unicode="&#xf4;" horiz-adv-x="1194" 
d="M101 486q0 115 39.5 214t107.5 168q140 145 345 145q238 0 372 -141q127 -135 127 -353q0 -243 -144 -395q-140 -147 -346 -147q-235 0 -372 145q-129 136 -129 364zM296.5 664q-20.5 -69 -20.5 -149.5t18.5 -157t57.5 -135.5q86 -128 248 -128q152 0 236 100
q83 98 83 265q0 296 -169 398q-63 38 -149 38t-145 -29.5t-99 -81t-60.5 -120.5zM602 1529l326 -268l-56 -71l-278 202l-275 -202l-54 64z" />
    <glyph glyph-name="otilde" unicode="&#xf5;" horiz-adv-x="1194" 
d="M101 486q0 115 39.5 214t107.5 168q140 145 345 145q238 0 372 -141q127 -135 127 -353q0 -243 -144 -395q-140 -147 -346 -147q-235 0 -372 145q-129 136 -129 364zM296.5 664q-20.5 -69 -20.5 -149.5t18.5 -157t57.5 -135.5q86 -128 248 -128q152 0 236 100
q83 98 83 265q0 296 -169 398q-63 38 -149 38t-145 -29.5t-99 -81t-60.5 -120.5zM437 1346q-76 0 -146 -81l-50 31q63 88 138 138q39 25 81 25t81 -14t76 -31q100 -45 162.5 -45t117.5 80l54 -26q-50 -91 -124 -141q-37 -26 -80 -26t-82.5 14t-77.5 31q-102 45 -150 45z" />
    <glyph glyph-name="odieresis" unicode="&#xf6;" horiz-adv-x="1194" 
d="M101 486q0 115 39.5 214t107.5 168q140 145 345 145q238 0 372 -141q127 -135 127 -353q0 -243 -144 -395q-140 -147 -346 -147q-235 0 -372 145q-129 136 -129 364zM296.5 664q-20.5 -69 -20.5 -149.5t18.5 -157t57.5 -135.5q86 -128 248 -128q152 0 236 100
q83 98 83 265q0 296 -169 398q-63 38 -149 38t-145 -29.5t-99 -81t-60.5 -120.5zM299.5 1195.5q-13.5 21.5 -13.5 39.5t12 39.5t30 39.5q43 45 70 45t49 -12t40 -31q42 -43 42 -70.5t-12.5 -48.5t-31.5 -39q-43 -42 -68.5 -42t-46 11.5t-39 29t-32 39zM677 1195.5
q-13 21.5 -13 39.5t11.5 39.5t29.5 39.5q43 45 70 45t49 -12t40 -31q42 -43 42 -70.5t-12 -48.5t-31 -39q-43 -42 -69 -42t-46.5 11.5t-39 29t-31.5 39z" />
    <glyph glyph-name="divide" unicode="&#xf7;" horiz-adv-x="1362" 
d="M565 328.5q-14 22.5 -14 41.5t12.5 41.5t31.5 42.5q45 47 84 47q41 0 72 -33q57 -58 57 -97q0 -37 -32 -69q-57 -57 -97 -57q-34 0 -67 30.5t-47 53zM565 1108.5q-14 22.5 -14 41.5t12.5 41.5t31.5 42.5q45 47 84 47q41 0 72 -33q57 -58 57 -87.5t-13 -51.5t-32 -41
q-44 -44 -84 -44q-35 0 -67.5 31t-46.5 53.5zM1223 813v-107h-1084v107h1084z" />
    <glyph glyph-name="oslash" unicode="&#xf8;" horiz-adv-x="1194" 
d="M575 -23q-127 0 -243 63l-88 -123l-77 52l85 125q-163 139 -163 384q0 238 153 390q144 145 352 145q136 0 259 -57l72 107l80 -54l-73 -103q172 -132 172 -387q0 -241 -150 -395q-144 -147 -379 -147zM405 158q84 -64 178 -64t156 26t105 74q90 100 90 265
q0 125 -56 253q-17 39 -37 70zM779 841q-82 54 -173.5 54t-152.5 -29.5t-104 -81.5q-90 -107 -90 -268q0 -169 86 -300z" />
    <glyph glyph-name="ugrave" unicode="&#xf9;" horiz-adv-x="1194" 
d="M1128 42q-109 -65 -174 -65q-62 0 -92 25q-54 42 -54 99v14q-86 -73 -178 -105.5t-161 -32.5q-140 0 -219.5 76.5t-79.5 231.5v549l-119 20v88l281 71v-728q0 -90 62 -139q51 -40 120 -40q113 0 212 60q45 26 82 61v607l-151 20v83l313 76v-844q0 -54 54 -54q38 0 83 21z
M512 1561l242 -330l-47 -40l-355 320z" />
    <glyph glyph-name="uacute" unicode="&#xfa;" horiz-adv-x="1194" 
d="M1128 42q-109 -65 -174 -65q-62 0 -92 25q-54 42 -54 99v14q-86 -73 -178 -105.5t-161 -32.5q-140 0 -219.5 76.5t-79.5 231.5v549l-119 20v88l281 71v-728q0 -90 62 -139q51 -40 120 -40q113 0 212 60q45 26 82 61v607l-151 20v83l313 76v-844q0 -54 54 -54q38 0 83 21z
M755 1510l-357 -320l-47 40l243 330z" />
    <glyph glyph-name="ucircumflex" unicode="&#xfb;" horiz-adv-x="1194" 
d="M1128 42q-109 -65 -174 -65q-62 0 -92 25q-54 42 -54 99v14q-86 -73 -178 -105.5t-161 -32.5q-140 0 -219.5 76.5t-79.5 231.5v549l-119 20v88l281 71v-728q0 -90 62 -139q51 -40 120 -40q113 0 212 60q45 26 82 61v607l-151 20v83l313 76v-844q0 -54 54 -54q38 0 83 21z
M559 1529l326 -268l-56 -71l-278 202l-275 -202l-54 64z" />
    <glyph glyph-name="udieresis" unicode="&#xfc;" horiz-adv-x="1194" 
d="M1128 42q-109 -65 -174 -65q-62 0 -92 25q-54 42 -54 99v14q-86 -73 -178 -105.5t-161 -32.5q-140 0 -219.5 76.5t-79.5 231.5v549l-119 20v88l281 71v-728q0 -90 62 -139q51 -40 120 -40q113 0 212 60q45 26 82 61v607l-151 20v83l313 76v-844q0 -54 54 -54q38 0 83 21z
M256.5 1195.5q-13.5 21.5 -13.5 39.5t12 39.5t30 39.5q43 45 70 45t49 -12t40 -31q42 -43 42 -70.5t-12.5 -48.5t-31.5 -39q-43 -42 -68.5 -42t-46 11.5t-39 29t-32 39zM634 1195.5q-13 21.5 -13 39.5t11.5 39.5t29.5 39.5q43 45 70 45t49 -12t40 -31q42 -43 42 -70.5
t-12 -48.5t-31 -39q-43 -42 -69 -42t-46.5 11.5t-39 29t-31.5 39z" />
    <glyph glyph-name="yacute" unicode="&#xfd;" horiz-adv-x="1030" 
d="M131 -247q0 -98 87 -98q52 0 92 61q10 17 16 34l112 248q-334 785 -373 885l-137 23v83h446v-83l-124 -23l278 -674l294 679l-134 18v83h393v-83l-137 -23l-502 -1143q-22 -72 -69 -124q-90 -101 -155 -101q-96 0 -193 43l54 195h52zM743 1510l-357 -320l-47 40l243 330z
" />
    <glyph glyph-name="thorn" unicode="&#xfe;" horiz-adv-x="1195" 
d="M623 -23q-133 0 -258 68v-499l127 -23v-83h-420v83l130 23v1937l-130 25v81l293 74v-780q188 130 334 130q202 0 319 -141q112 -136 112 -353q0 -221 -129 -375q-139 -167 -378 -167zM657 883q-149 0 -292 -103v-571q86 -115 273 -115q147 0 234 115q84 111 84 288
q0 265 -164 355q-57 31 -135 31z" />
    <glyph glyph-name="ydieresis" unicode="&#xff;" horiz-adv-x="1030" 
d="M131 -247q0 -98 87 -98q52 0 92 61q10 17 16 34l112 248q-334 785 -373 885l-137 23v83h446v-83l-124 -23l278 -674l294 679l-134 18v83h393v-83l-137 -23l-502 -1143q-22 -72 -69 -124q-90 -101 -155 -101q-96 0 -193 43l54 195h52zM244.5 1195.5q-13.5 21.5 -13.5 39.5
t12 39.5t30 39.5q43 45 70 45t49 -12t40 -31q42 -43 42 -70.5t-12.5 -48.5t-31.5 -39q-43 -42 -68.5 -42t-46 11.5t-39 29t-32 39zM622 1195.5q-13 21.5 -13 39.5t11.5 39.5t29.5 39.5q43 45 70 45t49 -12t40 -31q42 -43 42 -70.5t-12 -48.5t-31 -39q-43 -42 -69 -42
t-46.5 11.5t-39 29t-31.5 39z" />
    <glyph glyph-name="Amacron" unicode="&#x100;" horiz-adv-x="1537" 
d="M1058 85l138 23l-158 389h-600l-157 -389l141 -23v-85h-429v85l158 23l525 1298l-42 99l162 68l598 -1465l161 -23v-85h-497v85zM485 618h509l-255 642zM499 1894l577 2l-28 -130h-576z" />
    <glyph glyph-name="amacron" unicode="&#x101;" horiz-adv-x="1025" 
d="M1019 52q-146 -75 -211 -75q-146 0 -146 124v31q-14 -21 -76.5 -61t-97.5 -56q-83 -38 -126 -38t-71 3.5t-58 13.5t-59 28t-52 47q-51 64 -51 167q0 142 101 198q64 37 135.5 46t130.5 14q112 10 224 12v210q0 87 -22 116q-37 51 -115 51q-174 0 -342 -113l-58 87
q234 156 419 156q161 0 228 -89q52 -69 52 -196v-526q0 -74 28 -84q10 -3 26 -3q40 0 123 31zM662 422q-284 -11 -364 -57q-61 -35 -61 -113q0 -113 87 -139q24 -7 58.5 -7t80.5 14t85 34q74 36 114 70v198zM258 1335l577 2l-28 -128h-576z" />
    <glyph glyph-name="Abreve" unicode="&#x102;" horiz-adv-x="1537" 
d="M1058 85l138 23l-158 389h-600l-157 -389l141 -23v-85h-429v85l158 23l525 1298l-42 99l162 68l598 -1465l161 -23v-85h-497v85zM485 618h509l-255 642zM771 1806q160 0 216 193l83 -16q-17 -111 -97 -195q-88 -92 -200 -92q-126 0 -207 88q-68 75 -88 199l84 16
q27 -136 128 -178q35 -15 81 -15z" />
    <glyph glyph-name="abreve" unicode="&#x103;" horiz-adv-x="1025" 
d="M1019 52q-146 -75 -211 -75q-146 0 -146 124v31q-14 -21 -76.5 -61t-97.5 -56q-83 -38 -126 -38t-71 3.5t-58 13.5t-59 28t-52 47q-51 64 -51 167q0 142 101 198q64 37 135.5 46t130.5 14q112 10 224 12v210q0 87 -22 116q-37 51 -115 51q-174 0 -342 -113l-58 87
q234 156 419 156q161 0 228 -89q52 -69 52 -196v-526q0 -74 28 -84q10 -3 26 -3q40 0 123 31zM662 422q-284 -11 -364 -57q-61 -35 -61 -113q0 -113 87 -139q24 -7 58.5 -7t80.5 14t85 34q74 36 114 70v198zM529 1368q163 0 216 194l83 -18q-17 -110 -97 -194
q-88 -92 -200 -92q-125 0 -206 88q-68 74 -88 198l84 18q27 -135 126 -178q36 -16 82 -16z" />
    <glyph glyph-name="Aogonek" unicode="&#x104;" horiz-adv-x="1537" 
d="M1491 -396q-51 -40 -145 -40q-156 0 -212 112q-19 38 -19 85t14.5 88t34.5 75q44 72 84 86q10 26 102 62l49 19q-100 -106 -129 -226q-9 -37 -9 -68q0 -98 74 -98q32 0 49 15q27 25 27 47h41zM1058 85l138 23l-158 389h-600l-157 -389l141 -23v-85h-429v85l158 23
l525 1298l-42 99l162 68l598 -1465l161 -23v-85h-497v85zM485 618h509l-255 642z" />
    <glyph glyph-name="aogonek" unicode="&#x105;" horiz-adv-x="1025" 
d="M1045 -396q-51 -40 -145 -40q-156 0 -212 112q-19 38 -19 85t14.5 88t34.5 75q44 72 84 86q10 26 102 62l49 19q-72 -82 -107.5 -161t-35.5 -136q0 -95 79 -95q32 0 49 15q27 25 27 47h41zM1019 52q-146 -75 -211 -75q-146 0 -146 124v31q-14 -21 -76.5 -61t-97.5 -56
q-83 -38 -126 -38t-71 3.5t-58 13.5t-59 28t-52 47q-51 64 -51 167q0 142 101 198q64 37 135.5 46t130.5 14q112 10 224 12v210q0 87 -22 116q-37 51 -115 51q-174 0 -342 -113l-58 87q234 156 419 156q161 0 228 -89q52 -69 52 -196v-526q0 -74 28 -84q10 -3 26 -3
q40 0 123 31zM662 422q-284 -11 -364 -57q-61 -35 -61 -113q0 -113 87 -139q24 -7 58.5 -7t80.5 14t85 34q74 36 114 70v198z" />
    <glyph glyph-name="Cacute" unicode="&#x106;" horiz-adv-x="1538" 
d="M898 1531q203 0 372 -51q74 -23 124 -51l-23 -267h-66q0 111 -109 178q-116 71 -319 71q-263 0 -435 -177q-171 -178 -171 -445q0 -283 158 -480q107 -133 271 -185q84 -27 191 -27t190 12.5t136 40.5q104 55 104 186h66l14 -258q-174 -101 -513 -101q-374 0 -597 217
q-213 207 -213 534q0 362 252 590q233 213 568 213zM1149 1951l-355 -320l-47 39l242 330z" />
    <glyph glyph-name="cacute" unicode="&#x107;" horiz-adv-x="1022" 
d="M892 229l57 -65q-159 -143 -308 -179q-33 -8 -65 -8q-219 0 -354 139q-131 135 -131 355t131 373q146 169 392 169q164 0 290 -54l-24 -201h-63q0 101 -121 128q-38 9 -106 9t-133.5 -31.5t-107.5 -83.5q-83 -103 -83 -252q0 -183 90 -293q97 -118 249.5 -118t286.5 112z
M760 1510l-357 -320l-47 40l243 330z" />
    <glyph glyph-name="Ccircumflex" unicode="&#x108;" horiz-adv-x="1538" 
d="M898 1531q203 0 372 -51q74 -23 124 -51l-23 -267h-66q0 111 -109 178q-116 71 -319 71q-263 0 -435 -177q-171 -178 -171 -445q0 -283 158 -480q107 -133 271 -185q84 -27 191 -27t190 12.5t136 40.5q104 55 104 186h66l14 -258q-174 -101 -513 -101q-374 0 -597 217
q-213 207 -213 534q0 362 252 590q233 213 568 213zM872 2000l328 -269l-57 -70l-277 203l-276 -203l-54 63z" />
    <glyph glyph-name="ccircumflex" unicode="&#x109;" horiz-adv-x="1022" 
d="M892 229l57 -65q-159 -143 -308 -179q-33 -8 -65 -8q-219 0 -354 139q-131 135 -131 355t131 373q146 169 392 169q164 0 290 -54l-24 -201h-63q0 101 -121 128q-38 9 -106 9t-133.5 -31.5t-107.5 -83.5q-83 -103 -83 -252q0 -183 90 -293q97 -118 249.5 -118t286.5 112z
M564 1529l326 -268l-56 -71l-278 202l-275 -202l-54 64z" />
    <glyph glyph-name="Cdotaccent" unicode="&#x10a;" horiz-adv-x="1538" 
d="M898 1531q203 0 372 -51q74 -23 124 -51l-23 -267h-66q0 111 -109 178q-116 71 -319 71q-263 0 -435 -177q-171 -178 -171 -445q0 -283 158 -480q107 -133 271 -185q84 -27 191 -27t190 12.5t136 40.5q104 55 104 186h66l14 -258q-174 -101 -513 -101q-374 0 -597 217
q-213 207 -213 534q0 362 252 590q233 213 568 213zM763 1834q-10 22 -10 43.5t10 43t26 39.5q37 40 67.5 40t52 -11t38.5 -29q37 -41 37 -72.5t-10.5 -53.5t-26.5 -40q-38 -39 -69.5 -39t-51.5 11t-36.5 28.5t-26.5 39.5z" />
    <glyph glyph-name="cdotaccent" unicode="&#x10b;" horiz-adv-x="1022" 
d="M892 229l57 -65q-159 -143 -308 -179q-33 -8 -65 -8q-219 0 -354 139q-131 135 -131 355t131 373q146 169 392 169q164 0 290 -54l-24 -201h-63q0 101 -121 128q-38 9 -106 9t-133.5 -31.5t-107.5 -83.5q-83 -103 -83 -252q0 -183 90 -293q97 -118 249.5 -118t286.5 112z
M453 1358q-10 22 -10 43.5t10 43t27 39.5q36 40 66.5 40t52 -11t37.5 -29q38 -41 38 -72.5t-10.5 -53.5t-27.5 -40q-37 -39 -68.5 -39t-51.5 11t-36.5 28.5t-26.5 39.5z" />
    <glyph glyph-name="Ccaron" unicode="&#x10c;" horiz-adv-x="1538" 
d="M898 1531q203 0 372 -51q74 -23 124 -51l-23 -267h-66q0 111 -109 178q-116 71 -319 71q-263 0 -435 -177q-171 -178 -171 -445q0 -283 158 -480q107 -133 271 -185q84 -27 191 -27t190 12.5t136 40.5q104 55 104 186h66l14 -258q-174 -101 -513 -101q-374 0 -597 217
q-213 207 -213 534q0 362 252 590q233 213 568 213zM864 1708l-316 221l45 71l278 -155l275 155l43 -64z" />
    <glyph glyph-name="ccaron" unicode="&#x10d;" horiz-adv-x="1022" 
d="M892 229l57 -65q-159 -143 -308 -179q-33 -8 -65 -8q-219 0 -354 139q-131 135 -131 355t131 373q146 169 392 169q164 0 290 -54l-24 -201h-63q0 101 -121 128q-38 9 -106 9t-133.5 -31.5t-107.5 -83.5q-83 -103 -83 -252q0 -183 90 -293q97 -118 249.5 -118t286.5 112z
M553 1239l-315 221l45 71l277 -156l276 156l43 -64z" />
    <glyph glyph-name="Dcaron" unicode="&#x10e;" horiz-adv-x="1708" 
d="M286 1400l-155 23v85h642q397 0 618 -194q216 -191 216 -523q0 -239 -111 -427q-102 -173 -283 -270q-176 -94 -379 -94h-703v85l155 23v1292zM471 1387v-1267h361q251 0 416 158q170 165 170 431q0 509 -356 635q-123 43 -294 43h-297zM736 1708l-316 221l45 71
l278 -155l275 155l43 -64z" />
    <glyph glyph-name="dcaron" unicode="&#x10f;" horiz-adv-x="1537" 
d="M1227 1083q59 83 59 166q0 45 -15 61.5t-33 29.5t-33 27t-15 33t12 41t30 43q45 49 90 49q37 0 72 -44q33 -42 33 -94t-10 -102.5t-26 -92.5q-60 -157 -191 -232l-31 54q32 25 58 61zM600 1013q125 0 249 -49v513l-153 31v81l315 74v-1503q0 -45 50.5 -45t126.5 31
l21 -94q-143 -75 -214 -75q-103 0 -135 67q-11 24 -11 57q-75 -66 -160 -95t-176.5 -29t-176.5 35t-142 100q-111 127 -111 359q0 222 131 373q145 169 386 169zM600 117q101 0 249 95v568q-86 115 -274 115q-145 0 -235 -117q-84 -111 -84 -286q0 -159 80 -261
q88 -114 264 -114z" />
    <glyph glyph-name="Dcroat" unicode="&#x110;" horiz-adv-x="1708" 
d="M56 838h171v562l-155 23v85h672q378 0 594 -194q214 -193 214 -523q0 -239 -109 -427q-100 -173 -275 -270q-170 -94 -363 -94h-733v85l155 23v611h-196zM412 1387v-549h429l-26 -119h-403v-599h391q236 0 393 158q163 162 163 421q0 298 -150 484q-165 204 -470 204
h-327z" />
    <glyph glyph-name="dcroat" unicode="&#x111;" 
d="M593 1335h539v-113h-539v113zM600 1013q125 0 249 -49v513l-153 31v81l315 74v-1503q0 -45 50.5 -45t126.5 31l21 -94q-143 -75 -214 -75q-103 0 -135 67q-11 24 -11 57q-75 -66 -160 -95t-176.5 -29t-176.5 35t-142 100q-111 127 -111 359q0 222 131 373
q145 169 386 169zM600 117q101 0 249 95v568q-86 115 -274 115q-145 0 -235 -117q-84 -111 -84 -286q0 -159 80 -261q88 -114 264 -114z" />
    <glyph glyph-name="Emacron" unicode="&#x112;" 
d="M790 723h-368v-603h557l72 177h76l-33 -297h-1012v85l152 23v1292l-152 23v85h968l23 -297h-88l-54 176h-509v-544h368l30 106h71v-331h-71zM381 1894l577 2l-28 -130h-576z" />
    <glyph glyph-name="emacron" unicode="&#x113;" horiz-adv-x="1025" 
d="M882 229l57 -65q-159 -143 -308 -179q-33 -8 -65 -8q-220 0 -358 139q-137 136 -137 355q0 218 129 373q142 169 369 169q157 0 265 -113q115 -118 115 -307l-47 -42l-652 -47q2 -182 118 -291q104 -96 242 -96t272 112zM257 598l514 47q-7 166 -128 228q-43 22 -110 22
t-119.5 -33t-86.5 -80q-65 -89 -70 -184zM271 1335l577 2l-28 -128h-576z" />
    <glyph glyph-name="Ebreve" unicode="&#x114;" 
d="M790 723h-368v-603h557l72 177h76l-33 -297h-1012v85l152 23v1292l-152 23v85h968l23 -297h-88l-54 176h-509v-544h368l30 106h71v-331h-71zM653 1806q160 0 216 193l83 -16q-17 -111 -97 -195q-88 -92 -200 -92q-126 0 -207 88q-68 75 -88 199l84 16q27 -136 128 -178
q35 -15 81 -15z" />
    <glyph glyph-name="ebreve" unicode="&#x115;" horiz-adv-x="1025" 
d="M882 229l57 -65q-159 -143 -308 -179q-33 -8 -65 -8q-220 0 -358 139q-137 136 -137 355q0 218 129 373q142 169 369 169q157 0 265 -113q115 -118 115 -307l-47 -42l-652 -47q2 -182 118 -291q104 -96 242 -96t272 112zM257 598l514 47q-7 166 -128 228q-43 22 -110 22
t-119.5 -33t-86.5 -80q-65 -89 -70 -184zM542 1368q163 0 216 194l83 -18q-17 -110 -97 -194q-88 -92 -200 -92q-125 0 -206 88q-68 74 -88 198l84 18q27 -135 126 -178q36 -16 82 -16z" />
    <glyph glyph-name="Edotaccent" unicode="&#x116;" 
d="M790 723h-368v-603h557l72 177h76l-33 -297h-1012v85l152 23v1292l-152 23v85h968l23 -297h-88l-54 176h-509v-544h368l30 106h71v-331h-71zM551 1834q-10 22 -10 43.5t10 43t26 39.5q37 40 67.5 40t52 -11t38.5 -29q37 -41 37 -72.5t-10.5 -53.5t-26.5 -40
q-38 -39 -69.5 -39t-51.5 11t-36.5 28.5t-26.5 39.5z" />
    <glyph glyph-name="edotaccent" unicode="&#x117;" horiz-adv-x="1025" 
d="M882 229l57 -65q-159 -143 -308 -179q-33 -8 -65 -8q-220 0 -358 139q-137 136 -137 355q0 218 129 373q142 169 369 169q157 0 265 -113q115 -118 115 -307l-47 -42l-652 -47q2 -182 118 -291q104 -96 242 -96t272 112zM257 598l514 47q-7 166 -128 228q-43 22 -110 22
t-119.5 -33t-86.5 -80q-65 -89 -70 -184zM440 1358q-10 22 -10 43.5t10 43t27 39.5q36 40 66.5 40t52 -11t37.5 -29q38 -41 38 -72.5t-10.5 -53.5t-27.5 -40q-37 -39 -68.5 -39t-51.5 11t-36.5 28.5t-26.5 39.5z" />
    <glyph glyph-name="Eogonek" unicode="&#x118;" 
d="M1077 -396q-51 -40 -145 -40q-80 0 -118 21.5t-64 50.5q-49 53 -49 112.5t14.5 100.5t34.5 75q44 72 84 86l110 40q-90 -111 -90 -248q0 -103 67 -103q32 0 49 15q27 25 27 47h41zM790 723h-368v-603h557l72 177h76l-33 -297h-1012v85l152 23v1292l-152 23v85h968
l23 -297h-88l-54 176h-509v-544h368l30 106h71v-331h-71z" />
    <glyph glyph-name="eogonek" unicode="&#x119;" horiz-adv-x="1025" 
d="M919 -396q-51 -40 -145 -40q-92 0 -157 49q-74 56 -74 152q0 77 49 159q44 72 84 86q10 26 102 62l49 19q-101 -98 -132 -222q-9 -36 -9 -74.5t19.5 -67t47.5 -28.5t42 6.5t24 15.5q20 18 20 40h41zM882 229l57 -65q-159 -143 -308 -179q-33 -8 -65 -8q-220 0 -358 139
q-137 136 -137 355q0 218 129 373q142 169 369 169q157 0 265 -113q115 -118 115 -307l-47 -42l-652 -47q2 -182 118 -291q104 -96 242 -96t272 112zM257 598l514 47q-7 166 -128 228q-43 22 -110 22t-119.5 -33t-86.5 -80q-65 -89 -70 -184z" />
    <glyph glyph-name="Ecaron" unicode="&#x11a;" 
d="M790 723h-368v-603h557l72 177h76l-33 -297h-1012v85l152 23v1292l-152 23v85h968l23 -297h-88l-54 176h-509v-544h368l30 106h71v-331h-71zM652 1708l-316 221l45 71l278 -155l275 155l43 -64z" />
    <glyph glyph-name="ecaron" unicode="&#x11b;" horiz-adv-x="1025" 
d="M882 229l57 -65q-159 -143 -308 -179q-33 -8 -65 -8q-220 0 -358 139q-137 136 -137 355q0 218 129 373q142 169 369 169q157 0 265 -113q115 -118 115 -307l-47 -42l-652 -47q2 -182 118 -291q104 -96 242 -96t272 112zM257 598l514 47q-7 166 -128 228q-43 22 -110 22
t-119.5 -33t-86.5 -80q-65 -89 -70 -184zM540 1239l-315 221l45 71l277 -156l276 156l43 -64z" />
    <glyph glyph-name="Gcircumflex" unicode="&#x11c;" horiz-adv-x="1707" 
d="M1002 679h591v-108h-56q-30 0 -45.5 -9.5t-15.5 -35.5v-432q-72 0 -160 -30l-128 -42q-143 -45 -308.5 -45t-313 59.5t-251.5 162.5t-160.5 242t-56.5 279.5t29.5 247.5t82.5 195t126.5 156.5t161.5 115.5q181 96 394 96q329 0 522 -102l-23 -247h-66q0 92 -114 157
q-126 72 -324 72q-257 0 -427 -185q-166 -180 -166 -437q0 -282 156 -480q168 -212 453 -212q314 0 370 135q17 42 17 91v203q0 27 -15.5 36t-41.5 9h-231v108zM877 2000l328 -269l-57 -70l-277 203l-276 -203l-54 63z" />
    <glyph glyph-name="gcircumflex" unicode="&#x11d;" 
d="M926 843q47 -76 47 -189q0 -159 -160 -282q-70 -54 -164 -90l-153 -58q-110 -41 -124.5 -56.5t-14.5 -25t10 -18.5t33 -17q55 -19 154 -19t185 -10.5t152 -39.5q144 -65 144 -222q0 -106 -83 -197q-115 -125 -326 -167q-63 -12 -139 -12t-155 16t-138 50
q-125 71 -125 213q0 110 93 169l65 39q27 14 60.5 21t67.5 16q-108 21 -149 86q-14 23 -14 48.5t10 43.5t36 36t72 40l119 56q-94 18 -176 87q-113 95 -113 268q0 166 146 281q129 103 284 103t268 -73q72 50 238 71l27 -31l-47 -137h-130zM244 -293q0 -42 31 -77.5
t79 -54.5q78 -31 176.5 -31t150.5 16t91 46q88 66 88 172q0 133 -188 150q-55 5 -115 5q-172 0 -273 -101q-28 -28 -34 -55.5t-6 -69.5zM326 776q-21 -49 -21 -119.5t21 -122.5t57 -88q73 -73 188 -73q150 0 214 126q24 47 24 116.5t-21 123.5t-57 92q-75 79 -188 79
q-160 0 -217 -134zM559 1529l326 -268l-56 -71l-278 202l-275 -202l-54 64z" />
    <glyph glyph-name="Gbreve" unicode="&#x11e;" horiz-adv-x="1707" 
d="M1002 679h591v-108h-56q-30 0 -45.5 -9.5t-15.5 -35.5v-432q-72 0 -160 -30l-128 -42q-143 -45 -308.5 -45t-313 59.5t-251.5 162.5t-160.5 242t-56.5 279.5t29.5 247.5t82.5 195t126.5 156.5t161.5 115.5q181 96 394 96q329 0 522 -102l-23 -247h-66q0 92 -114 157
q-126 72 -324 72q-257 0 -427 -185q-166 -180 -166 -437q0 -282 156 -480q168 -212 453 -212q314 0 370 135q17 42 17 91v203q0 27 -15.5 36t-41.5 9h-231v108zM870 1806q160 0 216 193l83 -16q-17 -111 -97 -195q-88 -92 -200 -92q-126 0 -207 88q-68 75 -88 199l84 16
q27 -136 128 -178q35 -15 81 -15z" />
    <glyph glyph-name="gbreve" unicode="&#x11f;" 
d="M926 843q47 -76 47 -189q0 -159 -160 -282q-70 -54 -164 -90l-153 -58q-110 -41 -124.5 -56.5t-14.5 -25t10 -18.5t33 -17q55 -19 154 -19t185 -10.5t152 -39.5q144 -65 144 -222q0 -106 -83 -197q-115 -125 -326 -167q-63 -12 -139 -12t-155 16t-138 50
q-125 71 -125 213q0 110 93 169l65 39q27 14 60.5 21t67.5 16q-108 21 -149 86q-14 23 -14 48.5t10 43.5t36 36t72 40l119 56q-94 18 -176 87q-113 95 -113 268q0 166 146 281q129 103 284 103t268 -73q72 50 238 71l27 -31l-47 -137h-130zM244 -293q0 -42 31 -77.5
t79 -54.5q78 -31 176.5 -31t150.5 16t91 46q88 66 88 172q0 133 -188 150q-55 5 -115 5q-172 0 -273 -101q-28 -28 -34 -55.5t-6 -69.5zM326 776q-21 -49 -21 -119.5t21 -122.5t57 -88q73 -73 188 -73q150 0 214 126q24 47 24 116.5t-21 123.5t-57 92q-75 79 -188 79
q-160 0 -217 -134zM550 1368q163 0 216 194l83 -18q-17 -110 -97 -194q-88 -92 -200 -92q-125 0 -206 88q-68 74 -88 198l84 18q27 -135 126 -178q36 -16 82 -16z" />
    <glyph glyph-name="Gdotaccent" unicode="&#x120;" horiz-adv-x="1707" 
d="M1002 679h591v-108h-56q-30 0 -45.5 -9.5t-15.5 -35.5v-432q-72 0 -160 -30l-128 -42q-143 -45 -308.5 -45t-313 59.5t-251.5 162.5t-160.5 242t-56.5 279.5t29.5 247.5t82.5 195t126.5 156.5t161.5 115.5q181 96 394 96q329 0 522 -102l-23 -247h-66q0 92 -114 157
q-126 72 -324 72q-257 0 -427 -185q-166 -180 -166 -437q0 -282 156 -480q168 -212 453 -212q314 0 370 135q17 42 17 91v203q0 27 -15.5 36t-41.5 9h-231v108zM768 1834q-10 22 -10 43.5t10 43t26 39.5q37 40 67.5 40t52 -11t38.5 -29q37 -41 37 -72.5t-10.5 -53.5
t-26.5 -40q-38 -39 -69.5 -39t-51.5 11t-36.5 28.5t-26.5 39.5z" />
    <glyph glyph-name="gdotaccent" unicode="&#x121;" 
d="M926 843q47 -76 47 -189q0 -159 -160 -282q-70 -54 -164 -90l-153 -58q-110 -41 -124.5 -56.5t-14.5 -25t10 -18.5t33 -17q55 -19 154 -19t185 -10.5t152 -39.5q144 -65 144 -222q0 -106 -83 -197q-115 -125 -326 -167q-63 -12 -139 -12t-155 16t-138 50
q-125 71 -125 213q0 110 93 169l65 39q27 14 60.5 21t67.5 16q-108 21 -149 86q-14 23 -14 48.5t10 43.5t36 36t72 40l119 56q-94 18 -176 87q-113 95 -113 268q0 166 146 281q129 103 284 103t268 -73q72 50 238 71l27 -31l-47 -137h-130zM244 -293q0 -42 31 -77.5
t79 -54.5q78 -31 176.5 -31t150.5 16t91 46q88 66 88 172q0 133 -188 150q-55 5 -115 5q-172 0 -273 -101q-28 -28 -34 -55.5t-6 -69.5zM326 776q-21 -49 -21 -119.5t21 -122.5t57 -88q73 -73 188 -73q150 0 214 126q24 47 24 116.5t-21 123.5t-57 92q-75 79 -188 79
q-160 0 -217 -134zM448 1358q-10 22 -10 43.5t10 43t27 39.5q36 40 66.5 40t52 -11t37.5 -29q38 -41 38 -72.5t-10.5 -53.5t-27.5 -40q-37 -39 -68.5 -39t-51.5 11t-36.5 28.5t-26.5 39.5z" />
    <glyph glyph-name="Gcommaaccent" unicode="&#x122;" horiz-adv-x="1707" 
d="M1002 679h591v-108h-56q-30 0 -45.5 -9.5t-15.5 -35.5v-432q-72 0 -160 -30l-128 -42q-143 -45 -308.5 -45t-313 59.5t-251.5 162.5t-160.5 242t-56.5 279.5t29.5 247.5t82.5 195t126.5 156.5t161.5 115.5q181 96 394 96q329 0 522 -102l-23 -247h-66q0 92 -114 157
q-126 72 -324 72q-257 0 -427 -185q-166 -180 -166 -437q0 -282 156 -480q168 -212 453 -212q314 0 370 135q17 42 17 91v203q0 27 -15.5 36t-41.5 9h-231v108zM807 -462q65 60 65 122q0 35 -18 51t-39.5 29t-39.5 27t-18 33.5t11.5 41.5t30.5 43q45 50 89 50q39 0 70 -32
q55 -57 55 -103t-10.5 -89t-27.5 -79q-28 -60 -81.5 -111t-120.5 -81l-31 55q36 17 65 43z" />
    <glyph glyph-name="gcommaaccent" unicode="&#x123;" 
d="M926 843q47 -76 47 -189q0 -159 -160 -282q-70 -54 -164 -90l-153 -58q-110 -41 -124.5 -56.5t-14.5 -25t10 -18.5t33 -17q55 -19 154 -19t185 -10.5t152 -39.5q144 -65 144 -222q0 -106 -83 -197q-115 -125 -326 -167q-63 -12 -139 -12t-155 16t-138 50
q-125 71 -125 213q0 110 93 169l65 39q27 14 60.5 21t67.5 16q-108 21 -149 86q-14 23 -14 48.5t10 43.5t36 36t72 40l119 56q-94 18 -176 87q-113 95 -113 268q0 166 146 281q129 103 284 103t268 -73q72 50 238 71l27 -31l-47 -137h-130zM244 -293q0 -42 31 -77.5
t79 -54.5q78 -31 176.5 -31t150.5 16t91 46q88 66 88 172q0 133 -188 150q-55 5 -115 5q-172 0 -273 -101q-28 -28 -34 -55.5t-6 -69.5zM326 776q-21 -49 -21 -119.5t21 -122.5t57 -88q73 -73 188 -73q150 0 214 126q24 47 24 116.5t-21 123.5t-57 92q-75 79 -188 79
q-160 0 -217 -134zM620.015 1674.97q-64.9961 -59.9961 -64.9961 -121.992q0 -34.998 17.999 -50.9971q17.998 -15.999 39.4971 -28.998t39.498 -26.999q17.999 -13.999 17.999 -33.4971q0 -19.499 -11.5 -41.498q-11.499 -21.998 -30.498 -42.9971
q-44.9971 -49.9971 -88.9941 -49.9971q-38.998 0 -69.9961 31.998q-54.9961 56.9961 -54.9961 102.994q0 45.9971 10.499 88.9941t27.498 78.9951q27.998 59.9961 81.4951 110.993t120.492 80.9951l30.999 -54.9971q-35.998 -16.998 -64.9961 -42.9971z" />
    <glyph glyph-name="Hcircumflex" unicode="&#x124;" horiz-adv-x="1707" 
d="M831 2000l328 -269l-57 -70l-277 203l-276 -203l-54 63z" />
    <glyph glyph-name="hcircumflex" unicode="&#x125;" 
d="M673 883q-151 0 -312 -106v-671l127 -23v-83h-420v83l130 23v1377l-130 25v81l293 74v-780q100 69 196.5 99.5t164.5 30.5t122 -19t92 -58q80 -81 80 -232v-598l127 -23v-83h-419v83l129 23v579q0 198 -180 198zM753 1972l326 -268l-56 -71l-278 202l-275 -202l-54 64z
" />
    <glyph glyph-name="Hbar" unicode="&#x126;" horiz-adv-x="1705" 
d="M85 1013l1568 1l-28 -130h-1567zM98 1508h490v-85l-153 -23v-745h835v745l-152 23v85h490v-85l-151 -23v-1292l151 -23v-85h-490v85l152 23v427h-835v-427l153 -23v-85h-490v85l152 23v1292l-152 23v85z" />
    <glyph glyph-name="hbar" unicode="&#x127;" 
d="M65 1333h510v-113h-510v113zM673 883q-151 0 -312 -106v-671l127 -23v-83h-420v83l130 23v1377l-130 25v81l293 74v-780q100 69 196.5 99.5t164.5 30.5t122 -19t92 -58q80 -81 80 -232v-598l127 -23v-83h-419v83l129 23v579q0 198 -180 198z" />
    <glyph glyph-name="Itilde" unicode="&#x128;" horiz-adv-x="682" 
d="M96 1508h490v-85l-151 -23v-1292l151 -23v-85h-490v85l154 23v1292l-154 23v85zM182 1821q-75 0 -146 -79l-49 30q61 89 136 138q40 25 82 25q55 0 125 -30.5t107.5 -44.5t76.5 -14q73 0 127 79l54 -25q-52 -93 -122 -142q-38 -25 -81 -25t-82.5 13.5t-77.5 29.5
q-102 45 -150 45z" />
    <glyph glyph-name="itilde" unicode="&#x129;" horiz-adv-x="513" 
d="M342 106l128 -23v-83h-420v83l130 23v728l-130 23v83l292 73v-907zM122 1346q-76 0 -146 -81l-50 31q63 88 138 138q39 25 81 25t81 -14t76 -31q100 -45 162.5 -45t117.5 80l54 -26q-50 -91 -124 -141q-37 -26 -80 -26t-82.5 14t-77.5 31q-102 45 -150 45z" />
    <glyph glyph-name="Imacron" unicode="&#x12a;" horiz-adv-x="682" 
d="M96 1508h490v-85l-151 -23v-1292l151 -23v-85h-490v85l154 23v1292l-154 23v85zM66 1894l577 2l-28 -130h-576z" />
    <glyph glyph-name="imacron" unicode="&#x12b;" horiz-adv-x="513" 
d="M342 106l128 -23v-83h-420v83l130 23v728l-130 23v83l292 73v-907zM6 1335l577 2l-28 -128h-576z" />
    <glyph glyph-name="Ibreve" unicode="&#x12c;" horiz-adv-x="682" 
d="M96 1508h490v-85l-151 -23v-1292l151 -23v-85h-490v85l154 23v1292l-154 23v85zM338 1806q160 0 216 193l83 -16q-17 -111 -97 -195q-88 -92 -200 -92q-126 0 -207 88q-68 75 -88 199l84 16q27 -136 128 -178q35 -15 81 -15z" />
    <glyph glyph-name="ibreve" unicode="&#x12d;" horiz-adv-x="513" 
d="M342 106l128 -23v-83h-420v83l130 23v728l-130 23v83l292 73v-907zM278 1368q163 0 216 194l83 -18q-17 -110 -97 -194q-88 -92 -200 -92q-125 0 -206 88q-68 74 -88 198l84 18q27 -135 126 -178q36 -16 82 -16z" />
    <glyph glyph-name="Iogonek" unicode="&#x12e;" horiz-adv-x="682" 
d="M586 -396q-51 -40 -145 -40q-156 0 -212 112q-19 38 -19 85t14.5 88t35.5 75q43 72 83 86q10 26 102 62l49 19q-87 -67 -122 -214q-9 -41 -9 -76q0 -102 67 -102q32 0 49 15q27 25 27 47h41zM96 1508h490v-85l-151 -23v-1292l151 -23v-85h-490v85l154 23v1292l-154 23v85
z" />
    <glyph glyph-name="iogonek" unicode="&#x12f;" horiz-adv-x="513" 
d="M490 -396q-51 -40 -145 -40q-156 0 -212 112q-19 38 -19 85t14.5 88t35.5 75q43 72 83 86q10 26 102 62l49 19q-87 -67 -122 -214q-9 -41 -9 -76q0 -102 67 -102q32 0 49 15q27 25 27 47h41zM342 106l128 -23v-83h-420v83l130 23v728l-130 23v83l292 73v-907zM148 1358
q-10 22 -10 43.5t10 43t26 39.5q37 40 67.5 40t52 -11t38.5 -29q37 -41 37 -72.5t-10.5 -53.5t-26.5 -40q-38 -39 -69.5 -39t-51.5 11t-36.5 28.5t-26.5 39.5z" />
    <glyph glyph-name="Idotaccent" unicode="&#x130;" horiz-adv-x="682" 
d="M96 1508h490v-85l-151 -23v-1292l151 -23v-85h-490v85l154 23v1292l-154 23v85zM236 1834q-10 22 -10 43.5t10 43t26 39.5q37 40 67.5 40t52 -11t38.5 -29q37 -41 37 -72.5t-10.5 -53.5t-26.5 -40q-38 -39 -69.5 -39t-51.5 11t-36.5 28.5t-26.5 39.5z" />
    <glyph glyph-name="dotlessi" unicode="&#x131;" horiz-adv-x="513" 
d="M342 106l128 -23v-83h-420v83l130 23v728l-130 23v83l292 73v-907z" />
    <glyph glyph-name="IJ" unicode="&#x132;" horiz-adv-x="1364" 
d="M96 1508h490v-85l-151 -23v-1292l151 -23v-85h-490v85l154 23v1292l-154 23v85zM1132 89q0 -259 -104 -419q-64 -96 -108.5 -133.5t-75.5 -56.5q-67 -40 -113 -40q-125 0 -206 63l63 197h65q0 -57 53 -86q22 -11 56.5 -11t67.5 16.5t58 50.5q57 77 57 212v1518l-152 23
v85h490v-85l-151 -23v-1311z" />
    <glyph glyph-name="ij" unicode="&#x133;" horiz-adv-x="1026" 
d="M342 106l128 -23v-83h-420v83l130 23v728l-130 23v83l292 73v-907zM148 1358q-10 22 -10 43.5t10 43t26 39.5q37 40 67.5 40t52 -11t38.5 -29q37 -41 37 -72.5t-10.5 -53.5t-26.5 -40q-38 -39 -69.5 -39t-51.5 11t-36.5 28.5t-26.5 39.5zM508 -337q181 0 181 346v825
l-130 23v83l292 73v-846q0 -185 -28 -280t-60.5 -152t-82 -111t-101 -82t-87.5 -28q-97 0 -153 23l54 187h40q0 -35 43 -54q14 -7 32 -7zM657.5 1358q-10.5 22 -10.5 43.5t10.5 43t27.5 39.5q36 40 77 40q42 0 68 -29q48 -52 48 -83.5t-10.5 -53.5t-26.5 -40
q-38 -39 -79 -39q-40 0 -67 28.5t-37.5 50.5z" />
    <glyph glyph-name="Jcircumflex" unicode="&#x134;" horiz-adv-x="682" 
d="M450 89q0 -259 -104 -419q-64 -96 -108.5 -133.5t-75.5 -56.5q-67 -40 -113 -40q-125 0 -206 63l63 197h65q0 -57 53 -86q22 -11 56.5 -11t67.5 16.5t58 50.5q57 77 57 212v1518l-152 23v85h490v-85l-151 -23v-1311zM319 2000l328 -269l-57 -70l-277 203l-276 -203
l-54 63z" />
    <glyph glyph-name="jcircumflex" unicode="&#x135;" horiz-adv-x="513" 
d="M-5 -337q181 0 181 346v825l-130 23v83l292 73v-846q0 -185 -28 -280t-60.5 -152t-82 -111t-101 -82t-87.5 -28q-97 0 -153 23l54 187h40q0 -35 43 -54q14 -7 32 -7zM262 1529l326 -268l-56 -71l-278 202l-275 -202l-54 64z" />
    <glyph glyph-name="Kcommaaccent" unicode="&#x136;" horiz-adv-x="1534" 
d="M1091 1402l-113 21v85h469v-85l-179 -21l-636 -611l610 -652l78 -38l130 -16v-85h-352l-677 753zM73 1508h490v-85l-150 -23v-1292l150 -23v-85h-490v85l155 23v1292l-155 23v85zM722 -462q65 60 65 122q0 35 -18 51t-39.5 29t-39.5 27t-18 33.5t11.5 41.5t30.5 43
q45 50 89 50q39 0 70 -32q55 -57 55 -103t-10.5 -89t-27.5 -79q-28 -60 -81.5 -111t-120.5 -81l-31 55q36 17 65 43z" />
    <glyph glyph-name="kcommaaccent" unicode="&#x137;" horiz-adv-x="1193" 
d="M355 106l127 -23v-83h-420v83l130 23v1377l-130 25v81l293 74v-1557zM810 885l-89 21v83h401v-83l-156 -23l-423 -325l420 -426l65 -33l108 -16v-83h-281l-492 532zM529 -462q65 60 65 122q0 35 -18 51t-39.5 29t-39.5 27t-18 33.5t11.5 41.5t30.5 43q45 50 89 50
q39 0 70 -32q55 -57 55 -103t-10.5 -89t-27.5 -79q-28 -60 -81.5 -111t-120.5 -81l-31 55q36 17 65 43z" />
    <glyph glyph-name="kgreenlandic" unicode="&#x138;" horiz-adv-x="1193" 
d="M365 106l127 -23v-83h-420v83l130 23v705l-130 23v83l293 72v-883zM800 885l-89 21v83h401v-83l-156 -23l-403 -372l400 -379l65 -33l108 -16v-83h-281l-472 485z" />
    <glyph glyph-name="Lacute" unicode="&#x139;" horiz-adv-x="1194" 
d="M562 1508v-85l-150 -23v-1280h548l59 224h82l-9 -344h-1020v85l152 23v1292l-152 23v85h490zM1030 1951l-355 -320l-47 39l242 330z" />
    <glyph glyph-name="lacute" unicode="&#x13a;" horiz-adv-x="513" 
d="M362 106l128 -23v-83h-420v83l130 23v1244l-130 25v81l292 74v-1424zM486 1908l-357 -320l-47 40l243 330z" />
    <glyph glyph-name="Lcommaaccent" unicode="&#x13b;" horiz-adv-x="1194" 
d="M562 1508v-85l-150 -23v-1280h548l59 224h82l-9 -344h-1020v85l152 23v1292l-152 23v85h490zM610 -462q65 60 65 122q0 35 -18 51t-39.5 29t-39.5 27t-18 33.5t11.5 41.5t30.5 43q45 50 89 50q39 0 70 -32q55 -57 55 -103t-10.5 -89t-27.5 -79q-28 -60 -81.5 -111
t-120.5 -81l-31 55q36 17 65 43z" />
    <glyph glyph-name="lcommaaccent" unicode="&#x13c;" horiz-adv-x="513" 
d="M335 106l128 -23v-83h-420v83l130 23v1377l-130 25v81l292 74v-1557zM211 -462q65 60 65 122q0 35 -18 51t-39.5 29t-39.5 27t-18 33.5t11.5 41.5t30.5 43q45 50 89 50q39 0 70 -32q55 -57 55 -103t-10.5 -89t-27.5 -79q-28 -60 -81.5 -111t-120.5 -81l-31 55
q36 17 65 43z" />
    <glyph glyph-name="Lcaron" unicode="&#x13d;" horiz-adv-x="1194" 
d="M803 1083q59 83 59 166q0 45 -15 61.5t-33 29.5t-33 27t-15 33t12 41t30 43q45 49 90 49q37 0 72 -44q33 -42 33 -94t-10 -102.5t-26 -92.5q-60 -157 -191 -232l-31 54q32 25 58 61zM562 1508v-85l-150 -23v-1280h548l59 224h82l-9 -344h-1020v85l152 23v1292l-152 23v85
h490z" />
    <glyph glyph-name="lcaron" unicode="&#x13e;" horiz-adv-x="856" 
d="M567 1083q59 83 59 166q0 45 -15 61.5t-33 29.5t-33 27t-15 33t12 41t30 43q45 49 90 49q37 0 72 -44q33 -42 33 -94t-10 -102.5t-26 -92.5q-60 -157 -191 -232l-31 54q32 25 58 61zM335 106l128 -23v-83h-420v83l130 23v1377l-130 25v81l292 74v-1557z" />
    <glyph glyph-name="Ldot" unicode="&#x13f;" horiz-adv-x="1194" 
d="M562 1508v-85l-150 -23v-1280h548l59 224h82l-9 -344h-1020v85l152 23v1292l-152 23v85h490zM847 907.5q-14 22.5 -14 41.5t12.5 41.5t31.5 42.5q45 47 84 47q41 0 72 -33q57 -58 57 -97q0 -37 -32 -69q-57 -57 -97 -57q-34 0 -67 30.5t-47 53z" />
    <glyph glyph-name="ldot" unicode="&#x140;" horiz-adv-x="1025" 
d="M335 106l128 -23v-83h-420v83l130 23v1377l-130 25v81l292 74v-1557zM654 550.5q-14 22.5 -14 41.5t12.5 41.5t31.5 42.5q45 47 84 47q41 0 72 -33q57 -58 57 -97q0 -37 -32 -69q-57 -57 -97 -57q-34 0 -67 30.5t-47 53z" />
    <glyph glyph-name="Lslash" unicode="&#x141;" horiz-adv-x="1194" 
d="M-5 737l690 184l29 -114l-685 -185zM562 1508v-85l-150 -23v-1280h518l59 224h82l-9 -344h-990v85l152 23v1292l-152 23v85h490z" />
    <glyph glyph-name="lslash" unicode="&#x142;" horiz-adv-x="513" 
d="M362 106l128 -23v-83h-420v83l130 23v687l-152 -42l-32 117l184 47v568l-130 25v81l292 74v-703l151 39l28 -114l-179 -47v-732z" />
    <glyph glyph-name="Nacute" unicode="&#x143;" horiz-adv-x="1707" 
d="M350 1218v-1110l152 -23v-85h-422v85l155 23v1292l-155 23v85h276l969 -1218v1110l-151 23v85h419v-85l-151 -23v-1400h-124zM1113 1951l-355 -320l-47 39l242 330z" />
    <glyph glyph-name="nacute" unicode="&#x144;" 
d="M672 883q-153 0 -307 -106v-671l127 -23v-83h-420v83l130 23v728l-130 23v83l276 73v-130q202 130 375 130q208 0 271 -173q21 -58 21 -136v-598l127 -23v-83h-419v83l129 23v579q0 198 -180 198zM845 1510l-357 -320l-47 40l243 330z" />
    <glyph glyph-name="Ncommaaccent" unicode="&#x145;" horiz-adv-x="1707" 
d="M350 1218v-1110l152 -23v-85h-422v85l155 23v1292l-155 23v85h276l969 -1218v1110l-151 23v85h419v-85l-151 -23v-1400h-124zM762 -462q65 60 65 122q0 35 -18 51t-39.5 29t-39.5 27t-18 33.5t11.5 41.5t30.5 43q45 50 89 50q39 0 70 -32q55 -57 55 -103t-10.5 -89
t-27.5 -79q-28 -60 -81.5 -111t-120.5 -81l-31 55q36 17 65 43z" />
    <glyph glyph-name="ncommaaccent" unicode="&#x146;" 
d="M672 883q-153 0 -307 -106v-671l127 -23v-83h-420v83l130 23v728l-130 23v83l276 73v-130q202 130 375 130q208 0 271 -173q21 -58 21 -136v-598l127 -23v-83h-419v83l129 23v579q0 198 -180 198zM569 -462q65 60 65 122q0 35 -18 51t-39.5 29t-39.5 27t-18 33.5
t11.5 41.5t30.5 43q45 50 89 50q39 0 70 -32q55 -57 55 -103t-10.5 -89t-27.5 -79q-28 -60 -81.5 -111t-120.5 -81l-31 55q36 17 65 43z" />
    <glyph glyph-name="Ncaron" unicode="&#x147;" horiz-adv-x="1707" 
d="M350 1218v-1110l152 -23v-85h-422v85l155 23v1292l-155 23v85h276l969 -1218v1110l-151 23v85h419v-85l-151 -23v-1400h-124zM828 1708l-316 221l45 71l278 -155l275 155l43 -64z" />
    <glyph glyph-name="ncaron" unicode="&#x148;" 
d="M672 883q-153 0 -307 -106v-671l127 -23v-83h-420v83l130 23v728l-130 23v83l276 73v-130q202 130 375 130q208 0 271 -173q21 -58 21 -136v-598l127 -23v-83h-419v83l129 23v579q0 198 -180 198zM638 1239l-315 221l45 71l277 -156l276 156l43 -64z" />
    <glyph glyph-name="Eng" unicode="&#x14a;" horiz-adv-x="1674" 
d="M1441 268v-169q0 -209 -119 -409q-78 -130 -178 -205q-60 -45 -106 -45q-124 0 -204 63l63 207h65q0 -57 54 -86q21 -11 55.5 -11t67.5 16.5t59 50.5q56 77 56 212v376h187zM342 1218v-1110l152 -23v-85h-422v85l155 23v1292l-155 23v85h276l976 -1218v1110l-151 23v85
h419v-85l-151 -23v-1301l-124 -99z" />
    <glyph glyph-name="eng" unicode="&#x14b;" horiz-adv-x="1225" 
d="M672 883q-153 0 -307 -106v-671l127 -23v-83h-420v83l130 23v728l-130 23v83l276 73v-130q202 130 375 130q208 0 271 -173q21 -58 21 -136v-598h-163v579q0 198 -180 198zM639 -404q14 -7 46 -7t66 13.5t57 47.5q44 66 44 235v221l78 64l85 -64l-1 -14
q0 -182 -31.5 -278t-65.5 -153t-83 -111q-101 -110 -177 -110q-99 0 -155 23l54 187h40q0 -35 43 -54z" />
    <glyph glyph-name="Omacron" unicode="&#x14c;" horiz-adv-x="1711" 
d="M127.5 432.5q-50.5 137.5 -50.5 278t28 248.5t77.5 197t119 159t152.5 118q169 98 362 98t335 -56.5t239 -155.5q197 -201 197 -528q0 -364 -221 -594q-102 -106 -237.5 -163t-303 -57t-310 58t-240 159t-148 238.5zM309.5 1028q-39.5 -113 -39.5 -221t16 -194
t47.5 -162.5t79 -141.5t110.5 -112q134 -100 316 -100q249 0 405 169q153 166 153 433q0 294 -133 489q-152 223 -444 223q-241 0 -398 -185q-73 -85 -112.5 -198zM557 1894l577 2l-28 -130h-576z" />
    <glyph glyph-name="omacron" unicode="&#x14d;" horiz-adv-x="1194" 
d="M101 486q0 115 39.5 214t107.5 168q140 145 345 145q238 0 372 -141q127 -135 127 -353q0 -243 -144 -395q-140 -147 -346 -147q-235 0 -372 145q-129 136 -129 364zM296.5 664q-20.5 -69 -20.5 -149.5t18.5 -157t57.5 -135.5q86 -128 248 -128q152 0 236 100
q83 98 83 265q0 296 -169 398q-63 38 -149 38t-145 -29.5t-99 -81t-60.5 -120.5zM321 1335l577 2l-28 -128h-576z" />
    <glyph glyph-name="Obreve" unicode="&#x14e;" horiz-adv-x="1711" 
d="M127.5 432.5q-50.5 137.5 -50.5 278t28 248.5t77.5 197t119 159t152.5 118q169 98 362 98t335 -56.5t239 -155.5q197 -201 197 -528q0 -364 -221 -594q-102 -106 -237.5 -163t-303 -57t-310 58t-240 159t-148 238.5zM309.5 1028q-39.5 -113 -39.5 -221t16 -194
t47.5 -162.5t79 -141.5t110.5 -112q134 -100 316 -100q249 0 405 169q153 166 153 433q0 294 -133 489q-152 223 -444 223q-241 0 -398 -185q-73 -85 -112.5 -198zM829 1806q160 0 216 193l83 -16q-17 -111 -97 -195q-88 -92 -200 -92q-126 0 -207 88q-68 75 -88 199l84 16
q27 -136 128 -178q35 -15 81 -15z" />
    <glyph glyph-name="obreve" unicode="&#x14f;" horiz-adv-x="1194" 
d="M101 486q0 115 39.5 214t107.5 168q140 145 345 145q238 0 372 -141q127 -135 127 -353q0 -243 -144 -395q-140 -147 -346 -147q-235 0 -372 145q-129 136 -129 364zM296.5 664q-20.5 -69 -20.5 -149.5t18.5 -157t57.5 -135.5q86 -128 248 -128q152 0 236 100
q83 98 83 265q0 296 -169 398q-63 38 -149 38t-145 -29.5t-99 -81t-60.5 -120.5zM593 1368q163 0 216 194l83 -18q-17 -110 -97 -194q-88 -92 -200 -92q-125 0 -206 88q-68 74 -88 198l84 18q27 -135 126 -178q36 -16 82 -16z" />
    <glyph glyph-name="Ohungarumlaut" unicode="&#x150;" horiz-adv-x="1711" 
d="M127.5 432.5q-50.5 137.5 -50.5 278t28 248.5t77.5 197t119 159t152.5 118q169 98 362 98t335 -56.5t239 -155.5q197 -201 197 -528q0 -364 -221 -594q-102 -106 -237.5 -163t-303 -57t-310 58t-240 159t-148 238.5zM309.5 1028q-39.5 -113 -39.5 -221t16 -194
t47.5 -162.5t79 -141.5t110.5 -112q134 -100 316 -100q249 0 405 169q153 166 153 433q0 294 -133 489q-152 223 -444 223q-241 0 -398 -185q-73 -85 -112.5 -198zM949 1951l-345 -320l-47 39l242 330zM1331 1951l-360 -320l-47 39l242 330z" />
    <glyph glyph-name="ohungarumlaut" unicode="&#x151;" horiz-adv-x="1194" 
d="M101 486q0 115 39.5 214t107.5 168q140 145 345 145q238 0 372 -141q127 -135 127 -353q0 -243 -144 -395q-140 -147 -346 -147q-235 0 -372 145q-129 136 -129 364zM296.5 664q-20.5 -69 -20.5 -149.5t18.5 -157t57.5 -135.5q86 -128 248 -128q152 0 236 100
q83 98 83 265q0 296 -169 398q-63 38 -149 38t-145 -29.5t-99 -81t-60.5 -120.5zM715 1563l-357 -331l-47 40l243 330zM1081 1542l-355 -310l-47 40l243 330z" />
    <glyph glyph-name="OE" unicode="&#x152;" horiz-adv-x="2218" 
d="M1764 723h-335v-603h566l74 177h74l-32 -297h-682q-218 0 -340.5 -8t-154.5 -10t-53 -3.5t-38 -1.5q-355 0 -565 217q-198 206 -198 534q0 360 224 587q213 216 523 216q43 0 133 -6q253 -17 469 -17h607l24 -297h-87l-54 176h-490v-544h335l30 106h71v-331h-71z
M313.5 1028q-39.5 -113 -39.5 -221t15.5 -194t47 -162.5t79 -141.5t110.5 -112q134 -100 315 -100q258 0 333 61q42 34 54.5 93t12.5 151v665q0 109 -17.5 176t-64 104.5t-128 50.5t-207 13t-226.5 -50t-173 -135t-111.5 -198z" />
    <glyph glyph-name="oe" unicode="&#x153;" horiz-adv-x="1882" 
d="M1778 164q-212 -187 -372 -187q-207 0 -338 134q-42 43 -67 98q-97 -166 -281 -217q-57 -15 -146.5 -15t-183.5 38.5t-158 106.5q-129 136 -129 356q0 240 147 390q140 145 345 145q219 0 354 -138q42 -43 71 -95q95 163 266 216q58 17 127 17t136 -33.5t118 -90.5
q111 -124 111 -296l-48 -42l-630 -47q2 -183 114 -291q100 -96 237 -96q139 0 273 112zM299 664q-21 -69 -21 -149.5t18.5 -157t57.5 -135.5q86 -128 248 -128q152 0 236 100q83 98 83 265q0 305 -175 401q-62 35 -145.5 35t-142 -29.5t-98.5 -81t-61 -120.5zM1374 895
q-63 0 -114 -33t-84 -80q-64 -91 -69 -184l497 47q-5 91 -56 163q-63 87 -174 87z" />
    <glyph glyph-name="Racute" unicode="&#x154;" horiz-adv-x="1366" 
d="M1136 1279q27 -69 27 -157t-27.5 -160t-79.5 -124q-99 -99 -291 -139l18 33l395 -600l70 -31l141 -16v-85h-343l-450 719l84 -36h-268v-575l150 -23v-85h-490v85l155 23v1292l-155 23v85h493q479 0 571 -229zM412 1387v-596h148q324 0 392 189q21 57 21 123.5t-19 119.5
t-64 89q-93 75 -315 75h-163zM941 1951l-355 -320l-47 39l242 330z" />
    <glyph glyph-name="racute" unicode="&#x155;" horiz-adv-x="853" 
d="M170 834l-128 23v83l290 73v-255q230 255 346 255q95 0 175 -76l-52 -162h-47q0 49 -75 73q-21 6 -42 6q-106 0 -305 -213v-535l198 -23v-83h-488v83l128 23v728zM560 1510l-357 -320l-47 40l243 330z" />
    <glyph glyph-name="Rcommaaccent" unicode="&#x156;" horiz-adv-x="1366" 
d="M1136 1279q27 -69 27 -157t-27.5 -160t-79.5 -124q-99 -99 -291 -139l18 33l395 -600l70 -31l141 -16v-85h-343l-450 719l84 -36h-268v-575l150 -23v-85h-490v85l155 23v1292l-155 23v85h493q479 0 571 -229zM412 1387v-596h148q324 0 392 189q21 57 21 123.5t-19 119.5
t-64 89q-93 75 -315 75h-163zM637 -462q65 60 65 122q0 35 -18 51t-39.5 29t-39.5 27t-18 33.5t11.5 41.5t30.5 43q45 50 89 50q39 0 70 -32q55 -57 55 -103t-10.5 -89t-27.5 -79q-28 -60 -81.5 -111t-120.5 -81l-31 55q36 17 65 43z" />
    <glyph glyph-name="rcommaaccent" unicode="&#x157;" horiz-adv-x="853" 
d="M170 834l-128 23v83l290 73v-255q230 255 346 255q95 0 175 -76l-52 -162h-47q0 49 -75 73q-21 6 -42 6q-106 0 -305 -213v-535l198 -23v-83h-488v83l128 23v728zM217 -462q65 60 65 122q0 35 -18 51t-39.5 29t-39.5 27t-18 33.5t11.5 41.5t30.5 43q45 50 89 50
q39 0 70 -32q55 -57 55 -103t-10.5 -89t-27.5 -79q-28 -60 -81.5 -111t-120.5 -81l-31 55q36 17 65 43z" />
    <glyph glyph-name="Rcaron" unicode="&#x158;" horiz-adv-x="1366" 
d="M1136 1279q27 -69 27 -157t-27.5 -160t-79.5 -124q-99 -99 -291 -139l18 33l395 -600l70 -31l141 -16v-85h-343l-450 719l84 -36h-268v-575l150 -23v-85h-490v85l155 23v1292l-155 23v85h493q479 0 571 -229zM412 1387v-596h148q324 0 392 189q21 57 21 123.5t-19 119.5
t-64 89q-93 75 -315 75h-163zM656 1708l-316 221l45 71l278 -155l275 155l43 -64z" />
    <glyph glyph-name="rcaron" unicode="&#x159;" horiz-adv-x="853" 
d="M170 834l-128 23v83l290 73v-255q230 255 346 255q95 0 175 -76l-52 -162h-47q0 49 -75 73q-21 6 -42 6q-106 0 -305 -213v-535l198 -23v-83h-488v83l128 23v728zM354 1239l-315 221l45 71l277 -156l276 156l43 -64z" />
    <glyph glyph-name="Sacute" unicode="&#x15a;" horiz-adv-x="1200" 
d="M590 96q74 0 134.5 14.5t104.5 45.5q94 65 94 190q0 106 -69 174q-73 70 -236.5 141.5t-249 128t-134.5 114.5q-89 102 -89 247q0 168 145 277q135 103 327 103q151 0 302 -55q63 -25 114 -55l-35 -267h-84q0 138 -75 200.5t-217 62.5q-196 0 -268 -128q-23 -42 -23 -94
t15 -93.5t58 -81.5q84 -81 316 -178q324 -138 378 -326q16 -59 16 -125.5t-22.5 -126t-61.5 -106t-90.5 -80.5t-109.5 -56q-257 -100 -540 16q-103 43 -182 105l42 287h85q0 -201 127 -280q87 -54 228 -54zM881 1951l-355 -320l-47 39l242 330z" />
    <glyph glyph-name="sacute" unicode="&#x15b;" horiz-adv-x="853" 
d="M171 292q0 -209 256 -209q97 0 155 43q53 39 53 98q0 62 -31 96q-61 67 -176.5 107t-173 76.5t-90.5 76.5q-57 68 -57 146.5t29.5 128.5t77.5 85q102 73 236 73q161 0 281 -71l-23 -193h-54q0 157 -209 157q-91 0 -138 -35.5t-47 -88.5q0 -117 261 -212q244 -90 275 -235
q8 -41 8 -97.5t-36.5 -109.5t-91.5 -86q-107 -65 -247 -65q-137 0 -256 53q-53 23 -92 53l38 209h52zM624 1510l-357 -320l-47 40l243 330z" />
    <glyph glyph-name="Scircumflex" unicode="&#x15c;" horiz-adv-x="1200" 
d="M590 96q74 0 134.5 14.5t104.5 45.5q94 65 94 190q0 106 -69 174q-73 70 -236.5 141.5t-249 128t-134.5 114.5q-89 102 -89 247q0 168 145 277q135 103 327 103q151 0 302 -55q63 -25 114 -55l-35 -267h-84q0 138 -75 200.5t-217 62.5q-196 0 -268 -128q-23 -42 -23 -94
t15 -93.5t58 -81.5q84 -81 316 -178q324 -138 378 -326q16 -59 16 -125.5t-22.5 -126t-61.5 -106t-90.5 -80.5t-109.5 -56q-257 -100 -540 16q-103 43 -182 105l42 287h85q0 -201 127 -280q87 -54 228 -54zM604 2000l328 -269l-57 -70l-277 203l-276 -203l-54 63z" />
    <glyph glyph-name="scircumflex" unicode="&#x15d;" horiz-adv-x="853" 
d="M171 292q0 -209 256 -209q97 0 155 43q53 39 53 98q0 62 -31 96q-61 67 -176.5 107t-173 76.5t-90.5 76.5q-57 68 -57 146.5t29.5 128.5t77.5 85q102 73 236 73q161 0 281 -71l-23 -193h-54q0 157 -209 157q-91 0 -138 -35.5t-47 -88.5q0 -117 261 -212q244 -90 275 -235
q8 -41 8 -97.5t-36.5 -109.5t-91.5 -86q-107 -65 -247 -65q-137 0 -256 53q-53 23 -92 53l38 209h52zM428 1529l326 -268l-56 -71l-278 202l-275 -202l-54 64z" />
    <glyph glyph-name="Scedilla" unicode="&#x15e;" horiz-adv-x="1200" 
d="M590 96q74 0 134.5 14.5t104.5 45.5q94 65 94 190q0 106 -69 174q-73 70 -236.5 141.5t-249 128t-134.5 114.5q-89 102 -89 247q0 168 145 277q135 103 327 103q151 0 302 -55q63 -25 114 -55l-35 -267h-84q0 138 -75 200.5t-217 62.5q-196 0 -268 -128q-23 -42 -23 -94
t15 -93.5t58 -81.5q84 -81 316 -178q324 -138 378 -326q16 -59 16 -125.5t-22.5 -126t-61.5 -106t-90.5 -80.5t-109.5 -56q-257 -100 -540 16q-103 43 -182 105l42 287h85q0 -201 127 -280q87 -54 228 -54zM659 9l-67 -144q145 0 206 -90q23 -33 23 -75q0 -71 -81 -140
q-99 -88 -162 -88q-106 0 -198 65l34 126h39q0 -63 87 -85q23 -5 46 -5q65 0 87.5 23t25.5 41.5t3 43.5t-15 47t-43 37q-52 29 -151 33l-18 44l121 189z" />
    <glyph glyph-name="scedilla" unicode="&#x15f;" horiz-adv-x="853" 
d="M171 292q0 -209 256 -209q97 0 155 43q53 39 53 98q0 62 -31 96q-61 67 -176.5 107t-173 76.5t-90.5 76.5q-57 68 -57 146.5t29.5 128.5t77.5 85q102 73 236 73q161 0 281 -71l-23 -193h-54q0 157 -209 157q-91 0 -138 -35.5t-47 -88.5q0 -117 261 -212q244 -90 275 -235
q8 -41 8 -97.5t-36.5 -109.5t-91.5 -86q-107 -65 -247 -65q-137 0 -256 53q-53 23 -92 53l38 209h52zM481 9l-67 -144q145 0 206 -90q23 -33 23 -75q0 -71 -81 -140q-99 -88 -162 -88q-106 0 -198 65l34 126h39q0 -63 87 -85q23 -5 46 -5q65 0 87.5 23t25.5 41.5t3 43.5
t-15 47t-43 37q-52 29 -151 33l-18 44l121 189z" />
    <glyph glyph-name="Scaron" unicode="&#x160;" horiz-adv-x="1200" 
d="M590 96q74 0 134.5 14.5t104.5 45.5q94 65 94 190q0 106 -69 174q-73 70 -236.5 141.5t-249 128t-134.5 114.5q-89 102 -89 247q0 168 145 277q135 103 327 103q151 0 302 -55q63 -25 114 -55l-35 -267h-84q0 138 -75 200.5t-217 62.5q-196 0 -268 -128q-23 -42 -23 -94
t15 -93.5t58 -81.5q84 -81 316 -178q324 -138 378 -326q16 -59 16 -125.5t-22.5 -126t-61.5 -106t-90.5 -80.5t-109.5 -56q-257 -100 -540 16q-103 43 -182 105l42 287h85q0 -201 127 -280q87 -54 228 -54zM596 1708l-316 221l45 71l278 -155l275 155l43 -64z" />
    <glyph glyph-name="scaron" unicode="&#x161;" horiz-adv-x="853" 
d="M171 292q0 -209 256 -209q97 0 155 43q53 39 53 98q0 62 -31 96q-61 67 -176.5 107t-173 76.5t-90.5 76.5q-57 68 -57 146.5t29.5 128.5t77.5 85q102 73 236 73q161 0 281 -71l-23 -193h-54q0 157 -209 157q-91 0 -138 -35.5t-47 -88.5q0 -117 261 -212q244 -90 275 -235
q8 -41 8 -97.5t-36.5 -109.5t-91.5 -86q-107 -65 -247 -65q-137 0 -256 53q-53 23 -92 53l38 209h52zM417 1239l-315 221l45 71l277 -156l276 156l43 -64z" />
    <glyph glyph-name="Tcommaaccent" unicode="&#x162;" horiz-adv-x="1537" 
d="M1406 1508l24 -321h-90l-51 200h-427v-1279l220 -23v-85h-625v85l218 23v1279h-425l-54 -200h-88l24 321h1274zM698 -462q65 60 65 122q0 35 -18 51t-39.5 29t-39.5 27t-18 33.5t11.5 41.5t30.5 43q45 50 89 50q39 0 70 -32q55 -57 55 -103t-10.5 -89t-27.5 -79
q-28 -60 -81.5 -111t-120.5 -81l-31 55q36 17 65 43z" />
    <glyph glyph-name="tcommaaccent" unicode="&#x163;" horiz-adv-x="684" 
d="M335 306q0 -200 162 -200q85 0 165 70l54 -66q-85 -70 -157 -101.5t-127 -31.5t-106.5 24t-85.5 69q-67 87 -67 247v555h-127v87l127 30v134l118 118h44v-252h330v-117h-330v-566zM316 -462q65 60 65 122q0 35 -18 51t-39.5 29t-39.5 27t-18 33.5t11.5 41.5t30.5 43
q45 50 89 50q39 0 70 -32q55 -57 55 -103t-10.5 -89t-27.5 -79q-28 -60 -81.5 -111t-120.5 -81l-31 55q36 17 65 43z" />
    <glyph glyph-name="Tcaron" unicode="&#x164;" horiz-adv-x="1537" 
d="M1406 1508l24 -321h-90l-51 200h-427v-1279l220 -23v-85h-625v85l218 23v1279h-425l-54 -200h-88l24 321h1274zM764 1708l-316 221l45 71l278 -155l275 155l43 -64z" />
    <glyph glyph-name="tcaron" unicode="&#x165;" horiz-adv-x="1022" 
d="M778 1083q59 83 59 166q0 45 -15 61.5t-33 29.5t-33 27t-15 33t12 41t31 43q44 49 89 49q37 0 72 -44q33 -42 33 -94t-10 -102.5t-26 -92.5q-60 -157 -191 -232l-31 54q32 25 58 61zM335 306q0 -200 162 -200q85 0 165 70l54 -66q-85 -70 -157 -101.5t-127 -31.5
t-106.5 24t-85.5 69q-67 87 -67 247v555h-127v87l127 30v134l118 118h44v-252h330v-117h-330v-566z" />
    <glyph glyph-name="Tbar" unicode="&#x166;" horiz-adv-x="1537" 
d="M381 828l770 2l-28 -128h-769zM1407 1508l24 -321h-90l-51 200h-427v-1279l220 -23v-85h-625v85l218 23v1279h-425l-54 -200h-88l24 321h1274z" />
    <glyph glyph-name="tbar" unicode="&#x167;" horiz-adv-x="684" 
d="M26 673h619v-113h-619v113zM336 306q0 -200 162 -200q84 0 165 70l54 -66q-85 -70 -157 -101.5t-127 -31.5t-106.5 24t-85.5 69q-67 87 -67 247v555h-127v87l127 30v134l118 118h44v-252h330v-117h-330v-566z" />
    <glyph glyph-name="Utilde" unicode="&#x168;" horiz-adv-x="1537" 
d="M789 -23q-599 0 -599 564v859l-155 23v85h500v-85l-160 -23v-829q0 -369 235 -449q75 -25 181.5 -25t191.5 27t141 85q111 115 111 362v829l-153 23v85h419v-85l-151 -23v-859q0 -270 -145 -417t-416 -147zM609 1821q-75 0 -146 -79l-49 30q61 89 136 138q40 25 82 25
q55 0 125 -30.5t107.5 -44.5t76.5 -14q73 0 127 79l54 -25q-52 -93 -122 -142q-38 -25 -81 -25t-82.5 13.5t-77.5 29.5q-102 45 -150 45z" />
    <glyph glyph-name="utilde" unicode="&#x169;" horiz-adv-x="1194" 
d="M1128 42q-109 -65 -174 -65q-62 0 -92 25q-54 42 -54 99v14q-86 -73 -178 -105.5t-161 -32.5q-140 0 -219.5 76.5t-79.5 231.5v549l-119 20v88l281 71v-728q0 -90 62 -139q51 -40 120 -40q113 0 212 60q45 26 82 61v607l-151 20v83l313 76v-844q0 -54 54 -54q38 0 83 21z
M394 1346q-76 0 -146 -81l-50 31q63 88 138 138q39 25 81 25t81 -14t76 -31q100 -45 162.5 -45t117.5 80l54 -26q-50 -91 -124 -141q-37 -26 -80 -26t-82.5 14t-77.5 31q-102 45 -150 45z" />
    <glyph glyph-name="Umacron" unicode="&#x16a;" horiz-adv-x="1537" 
d="M789 -23q-599 0 -599 564v859l-155 23v85h500v-85l-160 -23v-829q0 -369 235 -449q75 -25 181.5 -25t191.5 27t141 85q111 115 111 362v829l-153 23v85h419v-85l-151 -23v-859q0 -270 -145 -417t-416 -147zM493 1894l577 2l-28 -130h-576z" />
    <glyph glyph-name="umacron" unicode="&#x16b;" horiz-adv-x="1194" 
d="M1128 42q-109 -65 -174 -65q-62 0 -92 25q-54 42 -54 99v14q-86 -73 -178 -105.5t-161 -32.5q-140 0 -219.5 76.5t-79.5 231.5v549l-119 20v88l281 71v-728q0 -90 62 -139q51 -40 120 -40q113 0 212 60q45 26 82 61v607l-151 20v83l313 76v-844q0 -54 54 -54q38 0 83 21z
M279 1335l577 2l-28 -128h-576z" />
    <glyph glyph-name="Ubreve" unicode="&#x16c;" horiz-adv-x="1537" 
d="M789 -23q-599 0 -599 564v859l-155 23v85h500v-85l-160 -23v-829q0 -369 235 -449q75 -25 181.5 -25t191.5 27t141 85q111 115 111 362v829l-153 23v85h419v-85l-151 -23v-859q0 -270 -145 -417t-416 -147zM765 1806q160 0 216 193l83 -16q-17 -111 -97 -195
q-88 -92 -200 -92q-126 0 -207 88q-68 75 -88 199l84 16q27 -136 128 -178q35 -15 81 -15z" />
    <glyph glyph-name="ubreve" unicode="&#x16d;" horiz-adv-x="1194" 
d="M1128 42q-109 -65 -174 -65q-62 0 -92 25q-54 42 -54 99v14q-86 -73 -178 -105.5t-161 -32.5q-140 0 -219.5 76.5t-79.5 231.5v549l-119 20v88l281 71v-728q0 -90 62 -139q51 -40 120 -40q113 0 212 60q45 26 82 61v607l-151 20v83l313 76v-844q0 -54 54 -54q38 0 83 21z
M550 1368q163 0 216 194l83 -18q-17 -110 -97 -194q-88 -92 -200 -92q-125 0 -206 88q-68 74 -88 198l84 18q27 -135 126 -178q36 -16 82 -16z" />
    <glyph glyph-name="Uring" unicode="&#x16e;" horiz-adv-x="1537" 
d="M789 -23q-599 0 -599 564v859l-155 23v85h500v-85l-160 -23v-829q0 -369 235 -449q75 -25 181.5 -25t191.5 27t141 85q111 115 111 362v829l-153 23v85h419v-85l-151 -23v-859q0 -270 -145 -417t-416 -147zM524 1758q0 50 19.5 94t52.5 77q71 71 173 71q100 0 171 -71
q72 -72 72 -171q0 -101 -72 -173t-171 -72q-101 0 -173 72t-72 173zM640.5 1813q-10.5 -26 -10.5 -55.5t10.5 -56.5t29.5 -47q40 -42 84 -42t69 11.5t43 30.5q40 42 40 87.5t-10.5 71.5t-29.5 45q-40 43 -83.5 43t-69 -11.5t-44 -31t-29 -45.5z" />
    <glyph glyph-name="uring" unicode="&#x16f;" horiz-adv-x="1194" 
d="M1128 42q-109 -65 -174 -65q-62 0 -92 25q-54 42 -54 99v14q-86 -73 -178 -105.5t-161 -32.5q-140 0 -219.5 76.5t-79.5 231.5v549l-119 20v88l281 71v-728q0 -90 62 -139q51 -40 120 -40q113 0 212 60q45 26 82 61v607l-151 20v83l313 76v-844q0 -54 54 -54q38 0 83 21z
M309 1400q0 51 19.5 95t53.5 77q72 71 172 71q101 0 172 -71t71 -172q0 -100 -71 -172q-71 -73 -172 -73q-100 0 -172.5 72.5t-72.5 172.5zM426.5 1455.5q-10.5 -26.5 -10.5 -56t10.5 -56t29.5 -46.5q39 -43 83 -43t69 11.5t44 31.5q39 43 39 87.5t-10.5 71t-28.5 46.5
q-41 42 -84.5 42t-68.5 -11.5t-43.5 -31t-29 -46z" />
    <glyph glyph-name="Uhungarumlaut" unicode="&#x170;" horiz-adv-x="1537" 
d="M789 -23q-599 0 -599 564v859l-155 23v85h500v-85l-160 -23v-829q0 -369 235 -449q75 -25 181.5 -25t191.5 27t141 85q111 115 111 362v829l-153 23v85h419v-85l-151 -23v-859q0 -270 -145 -417t-416 -147zM885 1951l-345 -320l-47 39l242 330zM1267 1951l-360 -320
l-47 39l242 330z" />
    <glyph glyph-name="uhungarumlaut" unicode="&#x171;" horiz-adv-x="1194" 
d="M1128 42q-109 -65 -174 -65q-62 0 -92 25q-54 42 -54 99v14q-86 -73 -178 -105.5t-161 -32.5q-140 0 -219.5 76.5t-79.5 231.5v549l-119 20v88l281 71v-728q0 -90 62 -139q51 -40 120 -40q113 0 212 60q45 26 82 61v607l-151 20v83l313 76v-844q0 -54 54 -54q38 0 83 21z
M672 1563l-357 -331l-47 40l243 330zM1038 1542l-355 -310l-47 40l243 330z" />
    <glyph glyph-name="Uogonek" unicode="&#x172;" horiz-adv-x="1537" 
d="M1093 -396q-69 -40 -165 -40q-165 0 -224 98q-18 30 -18 74.5t24.5 89.5t63.5 84q85 83 184 108q59 0 113 27l40 1q-113 -50 -189 -142q-66 -80 -66 -142.5t61 -62.5q33 0 56 15q40 27 40 47h41zM789 -23q-599 0 -599 564v859l-155 23v85h500v-85l-160 -23v-829
q0 -369 235 -449q75 -25 181.5 -25t191.5 27t141 85q111 115 111 362v829l-153 23v85h419v-85l-151 -23v-859q0 -270 -145 -417t-416 -147z" />
    <glyph glyph-name="uogonek" unicode="&#x173;" horiz-adv-x="1194" 
d="M1194 -396q-84 -40 -153 -40t-111 12t-74 37q-68 54 -68 152q0 77 62 159q53 72 101 86q10 26 102 62l49 19q-109 -70 -150 -214q-11 -41 -11 -76q0 -102 97 -102q32 0 49 15q27 25 27 47h41zM1128 42q-109 -65 -174 -65q-62 0 -92 25q-54 42 -54 99v14
q-86 -73 -178 -105.5t-161 -32.5q-140 0 -219.5 76.5t-79.5 231.5v549l-119 20v88l281 71v-728q0 -90 62 -139q51 -40 120 -40q113 0 212 60q45 26 82 61v607l-151 20v83l313 76v-844q0 -54 54 -54q38 0 83 21z" />
    <glyph glyph-name="Wcircumflex" unicode="&#x174;" horiz-adv-x="2048" 
d="M757 240l257 836l-10 -133l-174 457l-125 23v85h468l1 -85l-146 -23l389 -1153q53 142 99 287l180 580q46 144 99 286l-144 23v85h384v-85l-111 -19l-484 -1404h-108l-316 908l49 -11l-285 -897h-108l-551 1400l-114 23v85h438l7 -85l-133 -23zM1028 2000l328 -269
l-57 -70l-277 203l-276 -203l-54 63z" />
    <glyph glyph-name="wcircumflex" unicode="&#x175;" horiz-adv-x="1708" 
d="M1252 0h-139l-252 707l-261 -707h-139l-351 883l-114 23v83h413v-83l-116 -23l274 -721l236 672l-29 49l-127 23v83h436v-83l-123 -23l259 -721l262 726l-116 18v83h348v-83l-112 -23zM860 1529l326 -268l-56 -71l-278 202l-275 -202l-54 64z" />
    <glyph glyph-name="Ycircumflex" unicode="&#x176;" horiz-adv-x="1364" 
d="M7 1508h543v-85l-173 -23l364 -665l312 665l-165 23v85h464v-85l-154 -19l-394 -791v-505l174 -23v-85h-531v85l171 23v504l-474 788l-137 23v85zM688 2000l328 -269l-57 -70l-277 203l-276 -203l-54 63z" />
    <glyph glyph-name="ycircumflex" unicode="&#x177;" horiz-adv-x="1030" 
d="M131 -247q0 -98 87 -98q52 0 92 61q10 17 16 34l112 248q-334 785 -373 885l-137 23v83h446v-83l-124 -23l278 -674l294 679l-134 18v83h393v-83l-137 -23l-502 -1143q-22 -72 -69 -124q-90 -101 -155 -101q-96 0 -193 43l54 195h52zM547 1529l326 -268l-56 -71l-278 202
l-275 -202l-54 64z" />
    <glyph glyph-name="Ydieresis" unicode="&#x178;" horiz-adv-x="1364" 
d="M7 1508h543v-85l-173 -23l364 -665l312 665l-165 23v85h464v-85l-154 -19l-394 -791v-505l174 -23v-85h-531v85l171 23v504l-474 788l-137 23v85zM388 1836q-13 21 -13 39.5t12 40t30 40.5q43 44 70 44t48.5 -12.5t39.5 -31.5q42 -43 42 -70.5t-12 -48.5t-30 -39
q-41 -41 -80 -41q-31 0 -62.5 29t-44.5 50zM765 1836q-13 21 -13 39.5t12 40t30 40.5q43 44 70 44t48.5 -12.5t39.5 -31.5q42 -43 42 -70.5t-12 -48.5t-30 -39q-41 -41 -80 -41q-31 0 -62.5 29t-44.5 50z" />
    <glyph glyph-name="Zacute" unicode="&#x179;" horiz-adv-x="1363" 
d="M1019 1382h-689l-123 -191h-82l77 317h1039v-125l-917 -1263h764l124 219h86l-68 -339h-1128v125zM964 1951l-355 -320l-47 39l242 330z" />
    <glyph glyph-name="zacute" unicode="&#x17a;" horiz-adv-x="1024" 
d="M661 895h-421l-89 -106h-66l54 200h733v-92l-589 -803h463l90 106h66l-54 -200h-776v92zM689 1510l-357 -320l-47 40l243 330z" />
    <glyph glyph-name="Zdotaccent" unicode="&#x17b;" horiz-adv-x="1363" 
d="M1019 1382h-689l-123 -191h-82l77 317h1039v-125l-917 -1263h764l124 219h86l-68 -339h-1128v125zM578 1834q-10 22 -10 43.5t10 43t26 39.5q37 40 67.5 40t52 -11t38.5 -29q37 -41 37 -72.5t-10.5 -53.5t-26.5 -40q-38 -39 -69.5 -39t-51.5 11t-36.5 28.5t-26.5 39.5z
" />
    <glyph glyph-name="zdotaccent" unicode="&#x17c;" horiz-adv-x="1024" 
d="M661 895h-421l-89 -106h-66l54 200h733v-92l-589 -803h463l90 106h66l-54 -200h-776v92zM382 1358q-10 22 -10 43.5t10 43t27 39.5q36 40 66.5 40t52 -11t37.5 -29q38 -41 38 -72.5t-10.5 -53.5t-27.5 -40q-37 -39 -68.5 -39t-51.5 11t-36.5 28.5t-26.5 39.5z" />
    <glyph glyph-name="Zcaron" unicode="&#x17d;" horiz-adv-x="1363" 
d="M1019 1382h-689l-123 -191h-82l77 317h1039v-125l-917 -1263h764l124 219h86l-68 -339h-1128v125zM679 1708l-316 221l45 71l278 -155l275 155l43 -64z" />
    <glyph glyph-name="zcaron" unicode="&#x17e;" horiz-adv-x="1024" 
d="M661 895h-421l-89 -106h-66l54 200h733v-92l-589 -803h463l90 106h66l-54 -200h-776v92zM482 1239l-315 221l45 71l277 -156l276 156l43 -64z" />
    <glyph glyph-name="florin" unicode="&#x192;" horiz-adv-x="1025" 
d="M289 -330h-162l122 1206h-122v83l133 30l22 212q14 154 132 299q134 163 313 163q115 0 183 -46q29 -20 43 -46l-86 -177h-65q11 99 -55 136q-24 14 -62.5 14t-77.5 -16.5t-71 -50.5q-72 -75 -85 -207l-29 -281h309v-117h-320z" />
    <glyph glyph-name="AEacute" unicode="&#x1fc;" horiz-adv-x="1877" 
d="M1786 1211h-85l-54 176h-512v-544h357l30 106h71v-331h-71l-30 105h-357v-603h528l74 177h72l-30 -297h-981v85l151 23v469h-394l-274 -469l105 -23v-85h-393v85l162 23l762 1296l-117 19v85h964zM949 695v565l-329 -565h329zM1301 1951l-355 -320l-47 39l242 330z" />
    <glyph glyph-name="aeacute" unicode="&#x1fd;" horiz-adv-x="1702" 
d="M1508 229l54 -65q-150 -142 -300 -179q-32 -8 -81 -8t-110 15.5t-113 43.5q-106 56 -168 155l-24 -29q-110 -130 -261 -172q-47 -13 -83 -13t-63.5 3.5t-57 13.5t-58.5 28t-52 47q-51 64 -51 167q0 204 177 254q63 17 109 26l82 16q75 13 221 34v150q0 87 -21 116
q-37 51 -128 51q-159 0 -327 -113l-59 87q234 156 420 156q150 0 210 -72q37 -43 37 -103q47 95 187 150q63 25 138 25t139 -26t117 -79q120 -122 120 -319l-44 -43l-627 -56q2 -167 96 -268q97 -105 246 -105t275 112zM1266 876q-40 19 -92.5 19t-92 -18t-69.5 -46.5
t-51.5 -63.5t-35.5 -69q-27 -68 -30 -114l496 50q-3 183 -125 242zM536.5 439q-50.5 -12 -96.5 -25.5t-72 -32t-40 -39.5q-21 -35 -21 -83.5t12 -77t31 -45.5q35 -30 86.5 -30t103 15t93.5 39q96 56 96 116v202q-5 -1 -32.5 -5.5t-68.5 -13t-91.5 -20.5zM1053 1510
l-357 -320l-47 40l243 330z" />
    <glyph glyph-name="Scommaaccent" unicode="&#x218;" horiz-adv-x="1200" 
d="M590 96q74 0 134.5 14.5t104.5 45.5q94 65 94 190q0 106 -69 174q-73 70 -236.5 141.5t-249 128t-134.5 114.5q-89 102 -89 247q0 168 145 277q135 103 327 103q151 0 302 -55q63 -25 114 -55l-35 -267h-84q0 138 -75 200.5t-217 62.5q-196 0 -268 -128q-23 -42 -23 -94
t15 -93.5t58 -81.5q84 -81 316 -178q324 -138 378 -326q16 -59 16 -125.5t-22.5 -126t-61.5 -106t-90.5 -80.5t-109.5 -56q-257 -100 -540 16q-103 43 -182 105l42 287h85q0 -201 127 -280q87 -54 228 -54zM530 -462q65 60 65 122q0 35 -18 51t-39.5 29t-39.5 27t-18 33.5
t11.5 41.5t30.5 43q45 50 89 50q39 0 70 -32q55 -57 55 -103t-10.5 -89t-27.5 -79q-28 -60 -81.5 -111t-120.5 -81l-31 55q36 17 65 43z" />
    <glyph glyph-name="scommaaccent" unicode="&#x219;" horiz-adv-x="853" 
d="M171 292q0 -209 256 -209q97 0 155 43q53 39 53 98q0 62 -31 96q-61 67 -176.5 107t-173 76.5t-90.5 76.5q-57 68 -57 146.5t29.5 128.5t77.5 85q102 73 236 73q161 0 281 -71l-23 -193h-54q0 157 -209 157q-91 0 -138 -35.5t-47 -88.5q0 -117 261 -212q244 -90 275 -235
q8 -41 8 -97.5t-36.5 -109.5t-91.5 -86q-107 -65 -247 -65q-137 0 -256 53q-53 23 -92 53l38 209h52zM352 -462q65 60 65 122q0 35 -18 51t-39.5 29t-39.5 27t-18 33.5t11.5 41.5t30.5 43q45 50 89 50q39 0 70 -32q55 -57 55 -103t-10.5 -89t-27.5 -79q-28 -60 -81.5 -111
t-120.5 -81l-31 55q36 17 65 43z" />
    <glyph glyph-name="dotlessj" unicode="&#x237;" horiz-adv-x="513" 
d="M-5 -337q181 0 181 346v825l-130 23v83l292 73v-846q0 -185 -28 -280t-60.5 -152t-82 -111t-101 -82t-87.5 -28q-97 0 -153 23l54 187h40q0 -35 43 -54q14 -7 32 -7z" />
    <glyph glyph-name="circumflex" unicode="&#x2c6;" horiz-adv-x="829" 
d="M420 1529l326 -268l-56 -71l-278 202l-275 -202l-54 64z" />
    <glyph glyph-name="caron" unicode="&#x2c7;" horiz-adv-x="829" 
d="M409 1239l-315 221l45 71l277 -156l276 156l43 -64z" />
    <glyph glyph-name="breve" unicode="&#x2d8;" horiz-adv-x="838" 
d="M420 1368q163 0 216 194l83 -18q-17 -110 -97 -194q-88 -92 -200 -92q-125 0 -206 88q-68 74 -88 198l84 18q27 -135 126 -178q36 -16 82 -16z" />
    <glyph glyph-name="dotaccent" unicode="&#x2d9;" horiz-adv-x="325" 
d="M67 1358q-10 22 -10 43.5t10 43t27 39.5q36 40 66.5 40t52 -11t37.5 -29q38 -41 38 -72.5t-10.5 -53.5t-27.5 -40q-37 -39 -68.5 -39t-51.5 11t-36.5 28.5t-26.5 39.5z" />
    <glyph glyph-name="ring" unicode="&#x2da;" horiz-adv-x="537" 
d="M23 1400q0 51 19.5 95t53.5 77q72 71 172 71q101 0 172 -71t71 -172q0 -100 -71 -172q-71 -73 -172 -73q-100 0 -172.5 72.5t-72.5 172.5zM140.5 1455.5q-10.5 -26.5 -10.5 -56t10.5 -56t29.5 -46.5q39 -43 83 -43t69 11.5t44 31.5q39 43 39 87.5t-10.5 71t-28.5 46.5
q-41 42 -84.5 42t-68.5 -11.5t-43.5 -31t-29 -46z" />
    <glyph glyph-name="ogonek" unicode="&#x2db;" horiz-adv-x="1413" 
d="M1243 -396q-58 -24 -134.5 -24t-120 19t-74.5 51q-63 67 -63 161q0 63 26 106q42 70 78 83l68 45l26 -47q-83 -64 -83 -155q0 -89 61 -131q20 -13 41.5 -13t35.5 6.5t24 15.5q20 18 20 40h41z" />
    <glyph glyph-name="tilde" unicode="&#x2dc;" horiz-adv-x="850" 
d="M266 1346q-76 0 -146 -81l-50 31q63 88 138 138q39 25 81 25t81 -14t76 -31q100 -45 162.5 -45t117.5 80l54 -26q-50 -91 -124 -141q-37 -26 -80 -26t-82.5 14t-77.5 31q-102 45 -150 45z" />
    <glyph glyph-name="hungarumlaut" unicode="&#x2dd;" horiz-adv-x="942" 
d="M626 1563l-357 -331l-47 40l243 330zM992 1542l-355 -310l-47 40l243 330z" />
    <glyph glyph-name="Delta" unicode="&#x394;" horiz-adv-x="1707" 
d="M117 22l688 1494h32l753 -1489l-16 -26h-1443zM1374 130l-555 1104l-490 -1106z" />
    <glyph glyph-name="Delta" unicode="&#x2206;" horiz-adv-x="1707" 
d="M117 22l688 1494h32l753 -1489l-16 -26h-1443zM1374 130l-555 1104l-490 -1106z" />
    <glyph glyph-name="Omega" unicode="&#x3a9;" horiz-adv-x="1877" 
d="M965 1553q117 0 243.5 -46t218.5 -135q197 -189 191 -515q-3 -208 -152 -443q-86 -135 -191 -226q-50 -44 -80 -59t-45.5 -32t-31.5 -37l-31 -36q-15 -17 -28 -24v126q155 93 248 286q94 195 94 438q0 297 -141 468q-127 153 -322 153q-344 0 -446 -343
q-35 -118 -35 -239t16 -200.5t43.5 -152.5t64 -137.5t77.5 -117.5q83 -109 166 -155v-126l-152 121q-92 39 -192 151q-166 184 -221 420q-44 189 13 392q81 284 332 400q147 69 361 69zM229 152h416l179 -152h-702zM1173 152h445l121 -152h-680zM1656 362h99l-16 -362
l-189 39zM279 42l-157 -42v362h99z" />
    <glyph glyph-name="Omega" unicode="&#x2126;" horiz-adv-x="1877" 
d="M965 1553q117 0 243.5 -46t218.5 -135q197 -189 191 -515q-3 -208 -152 -443q-86 -135 -191 -226q-50 -44 -80 -59t-45.5 -32t-31.5 -37l-31 -36q-15 -17 -28 -24v126q155 93 248 286q94 195 94 438q0 297 -141 468q-127 153 -322 153q-344 0 -446 -343
q-35 -118 -35 -239t16 -200.5t43.5 -152.5t64 -137.5t77.5 -117.5q83 -109 166 -155v-126l-152 121q-92 39 -192 151q-166 184 -221 420q-44 189 13 392q81 284 332 400q147 69 361 69zM229 152h416l179 -152h-702zM1173 152h445l121 -152h-680zM1656 362h99l-16 -362
l-189 39zM279 42l-157 -42v362h99z" />
    <glyph glyph-name="pi" unicode="&#x3c0;" horiz-adv-x="1537" 
d="M1120 1119q145 0 199 107h104q-10 -139 -102 -221q-90 -80 -228 -80l-671 1q-97 0 -154 -59q-19 -19 -28 -42l-104 13q-10 49 14 97q92 184 307 184h663zM1072 261q0 -97 50 -97q74 0 132 73q18 22 28 49h109q-26 -106 -109 -198q-100 -112 -213 -112q-109 0 -126 139
q-5 40 -5 82t3 83l48 748l124 64zM165 114q28 5 78.5 29t83 46.5t59.5 55t43 69.5q25 60 32 175l25 515l121 59l-26 -633q-12 -170 -32 -227.5t-43 -88.5t-54 -60q-57 -52 -143 -78z" />
    <glyph glyph-name="uni1E02" unicode="&#x1e02;" horiz-adv-x="1365" 
d="M1230 1158q0 -78 -27.5 -135t-68.5 -98q-73 -71 -182 -112q176 -34 258 -105q112 -98 112 -292q0 -174 -134 -289q-147 -127 -412 -127h-694v85l152 23v1292l-152 23v85h667q236 0 362 -96q119 -90 119 -254zM422 739v-619h283q332 0 402 181q22 57 22 124.5t-23.5 124
t-70.5 98.5q-102 91 -281 91h-332zM422 1387v-539h285q212 0 296 144q32 54 32 138q0 134 -74 195.5t-235 61.5h-304zM512 1834q-10 22 -10 43.5t10 43t26 39.5q37 40 67.5 40t52 -11t38.5 -29q37 -41 37 -72.5t-10.5 -53.5t-26.5 -40q-38 -39 -69.5 -39t-51.5 11
t-36.5 28.5t-26.5 39.5z" />
    <glyph glyph-name="uni1E03" unicode="&#x1e03;" horiz-adv-x="1195" 
d="M169 1483l-130 25v81l293 74v-780q98 69 188.5 99.5t172 30.5t159.5 -37.5t132 -103.5q113 -138 113 -353q0 -223 -133 -375q-144 -167 -390 -167q-158 0 -297 76q-62 33 -108 77v1353zM621 883q-135 0 -289 -103v-571q86 -115 273 -115q144 0 234 110q84 102 84 255
q0 282 -165 387q-57 37 -137 37zM623 1358q-10 22 -10 43.5t10 43t27 39.5q36 40 66.5 40t52 -11t37.5 -29q38 -41 38 -72.5t-10.5 -53.5t-27.5 -40q-37 -39 -68.5 -39t-51.5 11t-36.5 28.5t-26.5 39.5z" />
    <glyph glyph-name="uni1E0A" unicode="&#x1e0a;" horiz-adv-x="1708" 
d="M286 1400l-155 23v85h642q397 0 618 -194q216 -191 216 -523q0 -239 -111 -427q-102 -173 -283 -270q-176 -94 -379 -94h-703v85l155 23v1292zM471 1387v-1267h361q251 0 416 158q170 165 170 431q0 509 -356 635q-123 43 -294 43h-297zM635 1834q-10 22 -10 43.5t10 43
t26 39.5q37 40 67.5 40t52 -11t38.5 -29q37 -41 37 -72.5t-10.5 -53.5t-26.5 -40q-38 -39 -69.5 -39t-51.5 11t-36.5 28.5t-26.5 39.5z" />
    <glyph glyph-name="uni1E0B" unicode="&#x1e0b;" 
d="M600 1013q125 0 249 -49v513l-153 31v81l315 74v-1503q0 -45 50.5 -45t126.5 31l21 -94q-143 -75 -214 -75q-103 0 -135 67q-11 24 -11 57q-75 -66 -160 -95t-176.5 -29t-176.5 35t-142 100q-111 127 -111 359q0 222 131 373q145 169 386 169zM600 117q101 0 249 95v568
q-86 115 -274 115q-145 0 -235 -117q-84 -111 -84 -286q0 -159 80 -261q88 -114 264 -114zM346 1358q-10 22 -10 43.5t10 43t27 39.5q36 40 66.5 40t52 -11t37.5 -29q38 -41 38 -72.5t-10.5 -53.5t-27.5 -40q-37 -39 -68.5 -39t-51.5 11t-36.5 28.5t-26.5 39.5z" />
    <glyph glyph-name="uni1E1E" unicode="&#x1e1e;" 
d="M799 699h-387v-591l227 -23v-85h-567v85l152 23v1292l-152 23v85h1018l23 -297h-88l-54 176h-559v-567h387l30 106h62v-333h-62zM546 1834q-10 22 -10 43.5t10 43t26 39.5q37 40 67.5 40t52 -11t38.5 -29q37 -41 37 -72.5t-10.5 -53.5t-26.5 -40q-38 -39 -69.5 -39
t-51.5 11t-36.5 28.5t-26.5 39.5z" />
    <glyph glyph-name="uni1E1F" unicode="&#x1e1f;" horiz-adv-x="690" 
d="M347 110l217 -27v-83h-517v83l138 23v770h-138v83l138 30v212q0 157 97 299q111 163 291 163q115 0 188 -46q32 -20 48 -46l-68 -177h-65q0 100 -70 136q-25 14 -63.5 14t-74 -16.5t-62.5 -50.5q-59 -74 -59 -207v-281h304v-117h-304v-762zM159 1778q-10 22 -10 43.5
t10 43t27 39.5q36 40 66.5 40t52 -11t37.5 -29q38 -41 38 -72.5t-10.5 -53.5t-27.5 -40q-37 -39 -68.5 -39t-51.5 11t-36.5 28.5t-26.5 39.5z" />
    <glyph glyph-name="uni1E40" unicode="&#x1e40;" horiz-adv-x="2052" 
d="M405 1258l-42 -1150l139 -23v-85h-415v85l142 23l72 1292l-141 23v85h342l537 -1171l541 1171h313v-85l-150 -23q16 -326 34 -649t33 -643l154 -23v-85h-489v85l150 23l-45 1135l-582 -1243zM920 1834q-10 22 -10 43.5t10 43t26 39.5q37 40 67.5 40t52 -11t38.5 -29
q37 -41 37 -72.5t-10.5 -53.5t-26.5 -40q-38 -39 -69.5 -39t-51.5 11t-36.5 28.5t-26.5 39.5z" />
    <glyph glyph-name="uni1E41" unicode="&#x1e41;" horiz-adv-x="1878" 
d="M708 883q-175 0 -325 -106v-671l127 -23v-83h-418v83l129 23v728l-129 23v83l291 73v-130q188 130 354 130q208 0 270 -132q102 71 199 101.5t165 30.5q152 0 226.5 -76t74.5 -233v-598l126 -23v-83h-416v83l127 23v598q0 90 -53 138q-45 41 -112 41q-172 0 -315 -103
q5 -50 5 -76v-598l115 -23v-83h-396v83l117 23v598q0 90 -50 138q-43 41 -112 41zM824 1358q-10 22 -10 43.5t10 43t27 39.5q36 40 66.5 40t52 -11t37.5 -29q38 -41 38 -72.5t-10.5 -53.5t-27.5 -40q-37 -39 -68.5 -39t-51.5 11t-36.5 28.5t-26.5 39.5z" />
    <glyph glyph-name="uni1E56" unicode="&#x1e56;" 
d="M72 0v85l152 23v1292l-152 23v85h493q426 0 544 -230q44 -85 44 -204.5t-39.5 -211.5t-117.5 -156q-161 -134 -464 -134h-120v-464l197 -23v-85h-537zM412 1387v-709h148q199 0 304 106q93 96 93 259q0 168 -89 251q-99 93 -327 93h-129zM517 1834q-10 22 -10 43.5t10 43
t26 39.5q37 40 67.5 40t52 -11t38.5 -29q37 -41 37 -72.5t-10.5 -53.5t-26.5 -40q-38 -39 -69.5 -39t-51.5 11t-36.5 28.5t-26.5 39.5z" />
    <glyph glyph-name="uni1E57" unicode="&#x1e57;" horiz-adv-x="1194" 
d="M579 -23q-129 0 -244 49v-480l127 -23v-83h-420v83l130 23v1295l-130 24v81l293 67v-132q175 132 346 132q183 0 300 -135q119 -137 119 -359q0 -221 -132 -374q-144 -168 -389 -168zM335 780v-571q86 -115 273 -115q144 0 234 114q84 105 84 253q0 183 -76 297
q-82 125 -223 125t-292 -103zM575 1358q-10 22 -10 43.5t10 43t27 39.5q36 40 66.5 40t52 -11t37.5 -29q38 -41 38 -72.5t-10.5 -53.5t-27.5 -40q-37 -39 -68.5 -39t-51.5 11t-36.5 28.5t-26.5 39.5z" />
    <glyph glyph-name="uni1E60" unicode="&#x1e60;" horiz-adv-x="1200" 
d="M590 96q74 0 134.5 14.5t104.5 45.5q94 65 94 190q0 106 -69 174q-73 70 -236.5 141.5t-249 128t-134.5 114.5q-89 102 -89 247q0 168 145 277q135 103 327 103q151 0 302 -55q63 -25 114 -55l-35 -267h-84q0 138 -75 200.5t-217 62.5q-196 0 -268 -128q-23 -42 -23 -94
t15 -93.5t58 -81.5q84 -81 316 -178q324 -138 378 -326q16 -59 16 -125.5t-22.5 -126t-61.5 -106t-90.5 -80.5t-109.5 -56q-257 -100 -540 16q-103 43 -182 105l42 287h85q0 -201 127 -280q87 -54 228 -54zM495 1834q-10 22 -10 43.5t10 43t26 39.5q37 40 67.5 40t52 -11
t38.5 -29q37 -41 37 -72.5t-10.5 -53.5t-26.5 -40q-38 -39 -69.5 -39t-51.5 11t-36.5 28.5t-26.5 39.5z" />
    <glyph glyph-name="uni1E61" unicode="&#x1e61;" horiz-adv-x="853" 
d="M171 292q0 -209 256 -209q97 0 155 43q53 39 53 98q0 62 -31 96q-61 67 -176.5 107t-173 76.5t-90.5 76.5q-57 68 -57 146.5t29.5 128.5t77.5 85q102 73 236 73q161 0 281 -71l-23 -193h-54q0 157 -209 157q-91 0 -138 -35.5t-47 -88.5q0 -117 261 -212q244 -90 275 -235
q8 -41 8 -97.5t-36.5 -109.5t-91.5 -86q-107 -65 -247 -65q-137 0 -256 53q-53 23 -92 53l38 209h52zM317 1358q-10 22 -10 43.5t10 43t27 39.5q36 40 66.5 40t52 -11t37.5 -29q38 -41 38 -72.5t-10.5 -53.5t-27.5 -40q-37 -39 -68.5 -39t-51.5 11t-36.5 28.5t-26.5 39.5z
" />
    <glyph glyph-name="uni1E6A" unicode="&#x1e6a;" horiz-adv-x="1537" 
d="M1406 1508l24 -321h-90l-51 200h-427v-1279l220 -23v-85h-625v85l218 23v1279h-425l-54 -200h-88l24 321h1274zM664 1834q-10 22 -10 43.5t10 43t26 39.5q37 40 67.5 40t52 -11t38.5 -29q37 -41 37 -72.5t-10.5 -53.5t-26.5 -40q-38 -39 -69.5 -39t-51.5 11t-36.5 28.5
t-26.5 39.5z" />
    <glyph glyph-name="uni1E6B" unicode="&#x1e6b;" horiz-adv-x="684" 
d="M335 306q0 -200 162 -200q85 0 165 70l54 -66q-85 -70 -157 -101.5t-127 -31.5t-106.5 24t-85.5 69q-67 87 -67 247v555h-127v87l127 30v134l118 118h44v-252h330v-117h-330v-566zM281 1358q-10 22 -10 43.5t10 43t27 39.5q36 40 66.5 40t52 -11t37.5 -29
q38 -41 38 -72.5t-10.5 -53.5t-27.5 -40q-37 -39 -68.5 -39t-51.5 11t-36.5 28.5t-26.5 39.5z" />
    <glyph glyph-name="Wgrave" unicode="&#x1e80;" horiz-adv-x="2048" 
d="M757 240l257 836l-10 -133l-174 457l-125 23v85h468l1 -85l-146 -23l389 -1153q53 142 99 287l180 580q46 144 99 286l-144 23v85h384v-85l-111 -19l-484 -1404h-108l-316 908l49 -11l-285 -897h-108l-551 1400l-114 23v85h438l7 -85l-133 -23zM873 1999l243 -330
l-47 -39l-356 320z" />
    <glyph glyph-name="wgrave" unicode="&#x1e81;" horiz-adv-x="1708" 
d="M1252 0h-139l-252 707l-261 -707h-139l-351 883l-114 23v83h413v-83l-116 -23l274 -721l236 672l-29 49l-127 23v83h436v-83l-123 -23l259 -721l262 726l-116 18v83h348v-83l-112 -23zM813 1561l242 -330l-47 -40l-355 320z" />
    <glyph glyph-name="Wacute" unicode="&#x1e82;" horiz-adv-x="2048" 
d="M757 240l257 836l-10 -133l-174 457l-125 23v85h468l1 -85l-146 -23l389 -1153q53 142 99 287l180 580q46 144 99 286l-144 23v85h384v-85l-111 -19l-484 -1404h-108l-316 908l49 -11l-285 -897h-108l-551 1400l-114 23v85h438l7 -85l-133 -23zM1305 1951l-355 -320
l-47 39l242 330z" />
    <glyph glyph-name="wacute" unicode="&#x1e83;" horiz-adv-x="1708" 
d="M1252 0h-139l-252 707l-261 -707h-139l-351 883l-114 23v83h413v-83l-116 -23l274 -721l236 672l-29 49l-127 23v83h436v-83l-123 -23l259 -721l262 726l-116 18v83h348v-83l-112 -23zM1056 1510l-357 -320l-47 40l243 330z" />
    <glyph glyph-name="Wdieresis" unicode="&#x1e84;" horiz-adv-x="2048" 
d="M757 240l257 836l-10 -133l-174 457l-125 23v85h468l1 -85l-146 -23l389 -1153q53 142 99 287l180 580q46 144 99 286l-144 23v85h384v-85l-111 -19l-484 -1404h-108l-316 908l49 -11l-285 -897h-108l-551 1400l-114 23v85h438l7 -85l-133 -23zM728 1836q-13 21 -13 39.5
t12 40t30 40.5q43 44 70 44t48.5 -12.5t39.5 -31.5q42 -43 42 -70.5t-12 -48.5t-30 -39q-41 -41 -80 -41q-31 0 -62.5 29t-44.5 50zM1105 1836q-13 21 -13 39.5t12 40t30 40.5q43 44 70 44t48.5 -12.5t39.5 -31.5q42 -43 42 -70.5t-12 -48.5t-30 -39q-41 -41 -80 -41
q-31 0 -62.5 29t-44.5 50z" />
    <glyph glyph-name="wdieresis" unicode="&#x1e85;" horiz-adv-x="1708" 
d="M1252 0h-139l-252 707l-261 -707h-139l-351 883l-114 23v83h413v-83l-116 -23l274 -721l236 672l-29 49l-127 23v83h436v-83l-123 -23l259 -721l262 726l-116 18v83h348v-83l-112 -23zM557.5 1195.5q-13.5 21.5 -13.5 39.5t12 39.5t30 39.5q43 45 70 45t49 -12t40 -31
q42 -43 42 -70.5t-12.5 -48.5t-31.5 -39q-43 -42 -68.5 -42t-46 11.5t-39 29t-32 39zM935 1195.5q-13 21.5 -13 39.5t11.5 39.5t29.5 39.5q43 45 70 45t49 -12t40 -31q42 -43 42 -70.5t-12 -48.5t-31 -39q-43 -42 -69 -42t-46.5 11.5t-39 29t-31.5 39z" />
    <glyph glyph-name="Ygrave" unicode="&#x1ef2;" horiz-adv-x="1364" 
d="M7 1508h543v-85l-173 -23l364 -665l312 665l-165 23v85h464v-85l-154 -19l-394 -791v-505l174 -23v-85h-531v85l171 23v504l-474 788l-137 23v85zM533 1999l243 -330l-47 -39l-356 320z" />
    <glyph glyph-name="ygrave" unicode="&#x1ef3;" horiz-adv-x="1030" 
d="M131 -247q0 -98 87 -98q52 0 92 61q10 17 16 34l112 248q-334 785 -373 885l-137 23v83h446v-83l-124 -23l278 -674l294 679l-134 18v83h393v-83l-137 -23l-502 -1143q-22 -72 -69 -124q-90 -101 -155 -101q-96 0 -193 43l54 195h52zM500 1561l242 -330l-47 -40l-355 320
z" />
    <glyph glyph-name="endash" unicode="&#x2013;" horiz-adv-x="1367" 
d="M175 660h1009v-130h-1010z" />
    <glyph glyph-name="emdash" unicode="&#x2014;" horiz-adv-x="2557" 
d="M176 660h2205v-130h-2206z" />
    <glyph glyph-name="quoteleft" unicode="&#x2018;" horiz-adv-x="512" 
d="M266.5 1652q-27.5 -46 -27.5 -90.5t18 -60.5t39.5 -28.5t39.5 -26.5t18 -33t-11.5 -41.5t-30.5 -43.5q-46 -49 -91 -49q-39 0 -70 32q-54 57 -54 107.5t12.5 101.5t32.5 93q35 73 98.5 134.5t144.5 97.5l30 -56q-49 -25 -85 -58t-63.5 -79z" />
    <glyph glyph-name="quoteright" unicode="&#x2019;" horiz-adv-x="512" 
d="M266 1209q8 27 8 56t-18 45.5t-40 29.5t-40 27t-18 33t12 41t30 43q45 49 90 49q38 0 70 -31q55 -56 55 -107.5t-12.5 -102t-32.5 -92.5q-35 -73 -98.5 -134.5t-143.5 -97.5l-31 54q137 70 169 187z" />
    <glyph glyph-name="quotesinglbase" unicode="&#x201a;" horiz-adv-x="512" 
d="M266 -114q8 27 8 56t-18 45t-40 29t-40 27t-18 33t12 41t30 43q45 49 90 49q38 0 70 -31q55 -56 55 -107.5t-12.5 -102.5t-32.5 -93q-36 -76 -99 -135t-143 -95l-31 54q136 67 169 187z" />
    <glyph glyph-name="quotedblleft" unicode="&#x201c;" horiz-adv-x="1028" 
d="M734.5 1652q-27.5 -46 -27.5 -90.5t18 -60.5t40 -28.5t40 -26.5t18 -33t-12 -41.5t-31 -43.5q-44 -49 -89 -49q-39 0 -70 32q-55 57 -55 107.5t12 101.5t32 93q78 159 243 232l31 -56q-50 -25 -86 -58t-63.5 -79zM313.5 1652q-27.5 -46 -27.5 -90.5t18 -60.5t39.5 -28.5
t39.5 -26.5t18 -33t-11.5 -41.5t-30.5 -43.5q-46 -49 -91 -49q-39 0 -70 32q-54 57 -54 107.5t12.5 101.5t32.5 93q35 73 98.5 134.5t144.5 97.5l30 -56q-49 -25 -85 -58t-63.5 -79z" />
    <glyph glyph-name="quotedblright" unicode="&#x201d;" horiz-adv-x="1028" 
d="M314 1209q7 27 7 56t-18 45.5t-40 29.5t-40 27t-18 33t12 41t31 43q44 49 89 49q38 0 69 -31q56 -56 56 -107.5t-12.5 -102t-32.5 -92.5q-35 -73 -98.5 -134.5t-143.5 -97.5l-31 54q137 70 170 187zM734 1209q8 27 8 56t-18 45.5t-39.5 29.5t-39.5 27t-18 33t11.5 41
t30.5 43q46 49 89 49q39 0 70 -31q56 -56 56 -107.5t-12.5 -102t-32.5 -92.5q-35 -73 -98.5 -134.5t-144.5 -97.5l-30 54q136 69 168 187z" />
    <glyph glyph-name="quotedblbase" unicode="&#x201e;" horiz-adv-x="1028" 
d="M314 -114q7 27 7 56t-18 45t-40 29t-40 27t-18 33t12 41t31 43q44 49 89 49q38 0 69 -31q56 -56 56 -107.5t-12.5 -102.5t-32.5 -93q-36 -76 -99 -135t-143 -95l-31 54q136 67 170 187zM714 -164q28 46 28 90.5t-18 60.5t-39.5 29t-39.5 27t-18 33t11.5 41t30.5 43
q46 49 89 49q39 0 70 -31q56 -56 56 -107.5t-12.5 -102.5t-32.5 -93q-36 -76 -99 -135t-144 -95l-30 54q95 47 148 137z" />
    <glyph glyph-name="dagger" unicode="&#x2020;" horiz-adv-x="853" 
d="M46 777l332 7l-11 511h117l-11 -506l362 38l-28 -130l-334 -7l11 -1057h-117l11 1052l-361 -35z" />
    <glyph glyph-name="daggerdbl" unicode="&#x2021;" horiz-adv-x="853" 
d="M46 777l330 7l-9 511h117l-9 -506l360 38l-28 -130l-332 -7l2 -304l335 38l-29 -130l-306 -7l7 -654h-117l4 650l-330 -36l28 128l305 7l2 303l-359 -35z" />
    <glyph glyph-name="bullet" unicode="&#x2022;" horiz-adv-x="512" 
d="M91 558q0 67 49 114q48 47 116 47q67 0 116 -47q49 -48 49 -114t-49 -114q-49 -46 -99.5 -46t-80.5 12.5t-52 33.5q-49 47 -49 114z" />
    <glyph glyph-name="ellipsis" unicode="&#x2026;" horiz-adv-x="1536" 
d="M141 60.5q-14 22.5 -14 41.5t12.5 41.5t31.5 42.5q45 47 84 47q41 0 72 -33q57 -58 57 -97q0 -37 -32 -69q-57 -57 -97 -57q-34 0 -67 30.5t-47 53zM653 60.5q-14 22.5 -14 41.5t12.5 41.5t31.5 42.5q45 47 84 47q41 0 72 -33q57 -58 57 -97q0 -37 -32 -69
q-57 -57 -97 -57q-34 0 -67 30.5t-47 53zM1165 60.5q-14 22.5 -14 41.5t12.5 41.5t31.5 42.5q45 47 84 47q41 0 72 -33q57 -58 57 -97q0 -37 -32 -69q-57 -57 -97 -57q-34 0 -67 30.5t-47 53z" />
    <glyph glyph-name="perthousand" unicode="&#x2030;" horiz-adv-x="2392" 
d="M1470 1531l78 -68l-1296 -1486l-80 68zM117 1163q0 80 26.5 149.5t70.5 117.5q90 101 215 101q140 0 229 -99q86 -97 86 -248q0 -167 -96 -276q-91 -103 -214 -103q-141 0 -230 101q-87 101 -87 257zM243 1181q0 -58 10.5 -112.5t32.5 -96.5q50 -93 145 -93
q134 0 175 155q12 49 12 107.5t-9 115t-31 100.5q-50 99 -151 99q-86 0 -137 -80q-47 -75 -47 -195zM966 334q0 80 26.5 149t69.5 117q91 101 214 101q141 0 228 -99q88 -98 88 -247q0 -165 -98 -275q-90 -103 -213 -103q-139 0 -229 101q-86 98 -86 256zM1102.5 460
q-12.5 -50 -12.5 -108t10.5 -113t33.5 -97q51 -93 145 -93q89 0 139 73q47 69 47 191q0 215 -98 287q-37 27 -87 27t-84 -21.5t-57.5 -58.5t-36 -87zM1728 334q0 80 26.5 149t69.5 117q91 101 216 101q141 0 228 -98.5t87 -247.5q0 -166 -97 -275q-90 -103 -213 -103
q-140 0 -229 101q-88 99 -88 256zM1866 460q-12 -50 -12 -108t10.5 -113t33.5 -97q49 -93 144 -93q88 0 138 73q48 68 48 191q0 215 -98 287q-37 27 -87 27t-84 -21.5t-57.5 -58.5t-35.5 -87z" />
    <glyph glyph-name="guilsinglleft" unicode="&#x2039;" horiz-adv-x="682" 
d="M496 906l74 -75l-211 -235l-122 -122l119 -119l219 -238l-79 -79l-389 436z" />
    <glyph glyph-name="guilsinglright" unicode="&#x203a;" horiz-adv-x="682" 
d="M575 474l-388 -436l-80 79l218 238l121 119l-123 122l-212 235l76 75z" />
    <glyph glyph-name="fraction" unicode="&#x2044;" horiz-adv-x="1026" 
d="M838 1672l95 -45l-769 -1650l-94 41z" />
    <glyph glyph-name="Euro" unicode="&#x20ac;" horiz-adv-x="1366" 
d="M184 665q0 131 7 183h-83l52 118h49q59 257 235 409q173 149 395 149q183 0 297 -52q51 -23 80 -52l-24 -242h-66q0 153 -151 206q-57 20 -145 20t-161.5 -33.5t-128.5 -92.5q-109 -116 -147 -312h516l-54 -118h-475q-2 -34 -2 -82.5t4 -100.5h527l-54 -119h-459
q57 -320 257 -418q71 -34 161 -34t148 19.5t94 52.5q65 59 65 157h64l23 -243q-142 -103 -388 -103q-266 0 -432 161q-152 149 -192 408h-108l51 119h45z" />
    <glyph glyph-name="trademark" unicode="&#x2122;" horiz-adv-x="2392" 
d="M1008 1528l15 -198h-71l-30 111h-265v-672l74 -13v-67h-293v67l72 13v672h-264l-31 -111h-70l14 198h849zM1341 1389l-30 -640l85 -13v-47h-256v47l87 13l40 719l-86 13v47h215l305 -632l288 632h218v-47l-85 -13q9 -181 19.5 -361t18.5 -358l87 -13v-47h-298v47l85 13
l-25 631l-331 -691z" />
    <glyph glyph-name="partialdiff" unicode="&#x2202;" horiz-adv-x="1366" 
d="M338 1569q102 29 199 29q303 0 485 -270q176 -264 176 -687q0 -283 -132 -462q-148 -202 -429 -202q-200 0 -335 148q-134 147 -134 361q0 241 170 394q148 133 322 133q185 0 266 -66q22 -18 50 -36q0 198 -124 367q-90 125 -234 177q-75 27 -158 27t-163 -19zM514 122
q55 -28 139.5 -28t152 41.5t112.5 108.5q88 132 88 320q0 227 -164 305q-54 26 -135 26t-148.5 -32.5t-113.5 -92.5q-92 -120 -92 -339q0 -230 161 -309z" />
    <glyph glyph-name="product" unicode="&#x220f;" horiz-adv-x="1703" 
d="M175 85l188 34l-19 -20v1310l15 -20l-180 19v97h1345v-97l-180 -19l15 20v-1310l-19 20l188 -34v-85h-536v85l190 34l-18 -22v1320l15 -17h-655l15 17v-1320l-18 22l190 -34v-85h-536v85z" />
    <glyph glyph-name="summation" unicode="&#x2211;" horiz-adv-x="1537" 
d="M758 686l-581 786l-2 81h1095l33 -305h-103l-57 187l-867 16l131 8l573 -773l-547 -786l-83 19l835 31l90 213h87l-45 -343l-1104 1v79z" />
    <glyph glyph-name="minus" unicode="&#x2212;" horiz-adv-x="1362" 
d="M1223 813v-107h-1084v107h1084z" />
    <glyph glyph-name="radical" unicode="&#x221a;" horiz-adv-x="1873" 
d="M924 0h-139l-365 883l-199 23v83h349l312 -827l617 1706l123 2z" />
    <glyph glyph-name="infinity" unicode="&#x221e;" horiz-adv-x="1877" 
d="M670 197q-58 -27 -141.5 -27t-155 27t-117.5 71q-92 88 -92 222q0 162 118 264q114 96 276 96q179 0 352 -189l91 -100l-126 -106q-22 26 -46 58l-51 65q-65 81 -106 113q-80 61 -138.5 61t-100 -17.5t-71.5 -48.5q-61 -63 -61 -162q0 -101 73 -172q78 -76 200 -76
q123 0 258 168l69 88l65 -63l-88 -107q-98 -115 -208 -165zM1323 735q-149 0 -345 -249l-64 63l94 106q177 193 347 195q183 2 277 -99q81 -88 81 -224q0 -163 -118 -263q-112 -94 -275 -94q-182 0 -354 187l-91 99l127 106l74 -92q164 -201 296 -201q151 0 200 133
q15 41 15 89t-17.5 91.5t-51.5 77.5q-73 75 -195 75z" />
    <glyph glyph-name="integral" unicode="&#x222b;" horiz-adv-x="1200" 
d="M343 -472q-131 0 -218 70q-36 29 -57 77l130 91q10 -44 47 -70q66 -48 132 -48t108.5 20t65.5 61q39 70 39 237.5t-24 320t-53.5 304.5t-53.5 304t-24 280t29 221.5t84 163.5q119 153 309 153q131 0 218 -70q36 -29 57 -77l-130 -91q-10 44 -47 70q-66 48 -132 48
t-108.5 -20t-65.5 -61q-39 -70 -39 -237.5t24 -319.5t53.5 -304t53.5 -304t24 -280.5t-29 -222t-84 -164.5q-119 -152 -309 -152z" />
    <glyph glyph-name="approxequal" unicode="&#x2248;" horiz-adv-x="1192" 
d="M349 721q-75 0 -170 -80l-43 38q130 155 236 155q65 0 179 -28.5t159 -38.5q104 -23 147 -23q78 0 152 81l47 -33q-59 -85 -138 -135q-39 -25 -75.5 -25t-76 6.5t-84.5 16.5l-188 43q-102 23 -145 23zM349 268q-75 0 -170 -80l-43 38q130 155 236 155q65 0 179 -28.5
t159 -38.5q104 -23 147 -23q78 0 152 81l47 -33q-59 -85 -138 -135q-39 -25 -75.5 -25t-76 6.5t-84.5 16.5l-188 43q-102 23 -145 23z" />
    <glyph glyph-name="notequal" unicode="&#x2260;" horiz-adv-x="1362" 
d="M862 1266l94 -45l-460 -981l-95 42zM1223 612v-106h-1084v106h1084zM1223 1013v-107h-1084v107h1084z" />
    <glyph glyph-name="lessequal" unicode="&#x2264;" horiz-adv-x="1198" 
d="M278 940l794 -534l-57 -90l-878 600v47l878 601l57 -89zM1038 107v-107h-889v107h889z" />
    <glyph glyph-name="greaterequal" unicode="&#x2265;" horiz-adv-x="1198" 
d="M920.017 940l-793.951 -534l56.9961 -90l877.947 600v47l-877.947 601l-56.9961 -89zM160.063 107v-107h888.945v107h-888.945z" />
    <glyph glyph-name="lozenge" unicode="&#x25ca;" horiz-adv-x="1364" 
d="M708 1346l-400 -650v83l415 -710l-68 1l400 650v-83l-415 710zM162 691v54l431 671h187l421 -691v-54l-431 -671h-187z" />
    <glyph glyph-name="ff" unicode="&#xfb00;" horiz-adv-x="1380" 
d="M347 110l217 -27v-83h-517v83l138 23v770h-138v83l138 30v212q0 157 97 299q111 163 291 163q115 0 188 -46q32 -20 48 -46l-68 -177h-65q0 100 -70 136q-25 14 -63.5 14t-74 -16.5t-62.5 -50.5q-59 -74 -59 -207v-281h304v-117h-304v-762zM1037 110l217 -27v-83h-517v83
l138 23v770h-138v83l138 30v212q0 157 97 299q111 163 291 163q115 0 188 -46q32 -20 48 -46l-68 -177h-65q0 100 -70 136q-25 14 -63.5 14t-74 -16.5t-62.5 -50.5q-59 -74 -59 -207v-281h304v-117h-304v-762z" />
    <glyph glyph-name="commaaccent" horiz-adv-x="566" 
d="M234 -462q65 60 65 122q0 35 -18 51t-39.5 29t-39.5 27t-18 33.5t11.5 41.5t30.5 43q45 50 89 50q39 0 70 -32q55 -57 55 -103t-10.5 -89t-27.5 -79q-28 -60 -81.5 -111t-120.5 -81l-31 55q36 17 65 43z" />
    <glyph glyph-name="grave.cap" horiz-adv-x="566" 
d="M130 1999l243 -330l-47 -39l-356 320z" />
    <glyph glyph-name="acute.cap" horiz-adv-x="566" 
d="M565 1951l-355 -320l-47 39l242 330z" />
    <glyph glyph-name="circumflex.cap" horiz-adv-x="566" 
d="M287 2000l328 -269l-57 -70l-277 203l-276 -203l-54 63z" />
    <glyph glyph-name="dieresis.cap" horiz-adv-x="566" 
d="M-13 1836q-13 21 -13 39.5t12 40t30 40.5q43 44 70 44t48.5 -12.5t39.5 -31.5q42 -43 42 -70.5t-12 -48.5t-30 -39q-41 -41 -80 -41q-31 0 -62.5 29t-44.5 50zM364 1836q-13 21 -13 39.5t12 40t30 40.5q43 44 70 44t48.5 -12.5t39.5 -31.5q42 -43 42 -70.5t-12 -48.5
t-30 -39q-41 -41 -80 -41q-31 0 -62.5 29t-44.5 50z" />
    <glyph glyph-name="caron.cap" horiz-adv-x="566" 
d="M278 1708l-316 221l45 71l278 -155l275 155l43 -64z" />
    <glyph glyph-name="ring.cap" horiz-adv-x="566" 
d="M38 1758q0 50 19.5 94t52.5 77q71 71 173 71q100 0 171 -71q72 -72 72 -171q0 -101 -72 -173t-171 -72q-101 0 -173 72t-72 173zM154.5 1813q-10.5 -26 -10.5 -55.5t10.5 -56.5t29.5 -47q40 -42 84 -42t69 11.5t43 30.5q40 42 40 87.5t-10.5 71.5t-29.5 45
q-40 43 -83.5 43t-69 -11.5t-44 -31t-29 -45.5z" />
    <glyph glyph-name="tilde.cap" horiz-adv-x="566" 
d="M125 1821q-75 0 -146 -79l-49 30q61 89 136 138q40 25 82 25q55 0 125 -30.5t107.5 -44.5t76.5 -14q73 0 127 79l54 -25q-52 -93 -122 -142q-38 -25 -81 -25t-82.5 13.5t-77.5 29.5q-102 45 -150 45z" />
    <glyph glyph-name="hungarumlaut.cap" horiz-adv-x="566" 
d="M401 1951l-345 -320l-47 39l242 330zM783 1951l-360 -320l-47 39l242 330z" />
    <glyph glyph-name="breve.cap" horiz-adv-x="566" 
d="M281 1806q160 0 216 193l83 -16q-17 -111 -97 -195q-88 -92 -200 -92q-126 0 -207 88q-68 75 -88 199l84 16q27 -136 128 -178q35 -15 81 -15z" />
    <glyph glyph-name="macron.cap" horiz-adv-x="566" 
d="M9 1894l577 2l-28 -130h-576z" />
    <glyph glyph-name="dotaccent.cap" horiz-adv-x="566" 
d="M168 1834q-10 22 -10 43.5t10 43t26 39.5q37 40 67.5 40t52 -11t38.5 -29q37 -41 37 -72.5t-10.5 -53.5t-26.5 -40q-38 -39 -69.5 -39t-51.5 11t-36.5 28.5t-26.5 39.5z" />
    </font>
</defs>
</svg>
